<svg width="24" height="24" viewBox="0 0 24 24" fill="none" xmlns="http://www.w3.org/2000/svg">
<path d="M5.20041 1.92041C3.38891 1.92041 1.92041 3.38891 1.92041 5.20041V18.3204C1.92041 20.1319 3.38891 21.6004 5.20041 21.6004H18.3204C20.1319 21.6004 21.6004 20.1319 21.6004 18.3204V5.20041C21.6004 3.38891 20.1319 1.92041 18.3204 1.92041H5.20041ZM6.17782 6.13755H9.89711L12.5383 9.8907L15.7433 6.13755H16.9147L13.0673 10.6421L17.8116 17.3833H14.0932L11.0283 13.0288L7.30898 17.3833H6.13755L10.4993 12.2775L6.17782 6.13755ZM7.97157 7.0747L14.5819 16.4461H16.0178L9.40749 7.0747H7.97157Z" fill="#EEEBE2"/>
</svg>
