<svg width="616" height="616" viewBox="0 0 616 616" fill="none" xmlns="http://www.w3.org/2000/svg">
<path d="M167.934 155.688C156.74 155.688 146.004 151.241 138.088 143.325C130.173 135.41 125.726 124.674 125.726 113.479C125.726 102.285 130.173 91.5491 138.088 83.6335C146.004 75.7179 156.74 71.271 167.934 71.271C179.128 71.271 189.864 75.7179 197.78 83.6335C205.695 91.5491 210.142 102.285 210.142 113.479C210.142 124.674 205.695 135.41 197.78 143.325C189.864 151.241 179.128 155.688 167.934 155.688Z" fill="#EBEBEB"/>
<path d="M157.523 104.079H148.789V132.304H157.523V104.079Z" fill="#4E615F"/>
<path d="M153.113 100.383C154.146 100.393 155.158 100.096 156.021 99.529C156.885 98.9623 157.56 98.1519 157.962 97.2005C158.364 96.2492 158.475 95.1998 158.279 94.1857C158.084 93.1716 157.591 92.2384 156.865 91.5046C156.138 90.7709 155.209 90.2696 154.197 90.0645C153.185 89.8594 152.134 89.9597 151.179 90.3526C150.224 90.7456 149.407 91.4135 148.833 92.2715C148.258 93.1295 147.951 94.139 147.951 95.1718C147.947 96.5464 148.489 97.8664 149.456 98.843C150.423 99.8197 151.738 100.373 153.113 100.383Z" fill="#4E615F"/>
<path d="M171.494 117.483C171.494 113.516 173.318 111.151 176.817 111.151C180.02 111.151 181.572 113.418 181.572 117.483V132.267H190.258V114.428C190.258 106.864 185.983 103.217 179.995 103.217C178.297 103.195 176.622 103.612 175.133 104.428C173.643 105.244 172.39 106.431 171.494 107.874V104.079H163.104V132.292H171.494V117.483Z" fill="#4E615F"/>
<path d="M224.495 29.4324L230.273 39.9906L240.844 45.781L230.273 51.5591L224.495 62.1173L218.717 51.5591L208.146 45.781L218.717 39.9906L224.495 29.4324Z" fill="#4E615F"/>
<path d="M465.536 315.725L469.872 323.659L477.794 327.983L469.872 332.32L465.536 340.254L461.199 332.32L453.277 327.983L461.199 323.659L465.536 315.725Z" fill="#EBEBEB"/>
<path d="M477.794 276.596L479.753 280.169L483.326 282.128L479.753 284.087L477.794 287.66L475.848 284.087L472.263 282.128L475.848 280.169L477.794 276.596Z" fill="#E0E0E0"/>
<path d="M183.211 33.3994L185.17 36.9845L188.743 38.9311L185.17 40.89L183.211 44.4628L181.264 40.89L177.679 38.9311L181.264 36.9845L183.211 33.3994Z" fill="#E0E0E0"/>
<path d="M85.1682 365.608C87.4414 364.567 89.3599 362.882 90.6867 360.763C92.0134 358.644 92.6905 356.182 92.6341 353.682C92.6341 346.623 87.1517 340.956 80.5359 341.005C73.9201 341.054 68.6101 346.833 68.6717 353.892C68.6539 356.412 69.3842 358.882 70.7702 360.987C72.1562 363.092 74.1356 364.739 76.458 365.719C58.0519 368.738 59.1361 388.77 59.1361 388.77L102.737 388.4C102.737 388.4 103.488 368.134 85.1682 365.608Z" fill="#4E615F"/>
<path d="M503.444 497.654C503.137 496.074 502.278 494.654 501.021 493.648C499.764 492.643 498.19 492.116 496.581 492.164C494.972 492.211 493.432 492.829 492.236 493.907C491.04 494.985 490.266 496.452 490.052 498.048C489.829 496.455 489.046 494.993 487.845 493.923C486.643 492.853 485.101 492.244 483.492 492.206C481.884 492.167 480.314 492.702 479.063 493.713C477.812 494.724 476.96 496.147 476.661 497.728C476.338 500.063 476.93 502.433 478.312 504.344C479.68 506.227 481.286 507.925 483.092 509.395C485.556 511.575 487.786 513.608 490.225 515.777C492.689 513.584 494.697 511.526 497.112 509.333C498.91 507.848 500.504 506.133 501.855 504.233C503.204 502.322 503.772 499.969 503.444 497.654Z" fill="#EBEBEB"/>
<path d="M531.842 237.961L536.512 237.037L543.904 220.799L542.056 211.473C542.056 211.473 549.189 209.6 550.766 221.982C552.343 234.363 552.638 231.074 552.638 231.074C552.638 231.074 567.977 228.092 569.517 229.164C570.638 229.953 574.075 245.106 575.874 253.336C576.372 255.309 576.195 257.391 575.371 259.251C574.547 261.111 573.123 262.642 571.328 263.599C570.816 263.85 570.274 264.033 569.714 264.141C565.895 264.904 545.739 265.668 545.739 265.668L537.67 267.27L531.842 237.961Z" fill="#4E615F"/>
<path d="M517.958 238.047L527.161 269.438L535.169 267.849L528.959 236.544L517.958 238.047Z" fill="#4E615F"/>
<path d="M579.619 578.202C579.619 578.387 457.441 578.522 306.768 578.522C156.094 578.522 33.8799 578.387 33.8799 578.202C33.8799 578.017 156.033 577.882 306.768 577.882C457.503 577.882 579.619 578.03 579.619 578.202Z" fill="#263238"/>
<path d="M484.706 225.641C472.766 231.444 459.01 232.269 446.463 227.932C433.916 223.596 423.604 214.454 417.796 202.516C411.993 190.576 411.168 176.821 415.505 164.273C419.841 151.726 428.983 141.415 440.921 135.606C446.832 132.731 453.253 131.048 459.815 130.654C466.377 130.26 472.952 131.163 479.165 133.31C485.378 135.458 491.108 138.808 496.026 143.169C500.945 147.531 504.956 152.819 507.831 158.731C510.706 164.643 512.389 171.063 512.783 177.625C513.176 184.187 512.274 190.762 510.127 196.976C507.979 203.189 504.629 208.918 500.267 213.837C495.906 218.755 490.618 222.766 484.706 225.641Z" fill="#37474F"/>
<path d="M450.444 191.81C450.628 191.806 450.808 191.761 450.972 191.678C451.135 191.595 451.278 191.477 451.391 191.332C451.503 191.186 451.581 191.018 451.62 190.839C451.659 190.659 451.657 190.473 451.614 190.295C451.491 189.691 451.159 188.164 451.035 187.535C450.863 186.66 450.654 186.426 449.803 186.032C447.596 185.017 445.841 183.223 444.875 180.993C441.106 173.232 443.533 163.462 452.847 158.94C461.089 154.924 468.074 157.708 471.326 164.484C475.626 173.343 475.343 182.718 469.528 185.552C468.803 185.951 467.994 186.174 467.167 186.203C466.34 186.233 465.518 186.068 464.767 185.722C464.015 185.375 463.355 184.857 462.841 184.209C462.326 183.561 461.971 182.802 461.803 181.991C460.842 177.655 460.571 172.591 459.216 169.782C457.984 167.318 455.618 165.827 452.834 167.183C449.545 168.784 448.559 173.466 450.777 178.012C451.568 179.693 452.705 181.188 454.115 182.398C454.115 182.398 457.688 198.266 458.304 201.05C459.536 206.582 463.503 212.138 463.885 212.767C463.94 212.836 464.013 212.889 464.096 212.919C464.18 212.949 464.27 212.954 464.356 212.935C464.443 212.916 464.522 212.872 464.585 212.81C464.647 212.747 464.691 212.668 464.711 212.582C464.822 212.04 466.386 205.313 465.364 199.843C465.08 198.291 463.417 190.344 463.417 190.344C465.474 191.86 469.466 192.143 472.78 190.529C482.636 185.724 484.977 173.466 479.113 161.417C474.69 152.312 462.838 147.581 451.122 153.286C436.523 160.382 434.256 174.414 438.494 183.137C441.056 188.422 445.307 192.192 450.444 191.81Z" fill="white"/>
<path d="M534.688 366.84C530.451 365.225 526.574 362.789 523.279 359.674C519.984 356.558 517.336 352.824 515.486 348.684C513.635 344.544 512.62 340.08 512.496 335.547C512.373 331.014 513.144 326.501 514.767 322.267C516.381 318.03 518.815 314.153 521.929 310.858C525.043 307.563 528.777 304.914 532.915 303.062C537.054 301.211 541.517 300.193 546.049 300.068C550.581 299.943 555.094 300.713 559.328 302.333C563.565 303.949 567.442 306.384 570.737 309.499C574.032 312.615 576.68 316.349 578.531 320.489C580.381 324.629 581.397 329.093 581.52 333.626C581.644 338.159 580.872 342.672 579.25 346.907C577.635 351.143 575.201 355.02 572.087 358.315C568.973 361.611 565.24 364.26 561.101 366.111C556.963 367.962 552.499 368.98 547.967 369.105C543.435 369.23 538.923 368.461 534.688 366.84Z" fill="#37474F"/>
<path fill-rule="evenodd" clip-rule="evenodd" d="M565.045 340.451C566.584 335.922 566.319 330.974 564.304 326.636C562.289 322.298 558.68 318.903 554.226 317.158C549.773 315.413 544.818 315.451 540.392 317.265C535.966 319.08 532.41 322.53 530.462 326.899C530.352 327.145 530.253 327.404 530.154 327.651C528.949 330.789 528.633 334.2 529.243 337.507L522.578 345.551L533.37 346.167C535.45 348.627 538.133 350.504 541.157 351.614C544.181 352.724 547.442 353.03 550.619 352.501C553.796 351.972 556.782 350.626 559.283 348.596C561.783 346.565 563.714 343.92 564.885 340.919C564.947 340.766 565 340.61 565.045 340.451ZM541.982 348.742C539.125 347.658 536.653 345.755 534.873 343.272L528.577 342.915L532.458 338.233C531.588 335.079 531.748 331.73 532.914 328.673C533.099 328.205 533.308 327.737 533.53 327.293C535.285 323.817 538.275 321.12 541.914 319.732C545.552 318.344 549.578 318.363 553.203 319.788C556.828 321.212 559.791 323.937 561.512 327.431C563.233 330.925 563.587 334.935 562.507 338.677C562.396 339.071 562.273 339.453 562.125 339.835C560.632 343.685 557.673 346.786 553.896 348.456C550.119 350.126 545.834 350.229 541.982 348.742Z" fill="white"/>
<path fill-rule="evenodd" clip-rule="evenodd" d="M554.154 340.771C553.796 340.402 552.109 338.578 551.764 338.307C551.419 338.036 551.172 337.839 550.729 338.159C550.285 338.48 549.09 339.108 548.745 339.293C548.4 339.478 548.129 339.416 547.784 339.046C546.718 338.07 545.83 336.915 545.16 335.634C544.562 334.429 544.147 333.142 543.928 331.815C543.854 331.297 544.15 331.149 544.446 331.026C544.741 330.903 545.062 330.693 545.37 330.533L545.604 330.385C545.765 330.261 545.917 330.125 546.059 329.979C546.164 329.887 546.243 329.769 546.289 329.637C546.334 329.506 546.344 329.364 546.318 329.227C546.318 328.981 546.232 326.566 546.195 325.593C546.158 324.62 545.751 324.62 545.505 324.521C545.259 324.423 544.988 324.275 544.704 324.176C544.486 324.098 544.255 324.065 544.024 324.08C543.793 324.094 543.567 324.157 543.361 324.262C542.71 324.535 542.122 324.94 541.634 325.451C541.147 325.962 540.77 326.568 540.528 327.231C540.349 327.719 540.237 328.229 540.195 328.747C540.125 329.932 540.262 331.12 540.602 332.258C540.713 332.615 541.76 338.061 545.431 341.412C549.102 344.763 549.337 344.196 550.15 344.418C550.795 344.544 551.46 344.527 552.098 344.37C552.737 344.213 553.333 343.918 553.846 343.506C554.37 342.986 554.726 342.321 554.868 341.597C554.733 341.363 554.499 341.141 554.154 340.771Z" fill="white"/>
<path d="M85.7844 207.272C78.8018 207.272 72.1052 204.498 67.1678 199.561C62.2304 194.623 59.4565 187.927 59.4565 180.944C59.4565 173.961 62.2304 167.265 67.1678 162.327C72.1052 157.39 78.8018 154.616 85.7844 154.616C89.2418 154.616 92.6654 155.297 95.8596 156.62C99.0539 157.943 101.956 159.883 104.401 162.327C106.846 164.772 108.785 167.675 110.108 170.869C111.431 174.063 112.112 177.487 112.112 180.944C112.112 184.401 111.431 187.825 110.108 191.019C108.785 194.214 106.846 197.116 104.401 199.561C101.956 202.005 99.0539 203.945 95.8596 205.268C92.6654 206.591 89.2418 207.272 85.7844 207.272Z" fill="#37474F"/>
<path d="M71.7642 189.728C74.2927 191.341 77.2154 192.229 80.2138 192.296C83.2123 192.362 86.1715 191.604 88.7689 190.105C91.3663 188.605 93.5024 186.422 94.9443 183.792C96.3862 181.162 97.0787 178.187 96.9462 175.191C98.0592 174.382 99.0223 173.386 99.7922 172.246C98.7375 172.709 97.6211 173.016 96.4781 173.158C97.6829 172.454 98.5929 171.338 99.0406 170.016C97.9003 170.694 96.649 171.166 95.3446 171.408C94.4806 170.463 93.3265 169.833 92.0644 169.616C90.8023 169.399 89.504 169.609 88.3743 170.212C87.2446 170.815 86.3477 171.777 85.8252 172.946C85.3027 174.115 85.1843 175.425 85.4886 176.669C83.1996 176.551 80.9607 175.954 78.917 174.916C76.8733 173.878 75.0702 172.423 73.6245 170.644C72.8919 171.914 72.6689 173.414 73.0006 174.841C73.3323 176.268 74.1938 177.516 75.4109 178.332C74.4953 178.309 73.5991 178.063 72.799 177.618C72.7838 178.959 73.2368 180.264 74.0801 181.307C74.9234 182.351 76.1042 183.068 77.419 183.334C76.5714 183.565 75.6822 183.599 74.8195 183.433C75.1884 184.574 75.9041 185.572 76.8669 186.288C77.8297 187.003 78.9917 187.4 80.191 187.424C77.7911 189.264 74.7663 190.091 71.7642 189.728Z" fill="white"/>
<path d="M133.056 502.176C121.364 504.952 109.048 502.973 98.8137 496.674C88.5797 490.374 81.2656 480.269 78.4787 468.579C77.097 462.784 76.8711 456.773 77.814 450.89C78.7568 445.007 80.8499 439.368 83.9735 434.295C87.0971 429.221 91.1901 424.813 96.0183 421.323C100.847 417.832 106.315 415.328 112.112 413.952C117.904 412.572 123.912 412.346 129.791 413.287C135.67 414.228 141.307 416.319 146.378 419.438C151.45 422.558 155.857 426.646 159.349 431.47C162.84 436.293 165.347 441.756 166.727 447.549C168.108 453.347 168.332 459.36 167.387 465.245C166.442 471.129 164.346 476.77 161.218 481.844C158.091 486.917 153.994 491.325 149.162 494.814C144.329 498.302 138.856 500.804 133.056 502.176Z" fill="#455A64"/>
<path d="M117.866 438.247C124.321 436.707 125.097 436.547 127.722 436.054C129.257 435.709 130.841 435.63 132.403 435.82C133.547 435.958 134.645 436.35 135.619 436.966C136.601 437.562 137.442 438.365 138.083 439.319C138.955 440.63 139.596 442.08 139.98 443.606C140.707 446.132 140.916 446.896 142.444 453.352C143.972 459.807 144.132 460.583 144.625 463.208C144.976 464.742 145.055 466.327 144.859 467.889C144.733 469.036 144.34 470.137 143.713 471.105C143.125 472.089 142.325 472.931 141.372 473.569C140.057 474.44 138.603 475.081 137.072 475.466C134.608 476.193 133.795 476.402 127.34 477.93C120.884 479.458 120.108 479.63 117.484 480.123C115.945 480.474 114.356 480.553 112.79 480.357C111.645 480.222 110.546 479.831 109.574 479.211C108.602 478.596 107.784 477.766 107.184 476.784C106.304 475.476 105.658 474.026 105.274 472.497C104.56 469.971 104.35 469.22 102.81 462.764C101.27 456.308 101.11 455.532 100.618 452.908C100.279 451.367 100.2 449.781 100.383 448.214C100.535 447.075 100.925 445.98 101.528 445.001C102.131 444.023 102.933 443.182 103.882 442.535C105.192 441.657 106.642 441.011 108.17 440.625C110.634 439.91 111.459 439.701 117.915 438.161M116.88 433.8C110.313 435.364 109.488 435.586 106.938 436.325C104.942 436.821 103.046 437.654 101.332 438.789C99.8777 439.795 98.6482 441.092 97.7214 442.597C96.7946 444.103 96.1908 445.785 95.9482 447.536C95.6894 449.59 95.7811 451.673 96.2193 453.696C96.7244 456.296 96.8846 457.134 98.4492 463.7C100.014 470.267 100.236 471.092 100.913 473.63C101.406 475.627 102.24 477.523 103.377 479.236C104.38 480.744 105.705 482.011 107.258 482.944C108.752 483.885 110.434 484.486 112.186 484.706C114.24 484.966 116.323 484.874 118.346 484.435C120.946 483.942 121.783 483.77 128.35 482.205C134.916 480.64 135.742 480.419 138.28 479.741C140.272 479.237 142.167 478.404 143.885 477.277C145.355 476.286 146.591 474.987 147.507 473.47C148.443 471.972 149.048 470.292 149.282 468.542C149.537 466.487 149.441 464.405 148.998 462.382C148.505 459.77 148.333 458.945 146.768 452.378C145.204 445.812 144.982 444.986 144.304 442.436C143.798 440.444 142.966 438.55 141.84 436.83C140.849 435.365 139.55 434.133 138.033 433.221C136.542 432.273 134.859 431.667 133.105 431.447C131.052 431.186 128.968 431.278 126.945 431.718C124.334 432.223 123.508 432.383 116.942 433.948" fill="white"/>
<path d="M119.627 445.652C117.172 446.237 114.945 447.537 113.228 449.387C111.512 451.238 110.382 453.556 109.983 456.048C109.584 458.541 109.932 461.095 110.985 463.39C112.037 465.684 113.747 467.615 115.896 468.938C118.046 470.261 120.54 470.916 123.062 470.822C125.585 470.728 128.023 469.888 130.068 468.408C132.113 466.928 133.673 464.876 134.552 462.509C135.43 460.143 135.587 457.569 135.003 455.113C134.216 451.821 132.155 448.976 129.272 447.202C126.39 445.428 122.921 444.87 119.627 445.652ZM124.555 466.14C122.96 466.516 121.289 466.412 119.753 465.839C118.217 465.266 116.886 464.251 115.926 462.922C114.967 461.593 114.423 460.009 114.364 458.371C114.304 456.733 114.732 455.114 115.592 453.719C116.452 452.324 117.707 451.215 119.197 450.532C120.687 449.849 122.346 449.624 123.965 449.884C125.583 450.144 127.088 450.878 128.29 451.993C129.491 453.108 130.335 454.554 130.715 456.148C130.968 457.209 131.009 458.309 130.836 459.385C130.663 460.462 130.28 461.493 129.708 462.422C129.136 463.35 128.386 464.156 127.502 464.794C126.618 465.432 125.616 465.889 124.555 466.14Z" fill="white"/>
<path d="M135.323 441.401C135.458 441.975 135.42 442.575 135.214 443.127C135.007 443.679 134.642 444.157 134.164 444.502C133.686 444.846 133.117 445.041 132.528 445.062C131.94 445.084 131.358 444.93 130.856 444.621C130.355 444.312 129.956 443.861 129.711 443.325C129.465 442.79 129.384 442.194 129.477 441.612C129.57 441.03 129.833 440.489 130.233 440.057C130.634 439.625 131.153 439.321 131.726 439.184C132.108 439.09 132.504 439.074 132.893 439.135C133.281 439.196 133.653 439.334 133.988 439.54C134.323 439.747 134.613 440.018 134.842 440.337C135.072 440.656 135.235 441.018 135.323 441.401Z" fill="white"/>
<path d="M476.55 462.271C473.773 462.273 471.022 461.727 468.456 460.665C465.889 459.604 463.557 458.047 461.593 456.083C459.628 454.12 458.07 451.789 457.007 449.223C455.944 446.657 455.396 443.907 455.396 441.13C455.396 438.353 455.944 435.602 457.007 433.037C458.07 430.471 459.628 428.14 461.593 426.177C463.557 424.213 465.889 422.656 468.456 421.595C471.022 420.533 473.773 419.987 476.55 419.989C479.329 419.984 482.082 420.527 484.652 421.587C487.221 422.648 489.556 424.204 491.523 426.168C493.49 428.131 495.05 430.464 496.115 433.031C497.18 435.598 497.728 438.351 497.728 441.13C497.728 443.909 497.18 446.661 496.115 449.229C495.05 451.796 493.49 454.128 491.523 456.092C489.556 458.056 487.221 459.612 484.652 460.672C482.082 461.733 479.329 462.276 476.55 462.271Z" fill="#455A64"/>
<path d="M473.322 453.906H478.472V441.056H482.057L482.451 436.744H478.472V434.28C478.472 433.27 478.681 432.863 479.704 432.863H482.501V428.379H478.928C475.096 428.379 473.371 430.067 473.371 433.307V436.757H470.624V441.056H473.297L473.322 453.906Z" fill="white"/>
<path d="M404.429 579.102L234.548 579.04C224.746 579.04 215.345 575.146 208.414 568.215C201.482 561.283 197.588 551.882 197.588 542.08L197.662 116.202C197.662 111.342 198.621 106.53 200.483 102.041C202.345 97.5522 205.074 93.4744 208.514 90.0414C211.954 86.6084 216.037 83.8875 220.53 82.0344C225.022 80.1814 229.836 79.2325 234.696 79.2423L404.564 79.3408C414.367 79.3408 423.768 83.2348 430.699 90.1662C437.63 97.0975 441.524 106.498 441.524 116.301L441.45 542.08C441.459 546.944 440.507 551.762 438.649 556.257C436.791 560.753 434.065 564.837 430.625 568.276C427.186 571.716 423.101 574.442 418.606 576.3C414.111 578.158 409.293 579.11 404.429 579.102Z" fill="#263238"/>
<path d="M404.38 94.2726H371.436C369.274 94.3243 367.22 95.2289 365.722 96.7891C364.224 98.3493 363.404 100.438 363.44 102.601V108.576C363.465 109.65 363.277 110.718 362.889 111.719C362.5 112.72 361.918 113.635 361.175 114.411C360.432 115.187 359.544 115.809 358.561 116.241C357.577 116.673 356.518 116.907 355.445 116.929H291.245C290.171 116.905 289.112 116.67 288.128 116.236C287.145 115.803 286.257 115.18 285.514 114.403C284.772 113.626 284.189 112.711 283.801 111.709C283.412 110.707 283.225 109.638 283.249 108.564V102.552C283.292 100.384 282.476 98.2869 280.977 96.7195C279.479 95.152 277.421 94.2413 275.254 94.1864H263.648H234.832C231.429 94.1783 228.058 94.8415 224.912 96.138C221.766 97.4346 218.907 99.339 216.498 101.742C214.089 104.146 212.178 107 210.874 110.143C209.569 113.286 208.898 116.656 208.898 120.058L208.812 535.747C208.812 542.609 211.538 549.19 216.39 554.042C221.242 558.894 227.822 561.619 234.684 561.619L404.232 561.718C407.629 561.718 410.994 561.049 414.133 559.749C417.272 558.448 420.124 556.543 422.526 554.14C424.929 551.738 426.834 548.886 428.134 545.747C429.435 542.608 430.104 539.244 430.104 535.846L430.19 120.145C430.19 113.294 427.473 106.722 422.634 101.872C417.796 97.0219 411.231 94.2889 404.38 94.2726Z" fill="white"/>
<path d="M406.856 128.042C406.856 128.153 402.569 128.276 397.296 128.313C392.023 128.35 387.723 128.313 387.723 128.202C387.723 128.091 391.998 127.956 397.283 127.919C402.569 127.882 406.856 127.931 406.856 128.042Z" fill="#263238"/>
<path d="M406.893 132.933C406.893 133.044 402.618 133.167 397.332 133.216C392.047 133.265 387.76 133.216 387.76 133.093C387.76 132.97 392.047 132.859 397.332 132.81C402.618 132.76 406.893 132.822 406.893 132.933Z" fill="#263238"/>
<path d="M406.942 137.824C406.942 137.935 402.655 138.07 397.37 138.107C392.084 138.144 387.809 138.107 387.797 137.984C387.785 137.861 392.084 137.75 397.37 137.701C402.655 137.651 406.942 137.713 406.942 137.824Z" fill="#263238"/>
<path d="M226.688 142.604H227.193H228.585L233.735 142.481L233.587 142.616C233.587 141.483 233.587 140.239 233.526 138.92C233.526 138.23 233.526 137.578 233.526 136.777C233.607 136.363 233.818 135.986 234.128 135.7C234.438 135.414 234.831 135.235 235.251 135.187C236.088 135.187 236.815 135.187 237.715 135.187C238.186 135.264 238.614 135.505 238.924 135.868C239.233 136.232 239.403 136.694 239.402 137.171C239.402 138.92 239.402 140.731 239.464 142.616L239.23 142.382H245.723L245.476 142.629C245.476 140.017 245.476 137.306 245.402 134.534C245.402 133.845 245.402 133.167 245.402 132.477C245.374 132.17 245.278 131.874 245.12 131.61C244.962 131.345 244.747 131.12 244.491 130.949L241.657 128.14L238.91 125.442L237.591 124.136C237.136 123.693 236.778 123.237 236.248 123.126C235.995 123.059 235.729 123.05 235.471 123.099C235.213 123.148 234.969 123.254 234.758 123.41C234.364 123.742 233.945 124.21 233.526 124.642L231.185 126.995C229.719 128.51 228.191 129.902 227.082 131.22C226.753 131.997 226.642 132.849 226.762 133.684C226.762 134.485 226.762 135.249 226.762 135.964C226.762 137.368 226.762 138.6 226.762 139.66C226.762 140.719 226.762 141.372 226.762 142.013C226.78 142.296 226.78 142.58 226.762 142.863C226.748 142.604 226.748 142.345 226.762 142.087C226.762 141.458 226.762 140.682 226.762 139.758C226.762 138.834 226.762 137.454 226.676 136.062C226.676 135.323 226.676 134.547 226.676 133.721C226.676 133.302 226.676 132.884 226.676 132.489C226.673 132.014 226.796 131.546 227.033 131.134C228.265 129.668 229.67 128.362 231.148 126.798L233.464 124.42C233.883 124.013 234.216 123.607 234.696 123.188C234.961 122.986 235.268 122.847 235.595 122.78C235.921 122.714 236.258 122.723 236.581 122.806C237.195 123.031 237.735 123.419 238.146 123.927L239.476 125.233L242.224 127.931L245.07 130.715C245.336 130.955 245.58 131.219 245.796 131.504C246.01 131.831 246.129 132.21 246.141 132.6C246.141 133.29 246.141 133.98 246.141 134.67C246.141 137.442 246.141 140.152 246.203 142.764V143.011H245.957H239.464H239.008V142.777C239.008 140.892 239.008 139.081 239.008 137.331C239.016 136.955 238.889 136.589 238.649 136.299C238.409 136.01 238.073 135.816 237.702 135.754C236.951 135.754 236.064 135.754 235.337 135.754C235.005 135.787 234.692 135.924 234.442 136.145C234.192 136.367 234.018 136.661 233.945 136.986C233.945 137.639 233.945 138.391 233.945 139.056C233.945 140.399 233.945 141.655 233.945 142.752V142.9H233.797H228.561H227.193C227.015 142.819 226.846 142.72 226.688 142.604Z" fill="#263238"/>
<path d="M338.8 467.433C338.21 467.526 337.612 467.567 337.014 467.556L332.16 467.655C328.07 467.716 322.402 467.753 316.144 467.753C309.885 467.753 304.218 467.753 300.128 467.655L295.274 467.556C294.676 467.566 294.078 467.525 293.487 467.433C294.077 467.333 294.676 467.292 295.274 467.31L300.128 467.199C304.218 467.199 309.885 467.113 316.144 467.113C322.402 467.113 328.057 467.113 332.16 467.199L337.014 467.31C337.612 467.291 338.21 467.332 338.8 467.433Z" fill="#455A64"/>
<path d="M409.973 478.57C409.973 478.755 383.892 478.891 351.724 478.891C319.557 478.891 293.475 478.755 293.475 478.57C293.475 478.386 319.557 478.25 351.724 478.25C383.892 478.25 409.973 478.398 409.973 478.57Z" fill="#455A64"/>
<path d="M373.567 489.104C373.567 489.289 355.642 489.424 333.527 489.424C311.413 489.424 293.475 489.289 293.475 489.104C293.475 488.919 311.401 488.784 333.527 488.784C355.654 488.784 373.567 488.882 373.567 489.104Z" fill="#455A64"/>
<path d="M412.277 509.469L408.655 505.835L405.205 509.272V498.874H412.264L412.277 509.469ZM408.655 505.379L408.766 505.49L411.956 508.693V499.206H405.538V508.508L408.655 505.379Z" fill="#263238"/>
<path d="M315.898 508.114L314.666 507.547C313.93 507.893 313.092 507.952 312.315 507.713C311.538 507.474 310.878 506.953 310.465 506.253C310.051 505.553 309.914 504.724 310.079 503.928C310.245 503.132 310.701 502.427 311.359 501.95C312.017 501.473 312.83 501.258 313.638 501.348C314.446 501.438 315.191 501.827 315.728 502.438C316.264 503.048 316.554 503.837 316.54 504.65C316.526 505.463 316.209 506.241 315.651 506.833L315.898 508.114ZM312.928 501.19C312.086 501.249 311.298 501.627 310.725 502.247C310.152 502.867 309.837 503.682 309.845 504.527C309.853 505.371 310.183 506.181 310.767 506.79C311.352 507.399 312.147 507.763 312.99 507.806C313.553 507.767 314.098 507.594 314.579 507.301L315.528 507.72L315.306 506.796C315.741 506.321 316.027 505.73 316.13 505.096C316.234 504.461 316.149 503.81 315.887 503.222C315.626 502.634 315.198 502.136 314.657 501.788C314.116 501.44 313.485 501.258 312.842 501.264L312.928 501.19Z" fill="#263238"/>
<path d="M324.102 507.584L322.649 504.011L319.901 501.547H326.554L324.102 507.584ZM320.517 501.757L322.858 503.9L324.09 506.943L326.185 501.707L320.517 501.757Z" fill="#263238"/>
<path d="M326.415 501.467L322.78 503.832L322.915 504.039L326.55 501.673L326.415 501.467Z" fill="#263238"/>
<path d="M305.413 502.237C305.315 501.762 305.052 501.337 304.671 501.036C304.289 500.736 303.814 500.58 303.329 500.597C302.844 500.613 302.381 500.8 302.02 501.125C301.66 501.45 301.426 501.892 301.36 502.373C301.293 501.886 301.055 501.439 300.688 501.113C300.321 500.787 299.85 500.603 299.359 500.594C298.868 500.585 298.39 500.752 298.011 501.065C297.633 501.377 297.378 501.815 297.294 502.299C297.199 503.008 297.38 503.727 297.799 504.307C298.216 504.877 298.704 505.391 299.253 505.835C300.005 506.488 300.682 507.067 301.421 507.757C302.161 507.091 302.777 506.463 303.516 505.798C304.058 505.344 304.538 504.823 304.945 504.245C305.357 503.663 305.525 502.942 305.413 502.237Z" fill="#37474F"/>
<path d="M419.693 518.672C419.693 518.672 419.693 518.265 419.693 517.514C419.693 516.762 419.693 515.617 419.693 514.138C419.693 511.169 419.693 506.746 419.632 501.128C419.632 489.806 419.57 473.334 419.521 452.674L419.73 452.883L222.721 452.994L223.042 452.674C223.042 475.614 223.042 497.851 223.042 518.672L222.734 518.364L363.711 518.5L404.86 518.586H415.948H418.806H419.792H418.843H416.022H405.045L363.958 518.672L222.771 518.82H222.45V518.672C222.45 497.851 222.45 475.614 222.45 452.674V452.354H222.795L419.804 452.464H420.014V452.674C420.014 473.384 419.927 489.905 419.903 501.264C419.903 506.906 419.903 511.255 419.903 514.225C419.903 515.678 419.903 516.787 419.903 517.551C419.903 518.315 419.693 518.672 419.693 518.672Z" fill="#263238"/>
<path d="M230.88 463.708L230.628 507.345L285.205 507.659L285.456 464.023L230.88 463.708Z" fill="#EBEBEB"/>
<path d="M285.442 463.996H284.395H281.414H270.215L230.791 463.91L231.086 463.626C231.025 476.624 230.951 491.506 230.877 507.251C230.939 507.338 230.273 506.648 230.557 506.931H234.314H238.01H245.402L259.57 507.017L285.122 507.202L284.863 507.473C284.986 494.365 285.097 483.498 285.184 475.86C285.184 472.065 285.27 469.084 285.294 467.002C285.294 466.004 285.294 465.228 285.294 464.661C285.294 464.094 285.294 463.836 285.294 463.836C285.294 463.836 285.294 464.082 285.294 464.599C285.294 465.117 285.294 465.918 285.294 466.903C285.294 468.961 285.294 471.93 285.294 475.7C285.294 483.375 285.294 494.303 285.294 507.473V507.732H285.023L259.472 507.633L245.304 507.559H237.912H234.216H230.458L230.125 507.227C230.236 491.469 230.323 476.587 230.409 463.602V463.306H230.705L270.252 463.663L281.34 463.811H284.26H284.999L285.442 463.996Z" fill="#263238"/>
<path d="M232.748 466.467L232.529 504.609L283.274 504.901L283.494 466.759L232.748 466.467Z" fill="#E0E0E0"/>
<path d="M232.503 504.578L250.367 480.973L261.258 495.868L268.749 487.983L283.25 504.874L232.503 504.578Z" fill="#F5F5F5"/>
<path d="M266.026 478.164C266.024 478.956 265.786 479.73 265.344 480.388C264.901 481.045 264.273 481.556 263.54 481.857C262.807 482.157 262.001 482.233 261.224 482.075C260.448 481.917 259.735 481.533 259.178 480.97C258.62 480.407 258.242 479.691 258.091 478.913C257.94 478.135 258.024 477.33 258.331 476.599C258.638 475.869 259.155 475.246 259.817 474.81C260.478 474.373 261.254 474.143 262.047 474.148C262.572 474.149 263.092 474.254 263.576 474.457C264.061 474.66 264.5 474.957 264.87 475.33C265.24 475.703 265.532 476.145 265.73 476.632C265.929 477.118 266.029 477.639 266.026 478.164Z" fill="#F5F5F5"/>
<path d="M322.895 180.944C322.699 180.977 322.499 180.977 322.303 180.944L320.64 181.005L314.48 181.116C309.294 181.116 302.16 181.202 294.202 181.202C286.243 181.202 279.11 181.202 273.923 181.116L267.763 181.005L266.087 180.944C265.896 180.978 265.7 180.978 265.508 180.944C265.698 180.897 265.892 180.876 266.087 180.882H267.763L273.923 180.784C279.11 180.722 286.243 180.685 294.202 180.685C302.16 180.685 309.294 180.685 314.48 180.784L320.64 180.882H322.303C322.502 180.877 322.701 180.898 322.895 180.944Z" fill="#263238"/>
<path d="M403.517 422.145L398.146 416.749L393.008 421.861V406.412H403.505L403.517 422.145ZM398.146 416.083L398.306 416.243L403.049 420.999V406.905H393.489V420.728L398.146 416.083Z" fill="#263238"/>
<path d="M266.938 420.519L264.474 419.398C263.039 420.065 261.407 420.173 259.896 419.701C258.386 419.229 257.106 418.21 256.307 416.845C255.507 415.479 255.246 413.864 255.574 412.316C255.902 410.768 256.795 409.398 258.079 408.474C259.364 407.549 260.947 407.137 262.519 407.318C264.091 407.498 265.539 408.259 266.58 409.45C267.621 410.642 268.181 412.179 268.149 413.761C268.117 415.343 267.496 416.857 266.408 418.005L266.938 420.519ZM261.061 406.905C260.207 406.912 259.362 407.088 258.576 407.421C257.79 407.755 257.077 408.24 256.478 408.85C255.879 409.459 255.406 410.18 255.086 410.972C254.765 411.764 254.604 412.611 254.612 413.465C254.619 414.32 254.794 415.164 255.128 415.951C255.462 416.737 255.947 417.45 256.556 418.049C257.165 418.648 257.886 419.121 258.678 419.441C259.47 419.761 260.318 419.922 261.172 419.915C262.28 419.848 263.355 419.51 264.301 418.929L264.412 418.868L266.26 419.693L265.841 417.87L265.928 417.784C266.783 416.85 267.347 415.686 267.55 414.435C267.752 413.185 267.585 411.902 267.067 410.746C266.55 409.59 265.706 408.61 264.639 407.927C263.571 407.245 262.328 406.89 261.061 406.905Z" fill="#263238"/>
<path d="M283.101 419.447L280.218 412.412L274.822 407.484L287.931 407.385L283.101 419.447ZM276.042 407.952L280.65 412.178L283.114 418.165L287.228 407.866L276.042 407.952Z" fill="#263238"/>
<path d="M287.67 407.364L280.524 412.013L280.786 412.416L287.932 407.767L287.67 407.364Z" fill="#263238"/>
<path d="M246.314 409.024C246.128 408.081 245.613 407.234 244.86 406.636C244.108 406.038 243.167 405.726 242.206 405.757C241.245 405.788 240.327 406.16 239.615 406.806C238.902 407.451 238.443 408.329 238.318 409.283C238.177 408.333 237.703 407.465 236.982 406.832C236.26 406.199 235.338 405.843 234.378 405.827C233.418 405.81 232.484 406.135 231.741 406.743C230.999 407.351 230.496 408.203 230.323 409.147C230.138 410.541 230.495 411.952 231.321 413.09C232.147 414.212 233.112 415.226 234.191 416.108C235.657 417.34 237 418.572 238.466 419.89C239.895 418.584 241.127 417.352 242.569 416.034C243.634 415.138 244.581 414.111 245.39 412.979C246.192 411.827 246.522 410.412 246.314 409.024Z" fill="#37474F"/>
<path d="M245.119 189.839C250.032 189.839 254.014 185.856 254.014 180.944C254.014 176.031 250.032 172.049 245.119 172.049C240.207 172.049 236.224 176.031 236.224 180.944C236.224 185.856 240.207 189.839 245.119 189.839Z" fill="#EBEBEB"/>
<path d="M400.166 371.14C400.166 371.325 362.886 371.473 316.908 371.473C270.929 371.473 233.637 371.325 233.637 371.14C233.637 370.955 270.917 370.82 316.908 370.82C362.898 370.82 400.166 370.968 400.166 371.14Z" fill="#455A64"/>
<path d="M400.166 357.28C400.166 357.453 362.886 357.6 316.908 357.6C270.929 357.6 233.637 357.453 233.637 357.28C233.637 357.108 270.917 356.96 316.908 356.96C362.898 356.96 400.166 357.108 400.166 357.28Z" fill="#455A64"/>
<path d="M324.275 385.197C324.275 385.37 303.984 385.518 278.962 385.518C253.94 385.518 233.637 385.37 233.637 385.197C233.637 385.025 253.928 384.877 278.962 384.877C303.996 384.877 324.275 385.025 324.275 385.197Z" fill="#455A64"/>
<path d="M313.101 536.277C313.088 536.977 312.869 537.658 312.471 538.234C312.073 538.81 311.513 539.255 310.862 539.513C310.212 539.772 309.499 539.832 308.814 539.686C308.129 539.54 307.503 539.195 307.014 538.694C306.525 538.193 306.195 537.559 306.066 536.87C305.937 536.182 306.014 535.471 306.288 534.827C306.562 534.183 307.021 533.634 307.606 533.25C308.191 532.865 308.877 532.663 309.577 532.668C310.046 532.672 310.509 532.77 310.94 532.954C311.371 533.138 311.761 533.405 312.088 533.741C312.416 534.076 312.674 534.473 312.847 534.908C313.021 535.343 313.107 535.809 313.101 536.277Z" fill="#263238"/>
<path d="M324.016 536.327C324.002 537.023 323.782 537.7 323.384 538.272C322.986 538.844 322.428 539.285 321.78 539.541C321.132 539.797 320.423 539.856 319.742 539.71C319.061 539.565 318.438 539.221 317.951 538.722C317.464 538.224 317.136 537.593 317.007 536.908C316.877 536.224 316.953 535.516 317.225 534.875C317.497 534.233 317.952 533.686 318.533 533.302C319.114 532.918 319.796 532.715 320.493 532.717C320.962 532.72 321.426 532.816 321.857 533C322.289 533.183 322.68 533.451 323.008 533.786C323.335 534.122 323.593 534.52 323.766 534.956C323.939 535.392 324.024 535.858 324.016 536.327Z" fill="#263238"/>
<path d="M335.018 536.376C335.004 537.072 334.784 537.749 334.386 538.321C333.988 538.893 333.43 539.335 332.782 539.591C332.134 539.846 331.425 539.905 330.744 539.76C330.063 539.614 329.439 539.27 328.953 538.772C328.466 538.273 328.138 537.642 328.009 536.957C327.879 536.273 327.955 535.565 328.227 534.924C328.498 534.282 328.953 533.735 329.535 533.351C330.116 532.967 330.798 532.764 331.495 532.766C331.963 532.771 332.426 532.868 332.857 533.052C333.288 533.237 333.679 533.504 334.006 533.839C334.333 534.175 334.591 534.571 334.765 535.007C334.939 535.442 335.025 535.907 335.018 536.376Z" fill="#263238"/>
<path d="M420.876 198.537H223.842V319.026H420.876V198.537Z" fill="#E0E0E0"/>
<path d="M242.039 319.063L298.489 243.492L333.503 290.752L357.219 265.471L403.751 319.014L242.039 319.063Z" fill="#F5F5F5"/>
<path d="M348.336 234.216C348.338 236.736 347.593 239.2 346.195 241.296C344.796 243.393 342.808 245.027 340.48 245.994C338.153 246.96 335.591 247.214 333.119 246.724C330.647 246.233 328.376 245.021 326.593 243.24C324.811 241.459 323.596 239.189 323.104 236.718C322.611 234.246 322.863 231.684 323.826 229.356C324.79 227.027 326.423 225.037 328.518 223.637C330.613 222.236 333.077 221.489 335.597 221.489C338.973 221.489 342.212 222.829 344.6 225.216C346.989 227.602 348.332 230.839 348.336 234.216Z" fill="#F5F5F5"/>
<path d="M420.346 431.015C420.346 428.44 420.223 319.593 420.05 158.447L420.346 158.743H223.337L223.657 158.423C223.657 260.359 223.657 354.693 223.657 430.991L223.386 430.732L420.42 430.991L223.386 431.262H223.128V430.991C223.128 354.693 223.128 260.359 223.066 158.423V158.103H223.411H420.42H420.716V158.386C420.654 239.045 420.605 307.211 420.568 355.235C420.568 379.21 420.506 398.145 420.494 411.106C420.494 417.562 420.494 422.527 420.494 425.89C420.494 427.553 420.494 428.822 420.494 429.685C420.494 430.547 420.346 431.015 420.346 431.015Z" fill="#263238"/>
<path d="M327.712 464.833L332.073 450.185C332.837 447.006 333.847 443.261 335.202 438.986C336.434 435.142 339.564 431.101 342.422 428.194C346.87 423.672 348.989 423.648 351.97 421.245C352.241 421.073 352.549 420.814 352.808 420.679C353.371 420.372 353.866 419.952 354.262 419.447C356.836 416.662 354.36 412.338 349.124 412.757C345.194 413.065 338.763 414.186 328.316 424.966C328.18 425.138 328.045 425.274 327.921 425.434C322.439 432.567 317.289 412.215 316.353 404.638C316.171 403.464 315.728 402.345 315.055 401.366C314.383 400.386 313.499 399.57 312.468 398.979C311.438 398.387 310.287 398.035 309.102 397.948C307.917 397.862 306.728 398.043 305.622 398.478L280.169 410.379C277.741 409.675 275.153 409.761 272.777 410.625C270.996 411.251 269.512 412.517 268.614 414.178C267.717 415.839 267.47 417.774 267.923 419.607L278.259 460.768L247.94 561.669H313.298L327.712 464.833Z" fill="#FFBE9D"/>
<path d="M377.977 372.163L357.773 411.759L347.67 408.95L296.912 450.259C294.84 451.954 292.189 452.774 289.522 452.544C286.855 452.314 284.384 451.052 282.633 449.027L263.291 426.568C263.291 426.568 302.283 409.776 309.491 395.879C316.698 381.982 308.369 378.815 308.369 378.815L326.714 357.97L377.977 372.163Z" fill="#37474F"/>
<path d="M351.773 291.294C351.773 291.294 322.205 284.752 280.575 244.737C238.946 204.721 219.407 151.536 214.368 151.832C209.329 152.127 187.03 141.766 144.723 233.784C102.416 325.802 119.085 347.128 127.475 347.005C135.865 346.882 193.042 330.903 228.745 334.956C264.449 339.009 310.341 357.625 310.341 357.625L351.773 291.294Z" fill="#37474F"/>
<path d="M414.593 341.449L404.502 360.631L399.981 369.255C396.997 374.932 391.948 379.247 385.875 381.31C379.803 383.373 373.17 383.027 367.345 380.343L303.959 358.253L340.919 273.984L404.244 307.729C410.069 310.846 414.427 316.14 416.365 322.457C418.304 328.773 417.667 335.6 414.593 341.449Z" fill="#37474F"/>
<g opacity="0.4">
<path d="M414.593 341.449L404.502 360.631L399.981 369.255C396.997 374.932 391.948 379.247 385.875 381.31C379.803 383.373 373.17 383.027 367.345 380.343L303.959 358.253L340.919 273.984L404.244 307.729C410.069 310.846 414.427 316.14 416.365 322.457C418.304 328.773 417.667 335.6 414.593 341.449Z" fill="black"/>
</g>
<path d="M148.098 235.46C125.59 285.307 116.214 329.732 127.154 334.673C138.094 339.613 165.235 303.22 187.744 253.361C210.253 203.502 219.628 159.101 208.688 154.148C197.748 149.195 170.607 185.613 148.098 235.46Z" fill="#37474F"/>
<g opacity="0.5">
<path d="M148.098 235.46C125.59 285.307 116.214 329.732 127.154 334.673C138.094 339.613 165.235 303.22 187.744 253.361C210.253 203.502 219.628 159.101 208.688 154.148C197.748 149.195 170.607 185.613 148.098 235.46Z" fill="black"/>
</g>
<path d="M420.038 369.169L402.852 363.773L413.484 343.568L426.37 351.576L420.038 369.169Z" fill="#37474F"/>
<g opacity="0.6">
<path d="M413.484 343.568L402.852 363.773L406.387 364.881L415.024 344.517L413.484 343.568Z" fill="black"/>
</g>
<path d="M401.632 348.225C401.386 348.779 392.811 345.453 382.487 340.833C372.163 336.213 364.007 331.925 364.241 331.371C364.475 330.817 373.062 334.155 383.398 338.825C393.735 343.494 401.891 347.67 401.632 348.225Z" fill="#37474F"/>
<path d="M406.929 336.188C406.658 336.73 398.897 333.465 389.595 328.882C380.294 324.299 372.976 320.148 373.247 319.593C373.518 319.039 381.267 322.316 390.568 326.899C399.87 331.482 407.2 335.634 406.929 336.188Z" fill="#37474F"/>
<path d="M394.979 360.853C394.893 361.148 392.847 360.68 389.595 359.621C387.969 359.116 386.034 358.475 383.903 357.748C381.772 357.021 379.591 355.863 377.238 354.791C367.838 350.43 360.655 346.167 360.889 345.65C361.123 345.132 368.848 348.471 378.137 352.795C380.478 353.855 382.646 355.013 384.692 355.863C386.737 356.713 388.572 357.465 390.112 358.155C393.192 359.571 395.065 360.557 394.979 360.853Z" fill="#37474F"/>
<path d="M193.99 224.384C193.99 224.384 168.291 208.442 154.234 243.172C140.177 277.902 167.207 283.606 167.207 283.606C178.879 265.226 187.896 245.288 193.99 224.384Z" fill="#37474F"/>
<g opacity="0.5">
<path d="M221.329 182.989C221.489 182.989 221.119 185.379 220.331 189.629C219.542 193.88 218.359 200.028 216.709 207.592L213.136 219.752C212.487 221.928 211.818 224.183 211.128 226.516L210.08 230.051C209.699 231.283 209.193 232.405 208.75 233.6L202.947 248.581C202.442 249.887 201.925 251.193 201.419 252.511C200.914 253.829 200.187 255.086 199.608 256.392L195.789 264.276L191.958 272.149C191.305 273.381 190.726 274.761 190.023 275.968C189.321 277.175 188.582 278.432 187.88 279.602L179.687 293.438C179.022 294.522 178.455 295.643 177.716 296.678L175.584 299.696L171.494 305.462L164.102 315.774C159.174 321.725 155.059 326.418 152.226 329.683C150.834 331.451 149.297 333.1 147.63 334.611C148.789 332.688 150.107 330.867 151.573 329.166C154.308 325.679 158.164 320.801 162.895 314.801L169.979 304.415L173.946 298.637C174.636 297.651 175.326 296.641 176.028 295.618C176.73 294.596 177.26 293.475 177.938 292.378L186.032 278.555L188.139 274.933C188.865 273.701 189.371 272.469 190.048 271.139L193.843 263.315C195.075 260.667 196.393 258.067 197.65 255.492C198.241 254.26 198.955 252.954 199.448 251.648L200.988 247.755L206.877 232.971C207.333 231.739 207.851 230.643 208.245 229.46C208.639 228.277 208.972 227.119 209.329 225.961L211.423 219.271L215.206 207.259L219.481 189.519C219.909 187.293 220.528 185.109 221.329 182.989Z" fill="black"/>
</g>
<g opacity="0.4">
<path d="M269.426 423.808C271.779 428.071 274.169 432.432 277.631 435.795C281.093 439.159 285.824 441.549 290.752 441.056C295.68 440.563 300.177 436.547 300.226 431.693C302.542 433.43 306.102 432.493 308.024 430.313C309.946 428.132 310.575 425.114 310.796 422.219C313.95 424.079 318.336 422.613 320.443 419.619C321.41 418.06 322.022 416.306 322.235 414.483C322.448 412.661 322.257 410.814 321.675 409.073C320.474 405.609 318.768 402.342 316.611 399.377C319.075 399.574 321.613 399.747 323.782 398.65C325.95 397.554 327.478 394.671 326.159 392.601C325.293 391.446 324.037 390.644 322.624 390.347C318.817 389.115 316.156 388.203 312.188 388.659C311.277 388.659 313.778 399.106 288.928 413.373C274.181 421.812 269.426 423.808 269.426 423.808Z" fill="black"/>
</g>
<path d="M325.383 438.838C325.383 438.949 323.72 438.629 321.034 438.703C317.544 438.786 314.111 439.61 310.964 441.12C307.816 442.63 305.025 444.792 302.776 447.462C301.039 449.507 300.312 450.998 300.152 450.937C300.254 450.552 300.416 450.186 300.632 449.852C301.16 448.914 301.757 448.016 302.419 447.167C304.633 444.356 307.463 442.09 310.69 440.544C313.917 438.998 317.456 438.212 321.034 438.247C322.108 438.254 323.18 438.353 324.237 438.543C324.634 438.573 325.022 438.673 325.383 438.838Z" fill="#EB996E"/>
<path d="M271.04 417.143C275.044 420.987 277.779 425.237 281.98 429.105C283.89 430.867 286.908 434.194 289.372 434.637C291.836 435.081 293.561 434.748 294.571 432.358C295.397 430.424 293.918 427.775 292.908 426.198C290.235 421.997 287.672 418.72 285.676 415.455C284.728 413.927 285.947 413.607 286.391 414.321C288.313 416.317 291.196 418.018 292.92 420.223C295.286 423.192 295.705 427.147 301.889 425.89C302.716 425.756 303.501 425.431 304.181 424.941C306.509 423.155 306.645 420.013 305.635 417.549C304.762 415.647 303.598 413.893 302.185 412.35C304.821 415.319 307.692 418.51 311.881 418.781C313.064 418.925 314.263 418.697 315.311 418.13C316.359 417.563 317.206 416.684 317.733 415.615C318.965 412.806 317.203 410.083 315.417 407.89C312.255 403.991 308.736 400.395 304.908 397.147C303.478 395.946 301.675 395.28 299.807 395.262C297.639 395.262 294.879 395.657 293.647 397.529C292.943 398.433 292.431 399.47 292.141 400.577C291.851 401.685 291.789 402.84 291.959 403.973C291.959 403.973 286.539 401.225 282.177 404.096C279.493 405.982 277.563 408.758 276.732 411.931L271.04 417.143Z" fill="#FFBE9D"/>
<path d="M299.93 394.08C299.063 393.073 298.526 391.825 298.389 390.504C298.252 389.182 298.524 387.85 299.167 386.688C300.091 384.877 301.249 383.115 302.431 382.721C307.593 380.984 330.164 384.889 329.954 389.891C329.745 394.893 328.094 397.283 315.86 395.521C313.704 395.213 310.328 394.794 310.328 394.794L307.372 399.23L299.93 394.08Z" fill="#FFBE9D"/>
<path d="M303.971 415.048C301.009 410.164 296.69 406.247 291.54 403.776C292.38 403.911 293.189 404.195 293.93 404.613C297.639 406.406 300.752 409.229 302.899 412.745C303.396 413.439 303.76 414.221 303.971 415.048Z" fill="#EB996E"/>
<path d="M307.766 399.661C307.655 399.759 306.164 398.552 304.131 397.308C303.281 396.769 302.401 396.28 301.495 395.842C300.793 395.521 300.324 395.435 300.337 395.336C300.349 395.238 300.866 395.189 301.643 395.423C302.642 395.744 303.595 396.195 304.476 396.766C306.558 398.034 307.926 399.525 307.766 399.661Z" fill="#EB996E"/>
<path d="M311.56 395.004C310.092 395.175 308.604 395.006 307.211 394.511C306.193 394.199 305.246 393.689 304.427 393.008C303.811 392.478 303.552 392.047 303.614 391.985C304.799 392.752 306.068 393.38 307.396 393.858C308.808 394.147 310.199 394.53 311.56 395.004Z" fill="#EB996E"/>
<path d="M289.631 421.246C288.853 420.429 288.163 419.533 287.573 418.572C286.167 416.296 284.388 414.272 282.313 412.585C280.161 411.011 277.495 410.307 274.847 410.613C273.76 410.808 272.704 411.143 271.705 411.611C271.705 411.611 271.927 411.353 272.432 411.045C273.151 410.608 273.945 410.307 274.773 410.158C276.152 409.935 277.562 409.989 278.92 410.317C280.278 410.645 281.557 411.24 282.682 412.067C284.826 413.79 286.616 415.911 287.955 418.313C288.595 419.242 289.156 420.223 289.631 421.246Z" fill="#EB996E"/>
<path d="M306.891 471.141C303.852 471.788 300.774 472.228 297.676 472.46C294.595 472.906 291.487 473.137 288.374 473.149C291.417 472.504 294.5 472.063 297.602 471.831C300.679 471.392 303.783 471.162 306.891 471.141Z" fill="#EB996E"/>
<path d="M500.968 61.4028L502.36 63.9531L504.898 65.3452L502.36 66.7374L500.968 69.2753L499.576 66.7374L497.038 65.3452L499.576 63.9531L500.968 61.4028Z" fill="#37474F"/>
<path d="M530.056 124.444L531.448 126.995L533.986 128.387L531.448 129.779L530.056 132.317L528.663 129.779L526.113 128.387L528.663 126.995L530.056 124.444Z" fill="#37474F"/>
<path d="M63.9408 292.637L65.333 295.187L67.8832 296.579L65.333 297.959L63.9408 300.509L62.5487 297.959L60.0107 296.579L62.5487 295.187L63.9408 292.637Z" fill="#37474F"/>
<path d="M462.813 77.074L466.029 82.9506L471.905 86.1661L466.029 89.3693L462.813 95.246L459.61 89.3693L453.733 86.1661L459.61 82.9506L462.813 77.074Z" fill="#37474F"/>
<path d="M90.0099 252.683L93.2131 258.535L99.0774 261.738L93.2131 264.954L90.0099 270.806L86.8067 264.954L80.9424 261.738L86.8067 258.535L90.0099 252.683Z" fill="#37474F"/>
<path d="M537.965 392.466L541.168 398.33L547.02 401.533L541.168 404.737L537.965 410.601L534.762 404.737L528.897 401.533L534.762 398.33L537.965 392.466Z" fill="#37474F"/>
</svg>
