<svg width="711" height="635" viewBox="0 0 711 635" fill="none" xmlns="http://www.w3.org/2000/svg">
<path d="M619.64 40.6182L662.082 40.6182V22.6829L619.64 22.6829V40.6182Z" fill="#EBEBEB"/>
<path d="M643.312 18.0029L685.754 18.0029V0.067625L643.312 0.067625V18.0029Z" fill="#EBEBEB"/>
<path d="M595.949 18.0029L638.391 18.0029V0.067625L595.949 0.067625V18.0029Z" fill="#EBEBEB"/>
<path d="M48.9134 18.0029L91.3555 18.0029V0.067625L48.9134 0.067625V18.0029Z" fill="#EBEBEB"/>
<path d="M48.9134 465.456H91.3555V447.52H48.9134V465.456Z" fill="#EBEBEB"/>
<path d="M25.2415 442.856H67.6836V424.921H25.2415V442.856Z" fill="#EBEBEB"/>
<path d="M643.312 465.439H685.754V447.504H643.312V465.439Z" fill="#EBEBEB"/>
<path d="M615.52 192.211H573.078V210.146H615.52V192.211Z" fill="#EBEBEB"/>
<path d="M591.844 214.826H549.402V232.761H591.844V214.826Z" fill="#EBEBEB"/>
<path d="M353.944 110.709H330.383V86.1699L353.944 110.709Z" fill="#EBEBEB"/>
<path d="M253.382 93.8149H192.684V95.3376H253.382V93.8149Z" fill="white"/>
<path d="M1.27918 61.6628C-0.000532866 56.4272 0.301259 50.9296 2.14638 45.8655C3.9915 40.8014 7.29706 36.3983 11.6449 33.213C15.9928 30.0278 21.1877 28.2036 26.5725 27.9712C31.9572 27.7387 37.29 29.1085 41.8962 31.9072C46.5023 34.7059 50.175 38.8078 52.4497 43.694C54.7244 48.5803 55.4988 54.0314 54.675 59.3579C53.8512 64.6843 51.4663 69.6468 47.8218 73.6177C44.1773 77.5885 39.4371 80.3893 34.2007 81.6658C27.1826 83.3765 19.7724 82.2305 13.599 78.4796C7.4256 74.7287 2.9943 68.6799 1.27918 61.6628Z" fill="#EBEBEB"/>
<path d="M656.086 411.602C656.086 406.213 657.684 400.944 660.678 396.464C663.672 391.983 667.927 388.49 672.906 386.428C677.885 384.366 683.364 383.826 688.649 384.878C693.935 385.929 698.79 388.524 702.6 392.335C706.411 396.145 709.006 401 710.057 406.286C711.109 411.571 710.569 417.05 708.507 422.029C706.445 427.008 702.952 431.263 698.471 434.257C693.991 437.251 688.723 438.849 683.334 438.849C676.107 438.849 669.176 435.978 664.067 430.869C658.957 425.759 656.086 418.828 656.086 411.602Z" fill="#EBEBEB"/>
<path d="M696.011 418.157C690.065 425.242 679.39 427.774 679.39 427.774C679.39 427.774 671.04 420.674 669.004 411.634C667.305 404.101 671.184 397.353 676.826 397.032C684.84 396.584 683.654 410.175 683.654 410.175C683.654 410.175 688.783 397.529 695.771 401.648C700.644 404.453 700.98 412.243 696.011 418.157Z" fill="white"/>
<path d="M354.792 635C536.674 635 684.119 625.664 684.119 614.147C684.119 602.631 536.674 593.295 354.792 593.295C172.91 593.295 25.4648 602.631 25.4648 614.147C25.4648 625.664 172.91 635 354.792 635Z" fill="#EBEBEB"/>
<path d="M18.8633 555.405L103.026 555.004L187.189 554.86L355.499 554.604L523.809 554.86L607.972 555.004L692.135 555.405L607.972 555.79L523.809 555.934L355.499 556.206L187.189 555.934L103.026 555.79L18.8633 555.405Z" fill="#263238"/>
<path d="M390.456 452.441C376.335 471.563 361.605 493.745 358.031 517.723C358.031 518.092 358.576 518.204 358.656 517.852C360.286 511.301 362.374 504.874 364.907 498.618C374.187 496.07 383.291 493.97 388.164 484.754C393.133 475.281 392.507 462.94 391.562 452.618C391.498 452.105 390.76 452.073 390.456 452.441Z" fill="#37474F"/>
<path d="M365.115 498.474C371.527 484.241 379.541 469.944 389.959 458.243C389.959 458.163 390.135 458.243 390.071 458.356C383.606 466.696 377.929 475.619 373.113 485.01C377.794 480.202 382.907 476.018 387.346 470.986C387.426 470.889 387.571 470.986 387.491 471.13C383.083 476.403 378.291 482.125 372.552 486.036C370.95 488.873 369.475 491.71 367.904 494.547L369.074 493.954C369.155 493.954 369.203 493.954 369.074 494.05C368.642 494.274 368.209 494.515 367.76 494.707C367.007 496.053 366.27 497.4 365.516 498.73C365.324 499.035 364.907 498.778 365.115 498.474Z" fill="#263238"/>
<path d="M369.76 493.505C373.555 491.382 377.177 488.965 380.595 486.277C380.691 486.197 380.819 486.277 380.723 486.405C377.417 489.269 373.793 491.743 369.92 493.778C369.744 493.858 369.584 493.601 369.76 493.505Z" fill="#263238"/>
<path d="M356.412 514.165C356.412 514.233 356.439 514.298 356.487 514.346C356.535 514.395 356.6 514.422 356.668 514.422C356.736 514.422 356.801 514.395 356.85 514.346C356.898 514.298 356.925 514.233 356.925 514.165C356.925 506.279 356.925 498.346 357.053 490.412C359.072 486.325 363.464 484 366.429 480.795C368.604 478.411 370.492 475.78 372.055 472.957C375.695 466.206 377.92 458.783 378.594 451.143C379.428 442.696 376.222 414.824 372.664 415.801C370.821 416.298 364.842 430.098 363.256 434.666C360.685 442.195 358.802 449.942 357.63 457.811C354.745 476.387 354.985 495.461 356.412 514.165Z" fill="#37474F"/>
<path d="M356.347 480.106C356.78 470.12 359.04 460.023 361.156 450.342C363.512 439.924 366.092 430.034 371.526 420.69C371.55 420.661 371.584 420.642 371.621 420.635C371.659 420.629 371.697 420.636 371.73 420.655C371.763 420.674 371.787 420.704 371.8 420.74C371.812 420.776 371.812 420.815 371.798 420.85C368.208 428.098 365.429 435.72 363.512 443.578C363.88 443.017 364.313 442.488 364.682 441.975C364.826 441.767 365.179 441.975 365.034 442.168C364.582 443.011 364.045 443.806 363.432 444.54C361.572 452.009 360.226 459.638 359.12 467.251L359.361 466.963L359.489 467.043C359.345 467.299 359.184 467.556 359.024 467.796C358.463 471.659 357.934 475.522 357.421 479.336C364.462 473.669 369.972 466.329 373.449 457.987C370.244 466.851 365.083 474.72 357.213 480.106C357.069 481.132 356.924 482.157 356.764 483.183C356.764 483.391 356.395 483.343 356.395 483.183C356.395 482.264 356.427 481.351 356.492 480.442C356.451 480.446 356.41 480.437 356.375 480.416C356.34 480.395 356.313 480.364 356.297 480.327C356.281 480.289 356.277 480.248 356.286 480.208C356.295 480.168 356.317 480.133 356.347 480.106Z" fill="#263238"/>
<path d="M359.583 465.569C364.952 457.98 369.644 449.935 373.608 441.527C373.608 441.43 373.816 441.527 373.768 441.527C370.626 450.386 365.914 458.606 359.856 465.793C359.826 465.829 359.783 465.852 359.736 465.856C359.69 465.861 359.643 465.847 359.607 465.817C359.571 465.787 359.548 465.744 359.544 465.698C359.539 465.651 359.553 465.605 359.583 465.569Z" fill="#263238"/>
<path d="M366.574 439.539C368.753 435.692 371.045 431.942 373.097 428.015C373.097 427.902 373.305 428.015 373.257 428.111C371.559 432.216 369.409 436.119 366.846 439.747C366.814 439.763 366.778 439.769 366.743 439.765C366.708 439.761 366.674 439.748 366.646 439.727C366.618 439.705 366.596 439.676 366.583 439.643C366.57 439.61 366.567 439.574 366.574 439.539Z" fill="#263238"/>
<path d="M351.059 491.325C350.952 496.561 350.335 501.773 349.216 506.888L349.456 508.587C351.088 502.929 352.041 497.097 352.293 491.213C352.341 491.133 352.367 491.042 352.367 490.949C352.367 490.855 352.341 490.764 352.293 490.684C352.517 482.807 351.926 474.927 350.53 467.171C348.078 452.746 342.741 438.737 332.611 427.854C332.528 427.782 332.429 427.73 332.323 427.703C332.216 427.675 332.105 427.673 331.997 427.697C331.89 427.72 331.79 427.768 331.704 427.837C331.618 427.907 331.55 427.995 331.505 428.095C327.418 438.465 328.844 450.855 332.322 461.225C334.21 466.83 336.91 472.127 340.336 476.948C343.814 481.869 348.238 486.004 351.059 491.325Z" fill="#37474F"/>
<path d="M333.81 432.743C343.427 448.307 350.079 466.771 350.896 485.155C350.896 485.475 350.351 485.572 350.319 485.155C350.079 483.552 349.838 481.949 349.566 480.234C345.395 476.549 341.735 472.323 338.683 467.668C338.683 467.588 338.763 467.492 338.827 467.556C342.111 471.603 345.638 475.446 349.389 479.064C348.7 475.009 347.899 471.05 346.921 467.059C346.665 466.771 346.424 466.466 346.168 466.162C345.911 465.857 346.28 465.697 346.456 465.889L346.681 466.146C345.331 460.739 343.656 455.418 341.664 450.214C339.228 447.313 336.503 444.796 334.724 441.286H334.852C336.278 443.29 337.657 445.309 339.276 447.169C339.933 447.922 340.638 448.611 341.311 449.332C339.102 443.69 336.477 438.221 333.458 432.968C333.297 432.727 333.666 432.519 333.81 432.743Z" fill="#263238"/>
<path d="M335.751 451.945C338.844 456.128 342.386 460.103 345.271 464.414C345.271 464.543 345.175 464.671 345.063 464.575C341.389 460.813 338.191 456.615 335.543 452.073C335.462 451.944 335.655 451.832 335.751 451.945Z" fill="#263238"/>
<path d="M345.703 465.376L345.831 465.52C345.927 465.52 345.831 465.744 345.687 465.648L345.559 465.52C345.463 465.424 345.607 465.296 345.703 465.376Z" fill="#263238"/>
<path d="M318.793 462.667C319.919 471.359 323.418 479.572 328.907 486.405C331.165 489.09 333.96 491.274 337.113 492.816C340.671 494.579 344.39 496.598 348.06 498.041C349.817 502.492 351.117 507.11 351.939 511.825C352.067 511.424 352.179 511.007 352.307 510.607C349.935 490.331 336.824 473.005 320.043 461.866C319.912 461.781 319.759 461.737 319.602 461.737C319.446 461.737 319.293 461.782 319.161 461.866C319.03 461.95 318.925 462.071 318.86 462.213C318.795 462.355 318.771 462.512 318.793 462.667Z" fill="#37474F"/>
<path d="M324.58 468.662C324.468 468.549 324.58 468.341 324.756 468.437C333.975 475.294 341.327 484.354 346.138 494.787C346.266 495.076 345.881 495.316 345.721 495.044C344.936 493.665 344.118 492.335 343.333 491.037C339.502 490.315 335.864 487.623 333.027 485.058C333.027 485.058 333.027 484.882 333.139 484.946C334.593 486.276 336.209 487.417 337.947 488.344C339.55 489.145 341.153 489.642 342.756 490.283C341.345 488.023 339.855 485.86 338.316 483.776C334.186 482.217 330.308 480.056 326.808 477.365C326.696 477.285 326.808 477.108 326.904 477.172C330.368 479.271 333.942 481.181 337.611 482.894C335.275 479.811 332.754 476.873 330.062 474.095C328.747 473.406 327.433 472.717 326.167 471.979C326.071 471.979 326.167 471.739 326.247 471.787C327.3 472.142 328.302 472.632 329.228 473.246C327.818 471.643 326.263 470.136 324.58 468.662Z" fill="#263238"/>
<path d="M324.949 475.666C325.176 475.801 325.391 475.957 325.59 476.131C325.59 476.131 325.59 476.259 325.51 476.227C325.275 476.118 325.05 475.989 324.837 475.842C324.819 475.839 324.802 475.831 324.788 475.82C324.774 475.808 324.762 475.793 324.755 475.777C324.748 475.76 324.745 475.741 324.746 475.723C324.748 475.705 324.754 475.687 324.764 475.672C324.773 475.657 324.787 475.644 324.803 475.635C324.819 475.626 324.836 475.621 324.855 475.62C324.873 475.62 324.891 475.623 324.907 475.631C324.924 475.639 324.938 475.651 324.949 475.666Z" fill="#263238"/>
<path d="M378.496 555.726H332.496L336.215 513.86L337.032 504.612H373.96L374.778 513.86L378.496 555.726Z" fill="#455A64"/>
<path d="M374.778 513.86H336.215L337.032 504.612H373.961L374.778 513.86Z" fill="#263238"/>
<path d="M376.172 498.153H334.836V507.289H376.172V498.153Z" fill="#455A64"/>
<path d="M655.815 81.8101H421.694C418.556 81.8394 415.454 82.4866 412.566 83.7148C409.677 84.9429 407.059 86.7279 404.861 88.9679C402.663 91.2079 400.927 93.8589 399.754 96.7697C398.58 99.6804 397.991 102.794 398.021 105.932V587.877C397.965 594.214 400.427 600.314 404.866 604.837C409.305 609.36 415.357 611.936 421.694 611.999H655.815C658.955 611.972 662.059 611.327 664.95 610.1C667.841 608.873 670.462 607.088 672.663 604.848C674.865 602.608 676.603 599.957 677.78 597.045C678.956 594.133 679.547 591.018 679.52 587.877V105.932C679.547 102.792 678.956 99.6766 677.78 96.7648C676.603 93.8529 674.865 91.2013 672.663 88.9613C670.462 86.7213 667.841 84.9369 664.95 83.7099C662.059 82.4829 658.955 81.8373 655.815 81.8101ZM664.726 572.955C664.726 585.633 655.222 595.891 643.505 595.891H434.035C422.287 595.891 412.798 585.633 412.798 572.955V124.172C412.798 98.3189 422.287 97.0687 434.035 97.0687H475.981C478.417 97.0687 480.42 99.8415 480.42 103.272V104.746C480.42 112.76 484.828 112.76 490.23 112.76H587.263C592.712 112.76 597.072 112.76 597.072 104.746V103.336C597.072 99.9056 599.044 97.1328 601.528 97.1328H643.489C655.206 97.1328 664.71 100.563 664.71 124.236L664.726 572.955Z" fill="#263238"/>
<path d="M552.003 102.807H525.54C525.115 102.807 524.708 102.638 524.407 102.337C524.106 102.037 523.938 101.629 523.938 101.204C523.938 100.779 524.106 100.371 524.407 100.071C524.708 99.7699 525.115 99.6011 525.54 99.6011H552.003C552.428 99.6011 552.835 99.7699 553.136 100.071C553.436 100.371 553.605 100.779 553.605 101.204C553.605 101.629 553.436 102.037 553.136 102.337C552.835 102.638 552.428 102.807 552.003 102.807Z" fill="white"/>
<path d="M664.725 124.172V572.956C664.725 585.634 655.22 595.892 643.504 595.892H434.034C422.301 595.892 412.797 585.634 412.797 572.956V124.172C412.797 98.319 422.301 97.0688 434.034 97.0688H475.995C478.431 97.0688 480.419 99.8417 480.419 103.272V104.746C480.419 112.76 484.827 112.76 490.244 112.76H587.261C592.727 112.76 597.087 112.76 597.087 104.746V103.336C597.087 99.9058 599.042 97.133 601.526 97.133H643.488C655.22 97.1009 664.725 100.531 664.725 124.172Z" fill="white"/>
<path d="M664.708 124.172V157.655H412.812V124.172C412.812 98.319 422.301 97.0688 434.05 97.0688H476.011C478.447 97.0688 480.435 99.8417 480.435 103.272V104.746C480.435 112.76 484.842 112.76 490.244 112.76H587.277C592.727 112.76 597.102 112.76 597.102 104.746V103.336C597.102 99.9058 599.074 97.133 601.542 97.133H643.503C655.22 97.1009 664.708 100.531 664.708 124.172Z" fill="#37474F"/>
<path d="M438.316 141.338L430.863 134.366L438.316 127.394L439.47 128.628L433.332 134.366L439.47 140.104L438.316 141.338Z" fill="white"/>
<path d="M646.68 131.481C646.683 131.774 646.599 132.061 646.438 132.306C646.277 132.551 646.047 132.742 645.777 132.856C645.507 132.969 645.209 133 644.921 132.944C644.634 132.887 644.37 132.746 644.162 132.539C643.955 132.332 643.814 132.068 643.758 131.78C643.702 131.493 643.732 131.195 643.846 130.925C643.959 130.655 644.151 130.425 644.396 130.264C644.641 130.103 644.928 130.019 645.221 130.022C645.607 130.026 645.975 130.181 646.248 130.454C646.52 130.726 646.675 131.095 646.68 131.481Z" fill="white"/>
<path d="M646.68 136.69C646.683 136.983 646.599 137.27 646.438 137.515C646.277 137.76 646.047 137.952 645.777 138.065C645.507 138.179 645.209 138.209 644.921 138.153C644.634 138.097 644.37 137.956 644.162 137.749C643.955 137.542 643.814 137.277 643.758 136.99C643.702 136.702 643.732 136.404 643.846 136.134C643.959 135.864 644.151 135.634 644.396 135.473C644.641 135.313 644.928 135.228 645.221 135.232C645.608 135.232 645.979 135.385 646.252 135.659C646.526 135.932 646.68 136.303 646.68 136.69Z" fill="white"/>
<path d="M646.68 141.899C646.683 142.192 646.599 142.479 646.438 142.724C646.277 142.969 646.047 143.161 645.777 143.274C645.507 143.388 645.209 143.418 644.921 143.362C644.634 143.306 644.37 143.165 644.162 142.958C643.955 142.751 643.814 142.486 643.758 142.199C643.702 141.911 643.732 141.613 643.846 141.343C643.959 141.073 644.151 140.843 644.396 140.682C644.641 140.522 644.928 140.437 645.221 140.441C645.608 140.441 645.979 140.594 646.252 140.868C646.526 141.141 646.68 141.512 646.68 141.899Z" fill="white"/>
<path d="M468.767 107.183C468.639 107.311 468.495 107.439 468.366 107.583L468.126 107.808C467.614 107.294 467.006 106.887 466.336 106.609C465.666 106.332 464.948 106.189 464.223 106.189C463.498 106.189 462.78 106.332 462.111 106.609C461.441 106.887 460.833 107.294 460.32 107.808L460.096 107.583L459.695 107.183L460.208 106.718C460.574 106.422 460.972 106.17 461.394 105.964C461.901 105.714 462.441 105.536 462.997 105.436C463.254 105.436 463.526 105.436 463.782 105.339H464.488H465.017C465.509 105.401 465.994 105.519 466.459 105.692C466.796 105.815 467.123 105.965 467.437 106.141C467.766 106.332 468.077 106.552 468.366 106.798L468.799 107.183H468.767Z" fill="white"/>
<path d="M461.602 109.09L460.961 108.449C461.663 107.734 462.581 107.272 463.574 107.134C464.281 107.032 465.004 107.096 465.682 107.321C466.361 107.547 466.978 107.927 467.484 108.433L466.843 109.074C466.501 108.73 466.094 108.457 465.645 108.273C465.197 108.089 464.716 107.996 464.231 108C463.742 107.998 463.258 108.094 462.807 108.281C462.356 108.468 461.946 108.743 461.602 109.09Z" fill="white"/>
<path d="M466.201 109.747L465.56 110.372C465.201 110.025 464.721 109.83 464.222 109.83C463.722 109.83 463.242 110.025 462.883 110.372L462.242 109.747C462.5 109.484 462.808 109.275 463.148 109.132C463.488 108.99 463.853 108.916 464.222 108.916C464.59 108.916 464.955 108.99 465.295 109.132C465.635 109.275 465.943 109.484 466.201 109.747Z" fill="white"/>
<path d="M464.806 110.933C464.806 111.086 464.746 111.233 464.637 111.341C464.529 111.449 464.382 111.51 464.229 111.51C464.076 111.51 463.93 111.449 463.821 111.341C463.713 111.233 463.652 111.086 463.652 110.933C463.652 110.78 463.713 110.633 463.821 110.525C463.93 110.417 464.076 110.356 464.229 110.356C464.381 110.36 464.526 110.422 464.633 110.529C464.74 110.637 464.802 110.781 464.806 110.933Z" fill="white"/>
<path d="M429.227 108.4C429.227 108.083 429.321 107.773 429.497 107.51C429.673 107.246 429.923 107.041 430.216 106.919C430.509 106.798 430.831 106.766 431.142 106.828C431.453 106.89 431.739 107.043 431.963 107.267C432.187 107.491 432.339 107.777 432.401 108.087C432.463 108.398 432.431 108.721 432.31 109.014C432.189 109.306 431.983 109.557 431.72 109.733C431.456 109.909 431.146 110.003 430.829 110.003C430.404 110.003 429.997 109.834 429.696 109.534C429.395 109.233 429.227 108.825 429.227 108.4Z" fill="white"/>
<path d="M434.5 108.4C434.5 108.083 434.594 107.773 434.77 107.51C434.946 107.246 435.197 107.041 435.489 106.919C435.782 106.798 436.105 106.766 436.415 106.828C436.726 106.89 437.012 107.043 437.236 107.267C437.46 107.491 437.613 107.777 437.675 108.087C437.737 108.398 437.705 108.721 437.584 109.014C437.462 109.306 437.257 109.557 436.993 109.733C436.73 109.909 436.42 110.003 436.103 110.003C435.678 110.003 435.27 109.834 434.969 109.534C434.669 109.233 434.5 108.825 434.5 108.4Z" fill="white"/>
<path d="M439.758 108.4C439.758 108.083 439.852 107.773 440.028 107.51C440.204 107.246 440.454 107.041 440.747 106.919C441.04 106.798 441.362 106.766 441.673 106.828C441.984 106.89 442.27 107.043 442.494 107.267C442.718 107.491 442.871 107.777 442.933 108.087C442.994 108.398 442.963 108.721 442.841 109.014C442.72 109.306 442.515 109.557 442.251 109.733C441.988 109.909 441.678 110.003 441.361 110.003C440.936 110.003 440.528 109.834 440.227 109.534C439.927 109.233 439.758 108.825 439.758 108.4Z" fill="white"/>
<path d="M445.016 108.4C445.016 107.958 445.191 107.534 445.504 107.222C445.816 106.909 446.24 106.733 446.683 106.733C447.125 106.733 447.549 106.909 447.861 107.222C448.174 107.534 448.349 107.958 448.349 108.4C448.349 108.842 448.174 109.266 447.861 109.579C447.549 109.892 447.125 110.067 446.683 110.067C446.24 110.067 445.816 109.892 445.504 109.579C445.191 109.266 445.016 108.842 445.016 108.4Z" fill="white"/>
<path d="M450.27 108.4C450.27 107.958 450.445 107.534 450.758 107.222C451.07 106.909 451.494 106.733 451.936 106.733C452.379 106.733 452.803 106.909 453.115 107.222C453.428 107.534 453.603 107.958 453.603 108.4C453.603 108.842 453.428 109.266 453.115 109.579C452.803 109.892 452.379 110.067 451.936 110.067C451.494 110.067 451.07 109.892 450.758 109.579C450.445 109.266 450.27 108.842 450.27 108.4Z" fill="white"/>
<path d="M645.876 112.103H632.172V105.692H645.876V112.103ZM632.973 111.302H645.074V106.493H632.973V111.302Z" fill="white"/>
<path d="M642.127 106.814H633.359V110.965H642.127V106.814Z" fill="white"/>
<path d="M647.03 107.214H645.828V110.58H647.03V107.214Z" fill="white"/>
<path d="M451.088 568.5H449.165V577.283H445.59V572.811H439.259V577.283H435.685V568.5H433.762L442.433 559.54L451.088 568.5Z" fill="#EBEBEB"/>
<path d="M643.795 559.54H622.91V562.521H643.795V559.54Z" fill="#EBEBEB"/>
<path d="M643.795 566.929H622.91V569.91H643.795V566.929Z" fill="#EBEBEB"/>
<path d="M643.795 574.302H622.91V577.283H643.795V574.302Z" fill="#EBEBEB"/>
<path d="M544.709 567.233L538.778 573.565L532.832 567.233L533.89 566.24L538.778 571.465L543.667 566.24L544.709 567.233Z" fill="#EBEBEB"/>
<path d="M538.778 580.2C536.624 580.203 534.518 579.567 532.726 578.373C530.933 577.178 529.536 575.478 528.71 573.489C527.885 571.5 527.668 569.31 528.087 567.198C528.507 565.085 529.543 563.145 531.066 561.622C532.589 560.099 534.53 559.062 536.643 558.642C538.755 558.223 540.945 558.44 542.934 559.266C544.923 560.091 546.623 561.489 547.817 563.281C549.012 565.073 549.648 567.179 549.645 569.333C549.641 572.214 548.494 574.975 546.457 577.013C544.42 579.05 541.659 580.196 538.778 580.2ZM538.778 560.053C536.942 560.05 535.146 560.591 533.618 561.609C532.09 562.627 530.898 564.075 530.193 565.771C529.488 567.466 529.302 569.333 529.658 571.134C530.014 572.935 530.897 574.59 532.194 575.89C533.491 577.189 535.145 578.074 536.946 578.434C538.746 578.793 540.613 578.61 542.31 577.908C544.006 577.206 545.457 576.017 546.477 574.491C547.497 572.964 548.042 571.169 548.042 569.333C548.017 566.89 547.031 564.555 545.297 562.833C543.563 561.111 541.221 560.141 538.778 560.133V560.053Z" fill="#EBEBEB"/>
<path d="M637.19 345.038H457.035V288.459H637.19V345.038Z" fill="#DBDBDB"/>
<path d="M440.352 345.037H457.037V327.663L440.352 345.037Z" fill="#DBDBDB"/>
<path d="M626.882 298.252H467.355V299.326H626.882V298.252Z" fill="white"/>
<path d="M593.768 304.054H467.355V305.128H593.768V304.054Z" fill="white"/>
<path d="M613.755 315.658H467.355V316.732H613.755V315.658Z" fill="white"/>
<path d="M626.882 321.46H467.355V322.534H626.882V321.46Z" fill="white"/>
<path d="M626.882 327.263H467.355V328.337H626.882V327.263Z" fill="white"/>
<path d="M582.693 333.081H467.355V334.154H582.693V333.081Z" fill="white"/>
<path d="M637.19 478.631H457.035V422.068H637.19V478.631Z" fill="#DBDBDB"/>
<path d="M440.352 478.631H457.037V461.256L440.352 478.631Z" fill="#DBDBDB"/>
<path d="M626.882 431.845H467.355V432.919H626.882V431.845Z" fill="white"/>
<path d="M593.768 437.647H467.355V438.721H593.768V437.647Z" fill="white"/>
<path d="M613.755 449.251H467.355V450.325H613.755V449.251Z" fill="white"/>
<path d="M626.882 455.069H467.355V456.143H626.882V455.069Z" fill="white"/>
<path d="M626.882 460.872H467.355V461.946H626.882V460.872Z" fill="white"/>
<path d="M582.693 466.674H467.355V467.748H582.693V466.674Z" fill="white"/>
<path d="M440.349 232.329L620.504 232.329V184.597L440.349 184.597V232.329Z" fill="#37474F"/>
<path d="M637.189 232.329H620.504V214.955L637.189 232.329Z" fill="#37474F"/>
<path d="M583.321 193.413H450.465V194.486H583.321V193.413Z" fill="white"/>
<path d="M609.991 199.215H450.465V200.289H609.991V199.215Z" fill="white"/>
<path d="M609.991 205.017H450.465V206.091H609.991V205.017Z" fill="white"/>
<path d="M597.361 210.819H450.465V211.893H597.361V210.819Z" fill="white"/>
<path d="M609.991 216.638H450.465V217.712H609.991V216.638Z" fill="white"/>
<path d="M568.335 222.439H450.465V223.513H568.335V222.439Z" fill="white"/>
<path d="M440.349 275.444H620.504V240.038L440.349 240.038V275.444Z" fill="#37474F"/>
<path d="M637.189 275.444H620.504V258.07L637.189 275.444Z" fill="#37474F"/>
<path d="M609.988 248.87H450.75V249.944H609.988V248.87Z" fill="white"/>
<path d="M581.811 254.672H450.75V255.746H581.811V254.672Z" fill="white"/>
<path d="M594.986 260.474H450.75V261.548H594.986V260.474Z" fill="white"/>
<path d="M562 266.276H450.75V267.35H562V266.276Z" fill="white"/>
<path d="M440.349 408.781H620.504V358.886H440.349V408.781Z" fill="#37474F"/>
<path d="M637.189 408.781H620.504V391.406L637.189 408.781Z" fill="#37474F"/>
<path d="M603.096 384.931H452.449V386.005H603.096V384.931Z" fill="white"/>
<path d="M590.835 390.733H452.449V391.807H590.835V390.733Z" fill="white"/>
<path d="M594.409 373.327H452.449V374.401H594.409V373.327Z" fill="white"/>
<path d="M609.988 367.525H452.449V368.599H609.988V367.525Z" fill="white"/>
<path d="M595.739 396.551H452.449V397.625H595.739V396.551Z" fill="white"/>
<path d="M440.349 534.905H620.504V493.36H440.349V534.905Z" fill="#37474F"/>
<path d="M637.189 534.905H620.504V517.531L637.189 534.905Z" fill="#37474F"/>
<path d="M609.991 501.792H450.465V502.865H609.991V501.792Z" fill="white"/>
<path d="M609.991 507.593H450.465V508.667H609.991V507.593Z" fill="white"/>
<path d="M597.361 513.412H450.465V514.485H597.361V513.412Z" fill="white"/>
<path d="M609.991 519.213H450.465V520.287H609.991V519.213Z" fill="white"/>
<path d="M568.335 525.016H450.465V526.09H568.335V525.016Z" fill="white"/>
<path d="M584.266 255.12C585.708 281.198 586.75 308.013 584.185 334.026C582.182 354.285 573.671 370.971 552.61 375.955C533.072 380.555 505.248 380.203 488.739 367.252C481.029 361.21 478.353 352.699 478.866 343.21C479.571 329.939 490.085 257.268 493.291 234.588C495.182 220.788 497.025 206.796 501.305 193.461C510.393 165.46 524.241 165.7 526.164 165.123C527.767 164.065 538.458 159.337 553.588 164.146C557.54 165.406 561.183 167.484 564.279 170.246C567.375 173.007 569.854 176.39 571.555 180.173C582.422 202.549 582.903 230.71 584.266 255.12Z" fill="#263238"/>
<path d="M521.852 168.938C505.199 176.728 501.224 194.92 497.185 211.22C491.575 233.916 486.35 256.707 482.231 279.724C480.244 290.783 478.513 301.89 477.118 313.046C475.772 323.72 473.688 335.116 474.409 345.903C475.596 363.742 491.912 371.852 507.716 374.385C507.865 374.398 508.013 374.355 508.133 374.266C508.252 374.176 508.335 374.046 508.365 373.899C508.394 373.752 508.369 373.6 508.294 373.471C508.218 373.342 508.098 373.245 507.956 373.199C498.948 371.42 489.764 368.919 483.049 362.236C474.458 353.661 475.467 342.489 476.477 331.35C478.208 312.405 481.013 293.572 484.491 274.867C487.969 256.162 492.136 237.538 496.56 219.026C500.792 201.395 503.869 178.186 521.948 169.227C522.189 169.147 522.029 168.858 521.852 168.938Z" fill="#263238"/>
<path d="M579.216 199.119C576.01 185.495 568.974 172.208 554.629 168.249C573.173 174.163 577.693 194.423 580.162 211.348C582.758 229.171 584.692 247.069 585.964 265.042C587.214 282.304 588.095 299.727 587.759 317.053C587.39 335.741 584.008 353.244 572.965 368.663C572.741 368.983 573.173 369.368 573.43 369.064C584.313 356.594 587.855 339.428 588.785 323.352C589.923 302.179 588.56 280.653 586.893 259.544C585.306 239.574 583.768 218.737 579.216 199.119Z" fill="#263238"/>
<path d="M540.076 253.854C530.058 259.641 457.9 303.894 453.797 304.871C453.797 304.871 439.452 356.722 467.02 357.62C484.939 358.197 542.256 294.966 556.985 267.302C563.765 254.608 561.104 241.705 540.076 253.854Z" fill="#F7A9A0"/>
<path d="M615.841 375.507L507.188 375.587L513.823 322.823C513.823 322.823 506.53 313.206 509.544 301.185C514.817 280.269 538.041 253.245 540.157 251.498C548.668 244.222 559.535 245.616 565.273 248.293C592.713 261.003 615.841 375.507 615.841 375.507Z" fill="#F7A9A0"/>
<path d="M615.841 375.507L507.187 375.587L512.957 327.118C512.957 327.118 504.735 315.498 506.819 303.333C508.169 295.103 512.098 287.515 518.038 281.663C521.821 278.457 524.834 296.473 524.834 296.473C533.008 285.606 538.634 280.829 548.475 280.797C563.398 280.797 573.11 304.743 583.737 320.723C589.715 329.731 605.15 329.939 605.15 329.939C608.148 338.306 615.841 375.507 615.841 375.507Z" fill="#455A64"/>
<path d="M520.584 295.351C520.584 295.696 520.481 296.034 520.29 296.321C520.098 296.609 519.825 296.833 519.505 296.965C519.186 297.097 518.835 297.132 518.496 297.064C518.157 296.997 517.846 296.83 517.602 296.586C517.357 296.342 517.191 296.03 517.123 295.692C517.056 295.353 517.091 295.001 517.223 294.682C517.355 294.363 517.579 294.09 517.866 293.898C518.154 293.706 518.491 293.604 518.837 293.604C519.3 293.604 519.745 293.788 520.072 294.115C520.4 294.443 520.584 294.887 520.584 295.351ZM546.902 293.604C546.556 293.604 546.219 293.706 545.931 293.898C545.644 294.09 545.42 294.363 545.288 294.682C545.156 295.001 545.121 295.353 545.188 295.692C545.256 296.03 545.422 296.342 545.667 296.586C545.911 296.83 546.222 296.997 546.561 297.064C546.9 297.132 547.251 297.097 547.57 296.965C547.89 296.833 548.163 296.609 548.354 296.321C548.546 296.034 548.649 295.696 548.649 295.351C548.649 295.117 548.602 294.886 548.511 294.671C548.421 294.456 548.288 294.261 548.12 294.098C547.953 293.935 547.755 293.808 547.537 293.723C547.32 293.638 547.087 293.597 546.854 293.604H546.902ZM518.837 338.803C518.491 338.803 518.154 338.905 517.866 339.097C517.579 339.289 517.355 339.562 517.223 339.881C517.091 340.2 517.056 340.552 517.123 340.89C517.191 341.229 517.357 341.541 517.602 341.785C517.846 342.029 518.157 342.196 518.496 342.263C518.835 342.331 519.186 342.296 519.505 342.164C519.825 342.031 520.098 341.808 520.29 341.52C520.481 341.233 520.584 340.895 520.584 340.55C520.584 340.316 520.537 340.085 520.446 339.87C520.356 339.655 520.223 339.46 520.055 339.297C519.888 339.134 519.69 339.006 519.472 338.921C519.255 338.837 519.022 338.796 518.789 338.803H518.837ZM546.902 338.803C546.556 338.803 546.219 338.905 545.931 339.097C545.644 339.289 545.42 339.562 545.288 339.881C545.156 340.2 545.121 340.552 545.188 340.89C545.256 341.229 545.422 341.541 545.667 341.785C545.911 342.029 546.222 342.196 546.561 342.263C546.9 342.331 547.251 342.296 547.57 342.164C547.89 342.031 548.163 341.808 548.354 341.52C548.546 341.233 548.649 340.895 548.649 340.55C548.649 340.316 548.602 340.085 548.511 339.87C548.421 339.655 548.288 339.46 548.12 339.297C547.953 339.134 547.755 339.006 547.537 338.921C547.32 338.837 547.087 338.796 546.854 338.803H546.902ZM574.967 338.803C574.62 338.796 574.279 338.893 573.988 339.081C573.696 339.269 573.467 339.54 573.33 339.859C573.193 340.177 573.154 340.529 573.218 340.87C573.281 341.211 573.445 341.526 573.688 341.773C573.931 342.021 574.242 342.19 574.582 342.26C574.922 342.33 575.275 342.298 575.596 342.167C575.917 342.035 576.192 341.811 576.385 341.523C576.578 341.236 576.682 340.897 576.682 340.55C576.682 340.319 576.636 340.09 576.547 339.877C576.459 339.664 576.328 339.471 576.165 339.309C576.001 339.146 575.806 339.018 575.592 338.931C575.378 338.844 575.15 338.8 574.919 338.803H574.967ZM603.032 338.803C602.684 338.793 602.342 338.887 602.049 339.073C601.755 339.259 601.524 339.529 601.384 339.847C601.244 340.165 601.203 340.518 601.265 340.86C601.326 341.202 601.489 341.518 601.731 341.767C601.974 342.016 602.285 342.187 602.625 342.259C602.965 342.33 603.319 342.298 603.641 342.168C603.963 342.037 604.239 341.813 604.433 341.525C604.627 341.237 604.731 340.897 604.731 340.55C604.731 340.086 604.547 339.642 604.219 339.314C603.892 338.987 603.447 338.803 602.984 338.803H603.032ZM532.861 316.684C532.516 316.684 532.178 316.786 531.891 316.978C531.603 317.17 531.38 317.443 531.247 317.762C531.115 318.082 531.08 318.433 531.148 318.772C531.215 319.111 531.382 319.422 531.626 319.666C531.87 319.911 532.182 320.077 532.521 320.145C532.859 320.212 533.211 320.177 533.53 320.045C533.849 319.913 534.122 319.689 534.314 319.402C534.506 319.114 534.608 318.777 534.608 318.431C534.611 318.197 534.566 317.965 534.476 317.748C534.386 317.532 534.253 317.337 534.085 317.173C533.917 317.01 533.718 316.882 533.499 316.798C533.281 316.714 533.047 316.675 532.813 316.684H532.861ZM560.942 316.684C560.596 316.681 560.257 316.781 559.967 316.971C559.678 317.161 559.452 317.432 559.317 317.751C559.182 318.07 559.145 318.422 559.211 318.762C559.277 319.102 559.442 319.415 559.685 319.661C559.929 319.907 560.24 320.075 560.58 320.143C560.919 320.212 561.271 320.178 561.591 320.047C561.911 319.915 562.185 319.691 562.378 319.403C562.571 319.116 562.673 318.777 562.673 318.431C562.673 318.199 562.627 317.969 562.537 317.755C562.448 317.541 562.316 317.347 562.15 317.184C561.985 317.022 561.788 316.894 561.573 316.808C561.357 316.722 561.126 316.68 560.894 316.684H560.942ZM532.861 361.883C532.516 361.883 532.178 361.985 531.891 362.177C531.603 362.369 531.38 362.642 531.247 362.961C531.115 363.281 531.08 363.632 531.148 363.971C531.215 364.31 531.382 364.621 531.626 364.865C531.87 365.11 532.182 365.276 532.521 365.343C532.859 365.411 533.211 365.376 533.53 365.244C533.849 365.112 534.122 364.888 534.314 364.601C534.506 364.313 534.608 363.975 534.608 363.63C534.611 363.396 534.566 363.164 534.476 362.947C534.386 362.731 534.253 362.536 534.085 362.372C533.917 362.209 533.718 362.081 533.499 361.997C533.281 361.913 533.047 361.874 532.813 361.883H532.861ZM560.942 361.883C560.596 361.88 560.257 361.979 559.967 362.169C559.678 362.36 559.452 362.631 559.317 362.95C559.182 363.269 559.145 363.621 559.211 363.961C559.277 364.301 559.442 364.614 559.685 364.859C559.929 365.105 560.24 365.273 560.58 365.342C560.919 365.411 561.271 365.377 561.591 365.245C561.911 365.114 562.185 364.89 562.378 364.602C562.571 364.315 562.673 363.976 562.673 363.63C562.676 363.397 562.631 363.166 562.542 362.951C562.453 362.736 562.321 362.541 562.155 362.378C561.989 362.215 561.792 362.087 561.575 362.002C561.359 361.917 561.127 361.876 560.894 361.883H560.942ZM589.007 361.883C588.661 361.88 588.322 361.979 588.032 362.169C587.743 362.36 587.517 362.631 587.382 362.95C587.247 363.269 587.21 363.621 587.276 363.961C587.342 364.301 587.507 364.614 587.75 364.859C587.994 365.105 588.305 365.273 588.645 365.342C588.984 365.411 589.336 365.377 589.656 365.245C589.976 365.114 590.25 364.89 590.443 364.602C590.635 364.315 590.738 363.976 590.738 363.63C590.741 363.397 590.696 363.166 590.607 362.951C590.518 362.736 590.386 362.541 590.22 362.378C590.054 362.215 589.857 362.087 589.64 362.002C589.424 361.917 589.192 361.876 588.959 361.883H589.007Z" fill="white"/>
<path d="M541.423 320.531C537.141 320.747 532.892 321.402 528.745 322.486C526.645 323.063 524.593 323.768 522.526 324.538C521.5 324.922 520.474 325.259 519.432 325.596C518.404 325.97 517.321 326.176 516.227 326.205C516.131 326.205 516.114 326.397 516.227 326.413C517.251 326.555 518.286 326.608 519.32 326.573C520.339 326.473 521.347 326.286 522.333 326.012C524.449 325.451 526.549 324.746 528.664 324.153C532.944 322.967 537.207 321.781 541.487 320.947C541.567 320.995 541.551 320.515 541.423 320.531Z" fill="#263238"/>
<path d="M551.297 326.557C547.897 325.782 544.44 325.284 540.959 325.067C539.214 324.963 537.464 324.963 535.718 325.067L533.218 325.275C532.304 325.371 531.375 325.644 530.461 325.724C530.365 325.724 530.349 325.932 530.461 325.932C531.327 325.932 532.192 326.061 533.058 326.093C533.923 326.125 534.789 326.093 535.67 326.189C537.401 326.269 539.132 326.365 540.879 326.413C544.357 326.509 547.819 326.654 551.281 326.926C551.458 326.974 551.474 326.59 551.297 326.557Z" fill="#263238"/>
<path d="M560.928 250.216C560.351 252.492 553.812 268.039 543.442 269.305C536.903 270.091 535.781 247.523 535.781 247.523L535.492 246.145L531.613 226.751L554.517 212.727L557.835 210.883C557.835 210.883 558.54 216.253 559.438 222.92C559.438 223.241 559.518 223.545 559.55 223.882C559.582 224.219 559.662 224.619 559.694 224.972C559.833 225.966 559.961 226.975 560.079 228.001C560.175 228.771 560.271 229.604 560.319 230.341C560.367 231.079 560.48 231.944 560.56 232.761C561.092 238.564 561.215 244.396 560.928 250.216Z" fill="#F7A9A0"/>
<path d="M531.613 226.751L534.819 242.523C545.333 245.872 556.248 242.859 561.041 241.128C560.944 238.532 560.784 235.647 560.544 232.778C560.544 231.944 560.4 231.175 560.319 230.325C560.239 229.476 560.159 228.722 560.063 228.001C559.967 227.28 559.823 225.966 559.678 224.972C559.678 224.603 559.582 224.267 559.534 223.882C559.486 223.497 559.534 223.241 559.422 222.92C558.604 216.253 557.819 210.883 557.819 210.883L554.517 212.727L531.613 226.751Z" fill="#263238"/>
<path d="M583.096 196.17C590.822 229.909 571.492 238.355 564.199 240.006C557.596 241.513 534.916 245.808 523.745 213.047C512.573 180.286 525.812 166.021 540.734 161.758C555.657 157.494 575.323 162.431 583.096 196.17Z" fill="#F7A9A0"/>
<path d="M525.7 218.288C527.761 216.84 529.414 214.884 530.498 212.609C531.582 210.335 532.06 207.819 531.886 205.306C537.542 201.746 542.124 196.715 545.141 190.752C545.013 191.522 544.132 197.019 543.539 199.808C564.776 192.676 568.991 174.532 568.991 174.532C573.778 177.962 577.755 182.399 580.643 187.531C580.643 187.531 578.752 173.698 570.482 165.38C560.368 155.17 549.164 158.873 549.164 158.873C543.58 158.244 537.932 159.184 532.853 161.588C527.773 163.992 523.465 167.764 520.41 172.48C508.614 190.319 525.7 218.288 525.7 218.288Z" fill="#263238"/>
<path d="M559.645 193.861C556.435 196.308 552.867 198.243 549.066 199.599C554.987 197.03 560.045 192.813 563.636 187.45C565.179 185.143 566.423 182.65 567.338 180.029C568.453 177.171 568.998 174.121 568.941 171.054C568.933 171.027 568.931 170.999 568.936 170.972C568.94 170.945 568.951 170.919 568.967 170.897C568.984 170.874 569.005 170.856 569.03 170.844C569.054 170.831 569.082 170.825 569.109 170.825C569.137 170.825 569.164 170.831 569.189 170.844C569.214 170.856 569.235 170.874 569.251 170.897C569.268 170.919 569.279 170.945 569.283 170.972C569.288 170.999 569.286 171.027 569.278 171.054C569.637 174.091 569.497 177.166 568.861 180.157C568.129 183.071 566.856 185.822 565.11 188.268C563.57 190.412 561.723 192.318 559.629 193.926L559.645 193.861Z" fill="#263238"/>
<path d="M529.211 211.044C529.211 211.044 520.251 201.427 515.763 204.729C511.275 208.031 519.065 222.792 525.059 224.123C525.817 224.345 526.612 224.412 527.396 224.32C528.181 224.227 528.938 223.978 529.624 223.586C530.309 223.193 530.909 222.667 531.386 222.038C531.863 221.408 532.208 220.689 532.4 219.923L529.211 211.044Z" fill="#F7A9A0"/>
<path d="M518.102 208.896V209.04C522.333 210.114 524.946 213.528 526.965 217.15C526.679 216.778 526.314 216.473 525.896 216.258C525.479 216.042 525.019 215.921 524.55 215.902C524.08 215.884 523.613 215.969 523.18 216.151C522.747 216.334 522.359 216.609 522.044 216.958C521.948 217.038 522.044 217.182 522.189 217.15C522.858 216.829 523.61 216.722 524.342 216.846C525.074 216.969 525.749 217.316 526.276 217.84C527.151 218.727 527.931 219.705 528.6 220.757C528.84 221.093 529.465 220.757 529.273 220.42V220.324C528.6 215.211 523.647 208.64 518.102 208.896Z" fill="#263238"/>
<path d="M577.708 191.49C577.003 191.137 576.282 190.913 575.528 190.624C574.803 190.216 573.964 190.058 573.14 190.175C572.892 190.263 572.679 190.429 572.534 190.649C572.389 190.869 572.321 191.131 572.339 191.394C572.455 191.913 572.707 192.392 573.071 192.781C573.435 193.17 573.896 193.455 574.406 193.605C575.406 194.088 576.552 194.174 577.612 193.846C577.841 193.751 578.039 193.593 578.181 193.39C578.323 193.186 578.404 192.946 578.414 192.699C578.424 192.451 578.363 192.205 578.238 191.991C578.113 191.777 577.929 191.603 577.708 191.49Z" fill="#263238"/>
<path d="M553.666 196.106C554.291 195.609 554.948 195.24 555.605 194.807C556.227 194.251 557.017 193.919 557.849 193.862C558.116 193.895 558.364 194.015 558.555 194.203C558.746 194.391 558.87 194.638 558.907 194.904C558.894 195.438 558.739 195.958 558.457 196.412C558.175 196.866 557.777 197.236 557.304 197.484C556.436 198.15 555.349 198.464 554.259 198.366C554.016 198.324 553.79 198.214 553.608 198.047C553.426 197.881 553.296 197.666 553.233 197.427C553.171 197.188 553.178 196.937 553.255 196.703C553.332 196.468 553.474 196.261 553.666 196.106Z" fill="#263238"/>
<path d="M560.529 201.347C560.529 201.266 560.368 201.491 560.401 201.587C560.913 203.831 561.138 206.508 559.23 207.662C559.23 207.662 559.23 207.806 559.23 207.774C561.699 206.94 561.378 203.398 560.529 201.347Z" fill="#263238"/>
<path d="M558.045 199.391C554.343 199.824 555.497 207.197 558.927 206.78C562.357 206.364 561.139 199.023 558.045 199.391Z" fill="#263238"/>
<path d="M556.647 200.001C556.07 200.529 555.558 201.363 554.804 201.603C554.051 201.844 553.121 201.171 552.416 200.513C552.336 200.513 552.288 200.513 552.304 200.626C552.512 202.036 553.282 203.398 554.82 203.366C556.359 203.334 557.016 201.94 557.144 200.465C557.176 200.145 556.888 199.792 556.647 200.001Z" fill="#263238"/>
<path d="M573.205 199.103C573.205 199.007 573.397 199.183 573.413 199.279C573.686 201.571 574.375 204.088 576.619 204.601C576.619 204.601 576.699 204.729 576.619 204.729C573.974 204.745 573.092 201.315 573.205 199.103Z" fill="#263238"/>
<path d="M574.889 196.41C578.511 195.577 579.906 202.902 576.492 203.671C573.078 204.44 571.876 197.099 574.889 196.41Z" fill="#263238"/>
<path d="M576.506 196.603C577.163 196.875 577.868 197.468 578.558 197.388C579.247 197.308 579.808 196.394 580.16 195.529C580.16 195.449 580.273 195.529 580.289 195.529C580.593 196.923 580.417 198.462 579.119 198.991C577.82 199.52 576.811 198.43 576.217 197.1C576.121 196.923 576.234 196.49 576.506 196.603Z" fill="#263238"/>
<path d="M563.236 220.34C563.845 220.821 564.486 221.494 565.32 221.462C566.173 221.354 566.992 221.064 567.724 220.612C567.739 220.601 567.758 220.595 567.778 220.596C567.797 220.598 567.815 220.606 567.829 220.62C567.842 220.633 567.851 220.652 567.852 220.671C567.853 220.69 567.848 220.709 567.836 220.725C567.555 221.211 567.151 221.616 566.664 221.897C566.177 222.178 565.625 222.327 565.063 222.327C564.582 222.257 564.131 222.047 563.769 221.721C563.407 221.396 563.149 220.971 563.028 220.5C562.98 220.34 563.156 220.34 563.236 220.34Z" fill="#263238"/>
<path d="M571.364 210.515C571.364 210.515 572.405 213.832 572.678 215.435C572.678 215.595 572.325 215.724 571.78 215.852C570.445 216.333 569.004 216.438 567.613 216.156C566.222 215.873 564.936 215.213 563.895 214.249C563.75 214.121 563.895 213.912 564.087 213.993C566.367 215.041 568.924 215.328 571.38 214.81C571.38 214.345 569.408 209.184 569.665 209.12C570.924 209.02 572.191 209.09 573.431 209.328C571.46 202.356 568.382 195.753 566.507 188.781C566.507 188.524 566.796 188.38 566.908 188.604C570.626 195.288 573.079 203.27 575.306 210.418C575.547 211.332 572.053 210.723 571.364 210.515Z" fill="#263238"/>
<path d="M559.051 210.899C559.051 212.598 556.968 214.105 554.243 214.105C551.518 214.105 549.21 212.951 549.146 211.252C549.082 209.553 551.23 208.046 553.954 208.046C556.679 208.046 559.051 209.2 559.051 210.899Z" fill="#E08373"/>
<path d="M583.895 204.007C584.203 204.667 584.302 205.406 584.179 206.124C584.056 206.842 583.716 207.505 583.206 208.024C582.695 208.544 582.038 208.895 581.322 209.031C580.607 209.167 579.867 209.081 579.201 208.784C578.536 208.488 577.977 207.995 577.599 207.372C577.222 206.749 577.044 206.025 577.089 205.298C577.134 204.571 577.4 203.875 577.852 203.304C578.303 202.732 578.919 202.312 579.615 202.1C580.436 201.787 581.347 201.812 582.149 202.169C582.952 202.527 583.579 203.188 583.895 204.007Z" fill="#E08373"/>
<path d="M513.213 263.103C514.159 256.467 458.959 244.19 456.218 253.678C442.963 299.727 448.541 339.396 452.516 347.666C457.709 358.501 472.679 359.751 479.234 355.376C488.723 349.061 505.408 317.886 513.213 263.103Z" fill="#F7A9A0"/>
<path d="M511.769 270.892C511.095 276.277 510.166 281.647 509.204 286.92C508.242 292.193 507.008 297.579 505.774 302.868C504.54 308.157 502.953 313.462 501.35 318.623C499.746 323.836 497.518 328.835 494.715 333.513C495.292 332.279 495.917 331.077 496.462 329.843L497.936 326.06L499.267 322.23C499.7 320.931 500.068 319.633 500.469 318.351C502.072 313.158 503.45 307.933 504.684 302.644C505.918 297.354 507.201 292.097 508.371 286.808L511.769 270.892Z" fill="#263238"/>
<path d="M455.336 256.867C457.751 245.735 460.725 234.731 464.247 223.898C466.908 216.253 475.98 200 480.516 195.272C487.28 188.204 520.137 162.943 526.436 170.781C532.126 177.866 501.144 195.977 501.144 195.977C501.144 195.977 530.796 174.948 536.085 184.758C541.374 194.567 503.644 210.402 503.644 210.402C503.644 210.402 534.594 189.47 538.457 200.433C541.374 208.719 508.004 224.972 508.004 224.972C508.004 224.972 534.723 207.149 538.088 215.547C541.807 224.827 511.963 241.753 511.963 241.753C516.915 264.529 510.44 277.015 504.414 285.558C502.955 287.657 455.336 256.867 455.336 256.867Z" fill="#F7A9A0"/>
<path d="M490.438 202.597C493.82 200 497.234 197.356 500.856 195.064C504.478 192.772 508.165 190.608 511.964 188.652C516.896 186.023 522.112 183.964 527.511 182.514C518.118 185.719 505.071 193.733 501.449 196.057C497.827 198.381 494.124 200.449 490.518 202.725C490.422 202.805 490.342 202.709 490.438 202.597Z" fill="#263238"/>
<path d="M498.452 215.788C502.924 212.663 507.251 209.377 511.867 206.46C516.483 203.543 521.083 201.171 525.86 198.59C526.228 198.382 526.212 198.59 525.86 198.863C521.196 201.652 517.093 204.585 512.444 207.422C507.796 210.259 503.052 212.919 498.532 215.9C498.452 215.948 498.388 215.836 498.452 215.788Z" fill="#263238"/>
<path d="M503.262 228.114C510.003 223.139 517.244 218.879 524.867 215.403C525.236 215.227 525.188 215.564 524.867 215.772C517.607 219.859 511.869 223.017 503.486 228.338C503.31 228.354 503.117 228.21 503.262 228.114Z" fill="#263238"/>
<path d="M525.107 233.162C527.762 231.185 530.25 228.992 532.544 226.607C534.921 224.366 536.719 221.583 537.786 218.496C537.995 217.77 538.01 217.002 537.83 216.268C537.65 215.534 537.281 214.86 536.76 214.313C536.138 213.877 535.429 213.583 534.681 213.45C533.934 213.317 533.166 213.349 532.432 213.544C529.182 214.068 526.047 215.153 523.168 216.749C525.835 214.917 528.368 212.898 530.749 210.707C533.315 208.817 535.492 206.45 537.16 203.735C537.544 203.114 537.775 202.411 537.834 201.684C537.892 200.956 537.777 200.225 537.497 199.551C537.12 198.937 536.58 198.439 535.939 198.111C535.297 197.783 534.577 197.638 533.859 197.692C530.678 197.786 527.548 198.522 524.659 199.856L524.482 199.503C527.445 197.754 530.198 195.673 532.689 193.301C533.979 192.178 535.064 190.838 535.894 189.342C536.316 188.611 536.538 187.781 536.538 186.937C536.538 186.093 536.316 185.264 535.894 184.533C536.384 185.264 536.664 186.115 536.704 186.994C536.743 187.873 536.541 188.746 536.119 189.518C535.351 191.089 534.308 192.512 533.041 193.717C530.535 196.134 527.728 198.219 524.691 199.92L524.498 199.567C527.496 198.253 530.477 196.698 533.907 196.714C534.792 196.728 535.668 196.907 536.487 197.243C537.342 197.627 538.042 198.288 538.475 199.119C538.835 199.944 538.997 200.842 538.947 201.742C538.897 202.641 538.636 203.516 538.186 204.296C536.482 207.166 534.24 209.68 531.583 211.701C528.947 213.636 526.178 215.382 523.296 216.926V216.814C526.229 215.211 529.002 213.239 532.4 212.646C533.281 212.442 534.197 212.434 535.081 212.626C535.965 212.817 536.795 213.202 537.513 213.752C538.135 214.417 538.57 215.233 538.775 216.12C538.981 217.006 538.949 217.931 538.683 218.801C537.539 221.997 535.583 224.842 533.009 227.055C530.549 229.306 527.906 231.349 525.107 233.162Z" fill="#263238"/>
<path d="M358.176 186.425C366.735 238.9 369.395 254.816 383.452 252.508C397.508 250.2 394.912 234.3 386.353 181.825L358.176 186.425Z" fill="#EBEBEB"/>
<path d="M358.176 186.425C360.356 198.926 362.423 211.444 364.924 223.882C366.084 230.111 367.756 236.233 369.924 242.186C370.938 245.154 372.609 247.855 374.813 250.088C375.945 251.125 377.334 251.839 378.836 252.155C380.356 252.444 381.916 252.444 383.436 252.155C384.962 251.934 386.434 251.435 387.779 250.681C389.087 249.908 390.165 248.802 390.905 247.475C392.262 244.66 392.974 241.577 392.989 238.451C393.121 232.127 392.741 225.802 391.851 219.538C390.248 206.956 388.18 194.439 386.209 181.905L386.449 182.081L358.176 186.425ZM358.176 186.425L386.321 181.616H386.529V181.825C388.597 194.342 390.761 206.844 392.412 219.442C393.339 225.746 393.762 232.113 393.678 238.483C393.676 241.731 392.924 244.934 391.482 247.844C390.676 249.293 389.498 250.499 388.068 251.338C385.178 252.915 381.843 253.479 378.595 252.941C376.978 252.585 375.484 251.805 374.268 250.681C371.998 248.38 370.288 245.589 369.267 242.523C367.166 236.519 365.557 230.355 364.459 224.09C361.91 211.524 360.131 198.958 358.176 186.425Z" fill="#263238"/>
<path d="M390.299 307.144L394.27 306.496L383.728 241.909L379.757 242.557L390.299 307.144Z" fill="#EBEBEB"/>
<path d="M371.125 315.69L415.186 308.494L392.074 305.528L371.125 315.69Z" fill="#EBEBEB"/>
<path d="M382.744 248.18C374.874 249.286 371.188 239.108 365.113 209.473C368.892 210.4 372.438 212.097 375.531 214.457C379.17 217.535 383.129 219.266 387.584 212.855C387.552 212.903 395.454 246.369 382.744 248.18Z" fill="#37474F"/>
<path d="M365.403 198.878C365.403 198.878 370.725 185.399 367.182 178.234C365.708 175.285 363.512 173.811 361.573 174.484C359.633 175.157 358.367 179.292 361.012 182.498C365.115 187.402 366.461 191.297 365.403 198.878Z" fill="#37474F"/>
<path d="M369.922 201.539C369.922 201.539 367.374 193.172 371.413 193.525C375.452 193.878 369.922 201.539 369.922 201.539Z" fill="#37474F"/>
<path d="M575.289 281.903C564.069 310.289 535.764 366.852 515.248 369.624C500.406 371.66 441.102 333.882 426.084 320.595C411.579 307.772 457.098 270.123 466.154 277.063C478.976 286.84 507.827 309.76 513.709 310.289C517.796 310.673 524.239 301.233 560.19 268.616C578.478 252.011 581.187 267.077 575.289 281.903Z" fill="#F7A9A0"/>
<path d="M470.162 279.9C470.162 279.9 451.201 266.356 438.379 258.085C431.23 253.469 418.264 246.642 411.452 245.648C401.274 244.173 357.758 244.478 357.614 255.04C357.469 264.657 394.831 259.576 394.831 259.576C394.831 259.576 356.684 261.307 358.639 272.831C360.595 284.355 402.027 273.088 402.027 273.088C402.027 273.088 362.887 275.748 366.766 287.321C369.715 296.056 407.829 287.962 407.829 287.962C407.829 287.962 374.171 290.478 376.831 299.598C379.748 309.68 415.395 304.406 415.395 304.406C426.005 326.477 439.437 333.593 450.656 335.837C453.269 336.366 470.162 279.9 470.162 279.9Z" fill="#F7A9A0"/>
<path d="M406.179 258.262C377.986 257.397 363.897 265.603 364.314 265.459C374.203 262.109 390.167 260.282 394.639 259.849C399.11 259.416 401.739 258.871 406.195 258.439C406.307 258.422 406.291 258.278 406.179 258.262Z" fill="#263238"/>
<path d="M409.865 274.226C398.476 273.366 387.025 274.538 376.046 277.688C375.63 277.832 375.79 277.977 376.239 277.913C381.896 277.191 404.207 274.803 409.897 274.37C409.994 274.37 409.994 274.242 409.865 274.226Z" fill="#263238"/>
<path d="M413.953 287.769C405.116 287.282 396.266 288.451 387.859 291.215C387.443 291.328 387.699 291.552 388.148 291.472C396.787 290.174 403.567 289.084 413.953 288.074C414.129 288.058 414.145 287.769 413.953 287.769Z" fill="#263238"/>
<path d="M442.227 260.811C448.114 264.129 453.798 267.795 459.248 271.79C464.746 275.717 470.099 279.804 475.501 283.891L491.529 296.232C494.205 298.268 496.898 300.287 499.655 302.243C502.412 304.198 505.185 306.074 508.086 307.805C502.111 304.636 496.388 301.014 490.968 296.97C485.486 293.027 480.133 288.956 474.747 284.853C469.362 280.749 464.057 276.598 458.719 272.527C453.382 268.456 447.9 264.465 442.227 260.811Z" fill="#263238"/>
<path d="M444.5 334.219C451.071 338.338 457.627 342.457 464.246 346.464C470.866 350.471 477.486 354.478 484.442 357.828C491.398 361.178 498.386 364.608 505.519 367.445C509.077 368.791 512.923 369.977 516.626 368.967C520.318 367.833 523.749 365.981 526.723 363.518C523.865 366.19 520.48 368.237 516.786 369.528C514.869 370.077 512.852 370.181 510.888 369.833C508.952 369.473 507.052 368.937 505.214 368.23C501.528 366.916 498.001 365.281 494.475 363.678L483.913 358.87C480.403 357.171 477.021 355.247 473.671 353.292C470.321 351.337 467.003 349.317 463.766 347.201C457.226 343.082 450.783 338.755 444.5 334.219Z" fill="#263238"/>
<path d="M569.008 296.633C569.783 293.557 571.067 290.632 572.806 287.978C572.031 291.054 570.747 293.98 569.008 296.633Z" fill="#263238"/>
<path d="M570.641 293.331C571.089 292.706 571.554 292.129 571.955 291.504C572.356 290.879 572.74 290.254 573.141 289.597C573.029 290.364 572.738 291.094 572.292 291.728C571.862 292.374 571.299 292.921 570.641 293.331Z" fill="#263238"/>
<path d="M546.938 280.797C547.899 279.534 548.972 278.359 550.143 277.287C551.295 276.206 552.545 275.235 553.878 274.386C552.929 275.656 551.855 276.826 550.672 277.88C549.523 278.97 548.273 279.946 546.938 280.797Z" fill="#263238"/>
<path d="M549.438 278.361C549.517 277.566 549.811 276.807 550.287 276.165C550.524 275.845 550.792 275.55 551.088 275.284C551.384 275.023 551.713 274.802 552.066 274.626C551.015 275.738 550.129 276.996 549.438 278.361Z" fill="#263238"/>
<path d="M587.76 375.587C587.764 375.613 587.764 375.641 587.76 375.667V375.811C587.6 376.517 587.135 378.825 586.414 382.511C586.414 382.746 586.366 383.003 586.269 383.28C585.724 385.957 585.067 389.307 584.282 393.186C584.154 393.891 584.009 394.596 583.849 395.333C583.657 396.407 583.432 397.513 583.208 398.651C583.032 399.517 582.855 400.398 582.663 401.312C582.663 401.729 582.519 402.145 582.423 402.578C582.278 403.315 582.118 404.053 581.958 404.822C581.557 406.97 581.108 409.214 580.644 411.538C580.419 412.644 580.195 413.75 579.97 414.904C578.88 420.337 577.742 426.123 576.492 432.342C576.204 433.833 575.899 435.307 575.611 436.798C575.611 437.006 575.531 437.231 575.482 437.439C575.034 439.683 574.569 441.975 574.104 444.315C573.639 446.655 573.11 449.412 572.581 452.024L571.524 457.314L569.712 466.482C569.456 467.748 569.2 469.014 568.959 470.296L568.19 474.111C567.324 478.503 566.427 482.942 565.545 487.398C565.273 488.744 565.016 490.091 564.744 491.453C564.632 491.95 564.535 492.431 564.439 492.928C564.263 493.889 564.071 494.851 563.878 495.797C563.686 496.742 563.526 497.672 563.317 498.602C563.109 499.531 562.981 500.204 562.836 501.038C562.74 501.503 562.66 501.984 562.548 502.448C562.115 504.692 561.666 506.936 561.234 509.18C561.234 509.388 561.234 509.613 561.089 509.821C560.352 513.508 559.631 517.162 558.91 520.833C558.541 522.74 558.156 524.615 557.772 526.49C557.387 528.366 557.05 530.129 556.698 531.956C556.679 532.08 556.652 532.203 556.618 532.325C556.361 533.591 556.105 534.857 555.864 536.107C555.415 538.335 554.999 540.531 554.566 542.695C554.566 542.983 554.438 543.288 554.39 543.576C553.957 545.74 553.524 547.872 553.123 549.987C553.064 550.181 553.021 550.379 552.995 550.58C552.659 552.311 552.306 554.01 551.985 555.693C551.665 557.376 551.312 559.059 550.992 560.71C550.992 560.967 550.88 561.207 550.831 561.479C548.251 574.414 545.927 586.179 544.004 595.924H455.305C460.594 570.118 469.89 529.984 479.17 490.988C491.095 440.853 502.988 392.625 506.29 379.241L507.091 376.036V375.875V375.699L587.76 375.587Z" fill="#F7A9A0"/>
<path d="M587.76 375.587C587.76 375.587 565.433 487.783 550.8 561.511L507.188 375.587H587.76Z" fill="#263238"/>
<path d="M478.258 490.876L568.976 501.791L587.761 375.587H507.204L478.258 490.876Z" fill="#263238"/>
<path d="M565.594 484.369C555.897 482.43 546.056 481.163 536.231 480.122C526.406 479.08 516.789 477.958 507.06 476.916C501.482 476.355 495.84 475.794 490.311 475.489C490.271 475.479 490.229 475.479 490.188 475.487C490.148 475.496 490.11 475.514 490.077 475.539C490.045 475.565 490.018 475.597 490 475.635C489.982 475.672 489.973 475.713 489.973 475.754C489.973 475.795 489.982 475.836 490 475.873C490.018 475.91 490.045 475.943 490.077 475.969C490.11 475.994 490.148 476.012 490.188 476.02C490.229 476.029 490.271 476.028 490.311 476.018C500.008 477.83 509.865 478.968 519.658 480.25C529.451 481.532 539.068 482.75 548.797 483.792C554.391 484.385 560.016 484.85 565.562 485.074C565.619 485.102 565.683 485.115 565.746 485.113C565.81 485.11 565.872 485.092 565.927 485.059C565.982 485.027 566.028 484.981 566.061 484.926C566.094 484.872 566.112 484.81 566.115 484.746C566.118 484.682 566.105 484.619 566.077 484.561C566.05 484.504 566.008 484.454 565.956 484.417C565.905 484.379 565.845 484.356 565.781 484.347C565.718 484.339 565.654 484.346 565.594 484.369Z" fill="#37474F"/>
<path d="M575.21 382.944C568.468 407.093 562.057 431.338 555.977 455.679C555.111 459.093 554.294 462.523 553.46 465.937C552.525 469.427 551.77 472.963 551.2 476.531C551.19 476.574 551.196 476.619 551.219 476.656C551.241 476.694 551.278 476.721 551.32 476.731C551.363 476.742 551.408 476.735 551.446 476.713C551.483 476.69 551.51 476.654 551.521 476.611C553.606 470.619 555.372 464.519 556.81 458.339C558.413 452.313 560.016 446.254 561.618 440.196C564.824 428.095 567.853 415.993 570.802 403.844C572.469 396.92 574.131 389.975 575.787 383.008C575.796 382.931 575.773 382.855 575.725 382.794C575.677 382.734 575.607 382.696 575.531 382.687C575.454 382.679 575.377 382.701 575.317 382.749C575.257 382.797 575.219 382.867 575.21 382.944Z" fill="#37474F"/>
<path d="M640.7 595.923H555.511C554.662 580.601 553.908 564.941 553.091 550.019C552.193 532.581 551.36 516.168 550.703 502.48C550.703 501.503 550.607 500.541 550.559 499.595C550.27 493.793 550.03 488.52 549.805 483.968C549.805 483.215 549.725 482.493 549.693 481.788C549.34 474.463 549.1 469.174 548.972 466.594C548.972 466.262 548.972 465.974 548.972 465.728C548.972 465.151 548.972 464.831 548.972 464.831C544.163 462.154 540.028 460.15 536.71 458.66L534.787 457.81C532.136 456.616 529.411 455.593 526.629 454.749C525.923 452.97 525.218 451.127 524.545 449.251C514.239 420.481 508.02 380.892 507.283 376.036V375.811C507.275 375.726 507.275 375.64 507.283 375.555H614.109C640.748 426.492 626.515 460.214 626.515 460.214C627.926 471.963 629.56 486.532 631.323 502.496C634.257 531.731 637.719 565.759 640.7 595.923Z" fill="#F7A9A0"/>
<path d="M550.461 502.432H634.383L627.972 460.151C627.972 460.151 640.794 417.244 615.807 375.491H507.121C507.121 375.491 511.625 420.962 524.96 455.166L538.616 461.224L550.461 502.432Z" fill="#263238"/>
<path d="M538.616 461.241C538.504 460.696 537.414 460.712 537.51 461.241C541.934 486.18 548.906 498.249 549.403 499.387C549.417 499.418 549.439 499.444 549.468 499.462C549.496 499.48 549.529 499.49 549.563 499.49C549.597 499.49 549.63 499.48 549.658 499.462C549.687 499.444 549.709 499.418 549.723 499.387C550.108 498.217 540.603 471.595 538.616 461.241Z" fill="#37474F"/>
<path d="M522.479 453.483C532.105 456.989 541.409 461.322 550.288 466.433C550.35 466.475 550.396 466.538 550.417 466.611C550.438 466.683 550.432 466.761 550.402 466.83C550.371 466.898 550.317 466.954 550.249 466.987C550.182 467.02 550.104 467.029 550.031 467.01C540.671 462.987 531.118 459.141 521.982 454.605C521.834 454.539 521.717 454.416 521.658 454.265C521.6 454.113 521.604 453.944 521.67 453.795C521.736 453.646 521.858 453.53 522.01 453.471C522.162 453.413 522.33 453.417 522.479 453.483Z" fill="#37474F"/>
<path d="M519.514 389.211C519.514 388.89 520.107 388.826 520.091 389.211C520.091 400.334 520.732 410.127 521.694 420.513C522.142 425.322 526.021 452.008 534.388 450.053C535.782 449.732 536.504 448.354 536.712 446.238C536.984 443.706 536.023 440.597 535.606 438.064C534.676 432.486 534.003 426.845 533.458 421.251C532.48 410.753 532.593 400.182 533.795 389.708C533.795 389.635 533.823 389.566 533.875 389.515C533.926 389.464 533.995 389.435 534.067 389.435C534.14 389.435 534.209 389.464 534.26 389.515C534.311 389.566 534.34 389.635 534.34 389.708C534.09 404.262 534.942 418.814 536.888 433.24C537.93 440.18 541.424 450.614 534.163 451.688C526.903 452.762 521.998 435.291 521.101 430.499C518.785 416.863 518.251 402.984 519.514 389.211Z" fill="#37474F"/>
<path d="M534.13 450.726C534.874 452.527 535.501 454.374 536.005 456.256C536.541 457.707 536.807 459.245 536.791 460.792C536.779 460.854 536.75 460.911 536.706 460.957C536.663 461.002 536.606 461.034 536.545 461.048C536.483 461.061 536.419 461.057 536.36 461.034C536.301 461.011 536.25 460.972 536.214 460.92C535.345 459.553 534.691 458.061 534.274 456.496C533.633 454.797 532.96 453.098 532.367 451.367C532.316 451.143 532.349 450.908 532.46 450.706C532.57 450.504 532.75 450.349 532.966 450.271C533.182 450.192 533.42 450.195 533.634 450.279C533.848 450.363 534.025 450.522 534.13 450.726Z" fill="#37474F"/>
<path d="M611.945 421.827C604.043 421.042 595.917 421.154 588.576 417.612C581.235 414.07 576.395 406.969 572.548 399.869C570.218 395.473 568.456 390.798 567.307 385.957C567.295 385.913 567.268 385.875 567.232 385.848C567.196 385.82 567.152 385.806 567.107 385.806C567.061 385.806 567.017 385.82 566.981 385.848C566.945 385.875 566.919 385.913 566.906 385.957C567.201 390.486 568.286 394.929 570.112 399.084C571.758 403.183 573.866 407.082 576.395 410.704C578.736 414.165 581.819 417.061 585.419 419.183C589.091 421.163 593.125 422.384 597.279 422.773C602.141 423.278 607.043 423.246 611.897 422.677C611.981 422.645 612.055 422.59 612.108 422.517C612.162 422.444 612.193 422.358 612.198 422.268C612.203 422.178 612.182 422.088 612.137 422.01C612.092 421.932 612.025 421.868 611.945 421.827Z" fill="#37474F"/>
<path d="M622.878 469.078C621.776 465.216 620.988 461.27 620.522 457.281C620.297 453.322 622.397 449.908 623.599 446.254C628.231 432.053 626.356 416.506 621.291 402.69C618.256 394.828 614.595 387.223 610.344 379.946C610.232 379.754 609.959 379.946 610.055 380.123C616.979 393.634 623.102 408.075 624.481 423.398C625.217 430.758 624.531 438.191 622.461 445.292C621.435 448.642 619.512 451.88 619.255 455.422C618.999 458.964 620.169 462.875 620.986 466.433C621.996 470.857 625.09 484.208 626.452 488.696C626.58 489.081 627.253 489.001 627.189 488.584C626.532 484.545 623.775 473.165 622.878 469.078Z" fill="#37474F"/>
<path d="M628.92 491.501C619.046 490.764 609.141 490.78 599.252 490.876C589.362 490.972 579.698 491.132 569.921 491.325C564.311 491.453 558.701 491.581 553.123 491.966C553.083 491.956 553.041 491.955 553.001 491.964C552.96 491.972 552.922 491.99 552.89 492.016C552.857 492.041 552.831 492.074 552.813 492.111C552.795 492.148 552.785 492.189 552.785 492.23C552.785 492.272 552.795 492.312 552.813 492.349C552.831 492.387 552.857 492.419 552.89 492.445C552.922 492.47 552.96 492.488 553.001 492.497C553.041 492.505 553.083 492.505 553.123 492.495C562.98 493.088 572.918 493.024 582.791 493.104C592.664 493.184 602.361 493.2 612.138 493.104C617.748 493.007 623.358 492.799 628.936 492.334C629.046 492.332 629.151 492.286 629.228 492.207C629.305 492.127 629.346 492.02 629.344 491.91C629.342 491.799 629.296 491.694 629.217 491.617C629.137 491.541 629.03 491.499 628.92 491.501Z" fill="#37474F"/>
<path d="M289.272 81.8101H55.151C52.0126 81.8394 48.9108 82.4866 46.0226 83.7148C43.1344 84.9429 40.5164 86.7279 38.3181 88.9679C36.1198 91.2079 34.3843 93.8589 33.2106 96.7697C32.0369 99.6804 31.448 102.794 31.4776 105.932V587.877C31.4221 594.214 33.8841 600.314 38.3229 604.837C42.7616 609.36 48.8141 611.936 55.151 611.999H289.272C295.613 611.94 301.671 609.367 306.116 604.844C310.56 600.321 313.028 594.219 312.977 587.877V105.932C313.004 102.792 312.413 99.6766 311.237 96.7648C310.06 93.8529 308.322 91.2013 306.12 88.9613C303.919 86.7213 301.298 84.9369 298.407 83.7099C295.516 82.4829 292.412 81.8373 289.272 81.8101ZM298.167 572.955C298.167 585.633 288.679 595.891 276.962 595.891H67.5085C55.76 595.891 46.2715 585.633 46.2715 572.955V124.172C46.2715 98.3189 55.76 97.0687 67.5085 97.0687H109.454C111.89 97.0687 113.893 99.8415 113.893 103.272V104.746C113.893 112.76 118.285 112.76 123.703 112.76H220.736C226.186 112.76 230.545 112.76 230.545 104.746V103.336C230.545 99.9056 232.517 97.1328 235.001 97.1328H276.962C288.679 97.1328 298.167 100.563 298.167 124.236V572.955Z" fill="#263238"/>
<path d="M185.46 102.807H158.982C158.557 102.807 158.149 102.638 157.848 102.337C157.548 102.037 157.379 101.629 157.379 101.204C157.379 100.779 157.548 100.371 157.848 100.071C158.149 99.7699 158.557 99.6011 158.982 99.6011H185.46C185.885 99.6011 186.293 99.7699 186.593 100.071C186.894 100.371 187.063 100.779 187.063 101.204C187.063 101.629 186.894 102.037 186.593 102.337C186.293 102.638 185.885 102.807 185.46 102.807Z" fill="white"/>
<path d="M298.185 124.172V572.956C298.185 585.634 288.681 595.892 276.964 595.892H67.5105C55.778 595.892 46.2734 585.634 46.2734 572.956V124.172C46.2734 98.319 55.778 97.0688 67.5105 97.0688H109.456C111.892 97.0688 113.895 99.8417 113.895 103.272V104.746C113.895 112.76 118.303 112.76 123.705 112.76H220.738C226.188 112.76 230.563 112.76 230.563 104.746V103.336C230.563 99.9058 232.519 97.133 235.003 97.133H276.964C288.681 97.1009 298.185 100.531 298.185 124.172Z" fill="white"/>
<path d="M298.166 124.172V157.655H46.2539V124.172C46.2539 98.319 55.7585 97.0688 67.507 97.0688H109.468C111.905 97.0688 113.892 99.8417 113.892 103.272V104.746C113.892 112.76 118.3 112.76 123.701 112.76H220.718C226.184 112.76 230.56 112.76 230.56 104.746V103.336C230.56 99.9058 232.531 97.133 234.999 97.133H276.961C288.661 97.1009 298.166 100.531 298.166 124.172Z" fill="#37474F"/>
<path d="M71.7733 141.338L64.3203 134.366L71.7733 127.394L72.9273 128.628L66.7886 134.366L72.9273 140.104L71.7733 141.338Z" fill="white"/>
<path d="M280.168 131.481C280.171 131.774 280.087 132.061 279.926 132.306C279.765 132.551 279.535 132.742 279.265 132.856C278.995 132.969 278.697 133 278.41 132.944C278.122 132.887 277.858 132.746 277.651 132.539C277.443 132.332 277.303 132.068 277.246 131.78C277.19 131.493 277.22 131.195 277.334 130.925C277.448 130.655 277.639 130.425 277.884 130.264C278.129 130.103 278.416 130.019 278.709 130.022C279.095 130.026 279.463 130.181 279.736 130.454C280.009 130.726 280.164 131.095 280.168 131.481Z" fill="white"/>
<path d="M280.168 136.69C280.171 136.983 280.087 137.27 279.926 137.515C279.765 137.76 279.535 137.952 279.265 138.065C278.995 138.179 278.697 138.209 278.41 138.153C278.122 138.097 277.858 137.956 277.651 137.749C277.443 137.542 277.303 137.277 277.246 136.99C277.19 136.702 277.22 136.404 277.334 136.134C277.448 135.864 277.639 135.634 277.884 135.473C278.129 135.313 278.416 135.228 278.709 135.232C279.096 135.232 279.467 135.385 279.741 135.659C280.014 135.932 280.168 136.303 280.168 136.69Z" fill="white"/>
<path d="M280.168 141.899C280.171 142.192 280.087 142.479 279.926 142.724C279.765 142.969 279.535 143.161 279.265 143.274C278.995 143.388 278.697 143.418 278.41 143.362C278.122 143.306 277.858 143.165 277.651 142.958C277.443 142.751 277.303 142.486 277.246 142.199C277.19 141.911 277.22 141.613 277.334 141.343C277.448 141.073 277.639 140.843 277.884 140.682C278.129 140.522 278.416 140.437 278.709 140.441C279.096 140.441 279.467 140.594 279.741 140.868C280.014 141.141 280.168 141.512 280.168 141.899Z" fill="white"/>
<path d="M102.255 107.183L101.839 107.583C101.768 107.662 101.693 107.737 101.614 107.808C101.102 107.294 100.494 106.887 99.8242 106.609C99.1545 106.332 98.4365 106.189 97.7115 106.189C96.9865 106.189 96.2686 106.332 95.5989 106.609C94.9292 106.887 94.3208 107.294 93.8087 107.808L93.5843 107.583L93.1836 107.183L93.6965 106.718C94.0619 106.422 94.4598 106.17 94.8826 105.964C95.3895 105.714 95.929 105.536 96.4854 105.436C96.7418 105.436 97.0143 105.436 97.2707 105.339H97.9599H98.4889C98.9817 105.401 99.4658 105.519 99.9314 105.692C100.269 105.815 100.596 105.965 100.909 106.141C101.238 106.332 101.549 106.552 101.839 106.798L102.271 107.183H102.255Z" fill="white"/>
<path d="M95.0591 109.09L94.418 108.449C95.1142 107.735 96.0274 107.273 97.0145 107.135C97.7249 107.031 98.4498 107.094 99.1315 107.319C99.8132 107.545 100.433 107.926 100.941 108.433L100.3 109.074C99.6036 108.382 98.6616 107.994 97.6797 107.994C96.6978 107.994 95.7557 108.382 95.0591 109.074V109.09Z" fill="white"/>
<path d="M99.6581 109.747L99.017 110.372C98.6582 110.025 98.1782 109.83 97.6787 109.83C97.1791 109.83 96.6991 110.025 96.3403 110.372L95.6992 109.747C95.9574 109.484 96.2654 109.275 96.6052 109.132C96.9451 108.99 97.31 108.916 97.6787 108.916C98.0473 108.916 98.4122 108.99 98.7521 109.132C99.092 109.275 99.4 109.484 99.6581 109.747Z" fill="white"/>
<path d="M98.2478 110.933C98.2478 111.086 98.187 111.233 98.0788 111.341C97.9706 111.449 97.8238 111.51 97.6708 111.51C97.5177 111.51 97.371 111.449 97.2628 111.341C97.1545 111.233 97.0938 111.086 97.0938 110.933C97.0978 110.781 97.1599 110.637 97.2672 110.529C97.3746 110.422 97.519 110.36 97.6708 110.356C97.8238 110.356 97.9706 110.417 98.0788 110.525C98.187 110.633 98.2478 110.78 98.2478 110.933Z" fill="white"/>
<path d="M62.6836 108.4C62.6836 108.083 62.7776 107.773 62.9537 107.51C63.1298 107.246 63.3802 107.041 63.673 106.919C63.9659 106.798 64.2882 106.766 64.5991 106.828C64.91 106.89 65.1956 107.043 65.4197 107.267C65.6439 107.491 65.7966 107.777 65.8584 108.087C65.9202 108.398 65.8885 108.721 65.7672 109.014C65.6459 109.306 65.4404 109.557 65.1769 109.733C64.9133 109.909 64.6034 110.003 64.2864 110.003C63.8613 110.003 63.4536 109.834 63.153 109.534C62.8525 109.233 62.6836 108.825 62.6836 108.4Z" fill="white"/>
<path d="M67.957 108.4C67.957 108.083 68.051 107.773 68.2272 107.51C68.4033 107.246 68.6536 107.041 68.9465 106.919C69.2393 106.798 69.5616 106.766 69.8725 106.828C70.1834 106.89 70.469 107.043 70.6932 107.267C70.9173 107.491 71.07 107.777 71.1318 108.087C71.1937 108.398 71.1619 108.721 71.0406 109.014C70.9193 109.306 70.7139 109.557 70.4503 109.733C70.1867 109.909 69.8768 110.003 69.5598 110.003C69.1347 110.003 68.7271 109.834 68.4265 109.534C68.1259 109.233 67.957 108.825 67.957 108.4Z" fill="white"/>
<path d="M73.2148 108.4C73.2148 108.083 73.3089 107.773 73.485 107.51C73.6611 107.246 73.9114 107.041 74.2043 106.919C74.4972 106.798 74.8194 106.766 75.1303 106.828C75.4412 106.89 75.7268 107.043 75.951 107.267C76.1751 107.491 76.3278 107.777 76.3896 108.087C76.4515 108.398 76.4197 108.721 76.2984 109.014C76.1771 109.306 75.9717 109.557 75.7081 109.733C75.4445 109.909 75.1346 110.003 74.8176 110.003C74.3926 110.003 73.9849 109.834 73.6843 109.534C73.3837 109.233 73.2148 108.825 73.2148 108.4Z" fill="white"/>
<path d="M78.4727 108.4C78.4727 108.083 78.5667 107.773 78.7428 107.51C78.9189 107.246 79.1692 107.041 79.4621 106.919C79.755 106.798 80.0772 106.766 80.3881 106.828C80.699 106.89 80.9846 107.043 81.2088 107.267C81.4329 107.491 81.5856 107.777 81.6474 108.087C81.7093 108.398 81.6775 108.721 81.5562 109.014C81.4349 109.306 81.2295 109.557 80.9659 109.733C80.7023 109.909 80.3925 110.003 80.0755 110.003C79.6504 110.003 79.2427 109.834 78.9421 109.534C78.6415 109.233 78.4727 108.825 78.4727 108.4Z" fill="white"/>
<path d="M83.7305 108.4C83.7305 108.083 83.8245 107.773 84.0006 107.51C84.1767 107.246 84.427 107.041 84.7199 106.919C85.0128 106.798 85.335 106.766 85.646 106.828C85.9569 106.89 86.2425 107.043 86.4666 107.267C86.6908 107.491 86.8434 107.777 86.9053 108.087C86.9671 108.398 86.9354 108.721 86.814 109.014C86.6927 109.306 86.4873 109.557 86.2237 109.733C85.9601 109.909 85.6503 110.003 85.3333 110.003C84.9082 110.003 84.5005 109.834 84.1999 109.534C83.8993 109.233 83.7305 108.825 83.7305 108.4Z" fill="white"/>
<path d="M279.333 112.103H265.629V105.692H279.333V112.103ZM266.51 111.302H278.563V106.493H266.462L266.51 111.302Z" fill="white"/>
<path d="M275.584 106.814H266.816V110.965H275.584V106.814Z" fill="white"/>
<path d="M280.487 107.214H279.285V110.58H280.487V107.214Z" fill="white"/>
<path d="M84.545 568.5H82.6216V577.283H79.0474V572.811H72.7163V577.283H69.1261V568.5H67.2188L75.8739 559.54L84.545 568.5Z" fill="#EBEBEB"/>
<path d="M277.252 559.54H256.367V562.521H277.252V559.54Z" fill="#EBEBEB"/>
<path d="M277.252 566.929H256.367V569.91H277.252V566.929Z" fill="#EBEBEB"/>
<path d="M277.252 574.302H256.367V577.283H277.252V574.302Z" fill="#EBEBEB"/>
<path d="M178.166 567.233L172.219 573.565L166.289 567.233L167.331 566.24L172.219 571.465L177.124 566.24L178.166 567.233Z" fill="#EBEBEB"/>
<path d="M172.219 580.2C170.066 580.2 167.961 579.561 166.171 578.365C164.381 577.168 162.986 575.468 162.163 573.478C161.34 571.489 161.125 569.3 161.546 567.188C161.967 565.076 163.006 563.137 164.529 561.616C166.053 560.095 167.993 559.059 170.106 558.641C172.218 558.223 174.406 558.441 176.395 559.267C178.383 560.093 180.082 561.491 181.276 563.282C182.47 565.074 183.105 567.18 183.102 569.333C183.098 572.217 181.949 574.981 179.909 577.018C177.868 579.056 175.102 580.2 172.219 580.2ZM172.219 560.053C170.383 560.053 168.589 560.597 167.063 561.617C165.537 562.637 164.348 564.086 163.645 565.782C162.943 567.477 162.759 569.343 163.117 571.144C163.475 572.944 164.359 574.597 165.657 575.895C166.955 577.193 168.608 578.077 170.408 578.435C172.209 578.793 174.075 578.609 175.77 577.907C177.466 577.205 178.915 576.015 179.935 574.489C180.955 572.963 181.499 571.169 181.499 569.333C181.478 566.886 180.491 564.546 178.753 562.823C177.015 561.1 174.666 560.133 172.219 560.133V560.053Z" fill="#EBEBEB"/>
<path d="M73.8086 345.038H253.963V288.459H73.8086V345.038Z" fill="#455A64"/>
<path d="M270.646 345.037H253.961V327.663L270.646 345.037Z" fill="#455A64"/>
<path d="M243.655 298.252H84.1289V299.326H243.655V298.252Z" fill="white"/>
<path d="M210.542 304.054H84.1289V305.128H210.542V304.054Z" fill="white"/>
<path d="M230.528 315.658H84.1289V316.732H230.528V315.658Z" fill="white"/>
<path d="M243.655 321.46H84.1289V322.534H243.655V321.46Z" fill="white"/>
<path d="M243.655 327.263H84.1289V328.337H243.655V327.263Z" fill="white"/>
<path d="M199.466 333.081H84.1289V334.154H199.466V333.081Z" fill="white"/>
<path d="M73.8086 478.631H253.963V422.068H73.8086V478.631Z" fill="#455A64"/>
<path d="M270.646 478.631H253.961V461.256L270.646 478.631Z" fill="#455A64"/>
<path d="M243.655 431.845H84.1289V432.919H243.655V431.845Z" fill="white"/>
<path d="M210.542 437.647H84.1289V438.721H210.542V437.647Z" fill="white"/>
<path d="M230.528 449.251H84.1289V450.325H230.528V449.251Z" fill="white"/>
<path d="M243.655 455.069H84.1289V456.143H243.655V455.069Z" fill="white"/>
<path d="M243.655 460.872H84.1289V461.946H243.655V460.872Z" fill="white"/>
<path d="M199.466 466.674H84.1289V467.748H199.466V466.674Z" fill="white"/>
<path d="M270.647 184.598H90.4922V232.329H270.647V184.598Z" fill="#DBDBDB"/>
<path d="M73.8086 232.329H90.4937V214.955L73.8086 232.329Z" fill="#DBDBDB"/>
<path d="M233.864 193.413H101.008V194.486H233.864V193.413Z" fill="white"/>
<path d="M260.534 199.215H101.008V200.289H260.534V199.215Z" fill="white"/>
<path d="M260.534 205.017H101.008V206.091H260.534V205.017Z" fill="white"/>
<path d="M247.904 210.819H101.008V211.893H247.904V210.819Z" fill="white"/>
<path d="M260.534 216.638H101.008V217.712H260.534V216.638Z" fill="white"/>
<path d="M218.878 222.439H101.008V223.513H218.878V222.439Z" fill="white"/>
<path d="M270.647 240.054H90.4922V275.46H270.647V240.054Z" fill="#DBDBDB"/>
<path d="M73.8086 275.444H90.4937V258.07L73.8086 275.444Z" fill="#DBDBDB"/>
<path d="M260.246 248.87H101.008V249.944H260.246V248.87Z" fill="white"/>
<path d="M232.069 254.672H101.008V255.746H232.069V254.672Z" fill="white"/>
<path d="M245.244 260.474H101.008V261.548H245.244V260.474Z" fill="white"/>
<path d="M212.258 266.276H101.008V267.35H212.258V266.276Z" fill="white"/>
<path d="M270.647 358.886H90.4922V408.781H270.647V358.886Z" fill="#DBDBDB"/>
<path d="M73.8086 408.781H90.4937V391.406L73.8086 408.781Z" fill="#DBDBDB"/>
<path d="M251.655 384.931H101.008V386.005H251.655V384.931Z" fill="white"/>
<path d="M239.393 390.733H101.008V391.807H239.393V390.733Z" fill="white"/>
<path d="M242.968 373.327H101.008V374.401H242.968V373.327Z" fill="white"/>
<path d="M258.547 367.525H101.008V368.599H258.547V367.525Z" fill="white"/>
<path d="M244.298 396.551H101.008V397.625H244.298V396.551Z" fill="white"/>
<path d="M270.647 493.36H90.4922V534.905H270.647V493.36Z" fill="#DBDBDB"/>
<path d="M73.8086 534.905H90.4937V517.531L73.8086 534.905Z" fill="#DBDBDB"/>
<path d="M260.534 501.792H101.008V502.865H260.534V501.792Z" fill="white"/>
<path d="M260.534 507.593H101.008V508.667H260.534V507.593Z" fill="white"/>
<path d="M247.904 513.412H101.008V514.485H247.904V513.412Z" fill="white"/>
<path d="M260.534 519.213H101.008V520.287H260.534V519.213Z" fill="white"/>
<path d="M218.878 525.016H101.008V526.09H218.878V525.016Z" fill="white"/>
<path d="M250.947 595.924H163.162C159.203 559.508 151.414 474.464 146.525 420.658C146.525 419.872 146.397 419.055 146.317 418.302C146.028 415.016 145.74 411.891 145.467 408.829C143.528 387.384 142.262 373.247 142.262 373.247H222.514C222.521 373.316 222.521 373.386 222.514 373.455C222.77 375.299 224.341 387.512 226.649 405.511C233.22 456.512 245.69 553.802 250.947 595.924Z" fill="#37474F"/>
<path d="M180.361 595.924H179.015C178.726 593.888 178.422 591.869 178.085 589.849C177.556 586.483 176.995 583.117 176.482 579.751C175.179 571.802 173.934 563.846 172.748 555.886C171.978 550.901 171.257 545.9 170.552 540.9C164.461 496.983 160.021 452.874 156.127 408.701C156.117 408.621 156.117 408.54 156.127 408.46C155.95 406.681 155.79 404.886 155.646 403.107C155.085 396.696 154.54 390.285 154.043 383.874C154.043 383.665 154.331 383.665 154.364 383.874C154.941 389.563 155.534 395.269 156.095 400.959C156.303 403.043 156.511 405.127 156.736 407.21C156.736 407.659 156.736 408.092 156.864 408.525C158.996 429.714 161.127 450.887 163.435 472.043C166.272 497.961 169.414 523.862 173.18 549.667C173.18 549.923 173.261 550.164 173.293 550.436C174.895 562.105 177.011 573.725 178.806 585.361C179.351 588.823 179.88 592.382 180.361 595.924Z" fill="#263238"/>
<path d="M210.958 373.247L205.893 406.617L200.139 444.427L199.786 446.864L198.809 453.275L198.729 453.74L198.424 455.471L178.726 585.297L178.036 589.865L177.107 595.94H162.185C155.918 560.839 141.685 480.538 132.132 426.604C132.132 426.107 131.972 425.61 131.876 425.13C130.882 419.536 129.952 414.263 129.087 409.358C125.24 387.624 122.676 373.263 122.676 373.263L210.958 373.247Z" fill="#263238"/>
<path d="M222.61 373.166V373.455C222.29 375.667 220.158 389.371 216.504 406.12C213.298 420.738 208.955 437.711 203.601 451.335L203.329 452.056C203.329 452.056 201.726 452.553 198.777 453.659C197.639 454.108 196.276 454.653 194.738 455.342L193.135 456.063C190.106 457.426 186.467 459.173 182.348 461.352L179.719 462.779V463.308C179.335 468.453 176.129 510.318 173.308 549.49C173.164 551.59 173.004 553.706 172.86 555.789C171.786 570.551 170.808 584.64 170.071 595.859H88.0234C91.4053 553.161 100.557 461.368 105.766 409.935C107.994 387.752 109.517 373.07 109.517 373.07L222.61 373.166Z" fill="#37474F"/>
<path d="M118.476 385.572C117.846 393.618 117.232 401.67 116.633 409.726C114.998 431.471 113.326 453.216 111.616 474.96C108.347 515.254 104.789 555.645 100.653 595.923H99.3711C101.188 578.485 102.881 561.036 104.452 543.576C108.539 499.002 112.242 454.38 115.848 409.758C116.489 401.691 117.135 393.629 117.787 385.572C117.835 385.139 118.509 385.139 118.476 385.572Z" fill="#263238"/>
<path d="M207.322 449.972C197.734 453.463 188.467 457.78 179.626 462.875C179.563 462.917 179.518 462.98 179.497 463.052C179.476 463.125 179.481 463.202 179.512 463.271C179.543 463.34 179.597 463.396 179.664 463.429C179.732 463.462 179.809 463.47 179.882 463.452C189.211 459.445 198.731 455.614 207.819 451.094C207.968 451.029 208.084 450.906 208.143 450.754C208.202 450.603 208.198 450.434 208.132 450.285C208.066 450.136 207.944 450.02 207.792 449.961C207.64 449.903 207.471 449.907 207.322 449.972Z" fill="#263238"/>
<path d="M210.287 385.941C210.287 385.62 209.694 385.556 209.694 385.941C209.682 396.353 209.147 406.757 208.091 417.115C207.658 421.924 203.78 448.482 195.445 446.543C194.051 446.222 193.345 444.844 193.121 442.744C192.864 440.212 193.81 437.118 194.227 434.602C195.156 429.04 195.83 423.382 196.375 417.836C197.345 407.381 197.232 396.854 196.038 386.422C196.038 386.349 196.009 386.28 195.958 386.229C195.907 386.178 195.838 386.149 195.766 386.149C195.693 386.149 195.624 386.178 195.573 386.229C195.522 386.28 195.493 386.349 195.493 386.422C195.74 400.922 194.894 415.42 192.961 429.793C191.919 436.701 188.441 447.104 195.669 448.177C202.898 449.251 207.787 431.829 208.684 427.069C210.996 413.486 211.535 399.662 210.287 385.941Z" fill="#263238"/>
<path d="M195.717 447.232C194.973 449.022 194.347 450.858 193.842 452.73C193.302 454.18 193.041 455.719 193.073 457.266C193.073 457.554 193.49 457.586 193.65 457.378C194.504 456.016 195.152 454.537 195.573 452.986C196.214 451.271 196.888 449.588 197.465 447.873C197.55 447.641 197.539 447.385 197.435 447.162C197.332 446.938 197.143 446.764 196.912 446.679C196.68 446.594 196.424 446.605 196.2 446.708C195.976 446.812 195.803 447 195.717 447.232Z" fill="#263238"/>
<path d="M158.002 394.644C158.014 393.486 157.896 392.33 157.649 391.198C157.638 391.162 157.615 391.131 157.585 391.108C157.555 391.086 157.518 391.074 157.481 391.074C157.443 391.074 157.407 391.086 157.376 391.108C157.346 391.131 157.324 391.162 157.312 391.198C157.071 392.174 156.942 393.174 156.928 394.179C156.8 395.317 156.655 396.455 156.527 397.609C156.289 399.949 155.882 402.268 155.309 404.549C154.241 408.867 152.026 412.816 148.898 415.977C145.813 419.03 142.152 421.438 138.127 423.062C133.655 424.969 128.943 425.674 124.327 427.037C124.291 427.048 124.26 427.07 124.237 427.1C124.215 427.131 124.203 427.167 124.203 427.205C124.203 427.242 124.215 427.279 124.237 427.309C124.26 427.34 124.291 427.362 124.327 427.373C129.456 427.368 134.534 426.366 139.281 424.424C143.484 422.854 147.308 420.412 150.501 417.259C153.713 414.008 155.974 409.94 157.04 405.495C157.831 401.936 158.117 398.283 157.889 394.644H158.002Z" fill="#263238"/>
<path d="M98.6526 410.111C98.9892 410.464 236.622 406.12 237.824 404.662C239.426 402.61 210.047 265.923 186.662 236.977C180.812 229.748 161.114 227.793 153.388 235.823C130.949 259.096 126.91 275.733 121.557 291.216C117.582 302.692 113.062 322.134 109.103 342.056C102.563 374.866 97.4506 408.861 98.6526 410.111Z" fill="#37474F"/>
<path d="M179.978 254.303C174.272 255.425 160.744 246.481 154.718 238.131C154.317 237.554 154.445 230.966 154.237 222.952C154.093 218.144 153.804 212.695 153.195 207.774L184.979 211.428C183.988 217.79 183.773 224.248 184.338 230.662C184.438 231.336 184.593 232.001 184.802 232.649C184.802 232.745 184.802 232.842 184.899 232.97C185.989 236.769 188.906 252.556 179.978 254.303Z" fill="#AD6359"/>
<path d="M184.8 232.681C184.8 232.777 184.8 232.874 184.897 233.002C183.846 233.284 182.774 233.478 181.691 233.579C164.06 235.342 157.152 214.506 155.453 208.03L184.945 211.428C183.944 217.789 183.724 224.248 184.287 230.662C184.402 231.348 184.573 232.024 184.8 232.681Z" fill="#263238"/>
<path d="M147.471 166.149C144.137 177.177 150.035 209.008 157.889 216.093C169.285 226.351 187.893 227.312 196.596 213.608C205.043 200.337 196.596 159.001 187.845 152.574C174.927 143.101 152.391 149.817 147.471 166.149Z" fill="#AD6359"/>
<path d="M176.77 183.828C176.77 183.748 176.625 183.972 176.641 184.052C177.122 186.184 177.315 188.701 175.52 189.774C175.52 189.774 175.52 189.919 175.52 189.903C177.86 189.101 177.587 185.767 176.77 183.828Z" fill="#263238"/>
<path d="M174.382 181.969C170.888 182.37 171.946 189.326 175.183 188.957C178.421 188.588 177.347 181.632 174.382 181.969Z" fill="#263238"/>
<path d="M189.449 181.44C189.449 181.44 189.625 181.52 189.641 181.6C189.897 183.764 190.571 186.2 192.622 186.617C192.622 186.617 192.702 186.745 192.622 186.745C190.202 186.777 189.352 183.475 189.449 181.44Z" fill="#263238"/>
<path d="M191.022 178.892C194.452 178.106 195.83 185.014 192.625 185.752C189.419 186.489 188.153 179.565 191.022 178.892Z" fill="#263238"/>
<path d="M171.466 178.667C172.364 178.282 173.069 177.77 174.015 177.305C174.98 176.952 175.798 176.286 176.339 175.413C176.459 175.111 176.475 174.776 176.385 174.463C176.296 174.15 176.104 173.876 175.842 173.682C175.261 173.375 174.608 173.228 173.951 173.259C173.294 173.29 172.657 173.497 172.108 173.859C170.881 174.419 169.905 175.412 169.367 176.648C169.266 176.937 169.25 177.25 169.321 177.548C169.393 177.846 169.548 178.118 169.769 178.331C169.99 178.543 170.268 178.688 170.568 178.748C170.869 178.807 171.181 178.779 171.466 178.667Z" fill="#263238"/>
<path d="M194.273 177.064C193.351 177.341 192.415 177.571 191.469 177.754C190.512 178.128 189.459 178.179 188.471 177.898C188.185 177.751 187.954 177.516 187.812 177.227C187.671 176.938 187.626 176.611 187.686 176.295C187.917 175.68 188.308 175.138 188.817 174.724C189.327 174.31 189.938 174.039 190.587 173.939C191.879 173.537 193.274 173.634 194.498 174.211C194.751 174.365 194.957 174.587 195.092 174.851C195.228 175.115 195.287 175.411 195.264 175.707C195.24 176.003 195.135 176.286 194.961 176.526C194.786 176.766 194.548 176.952 194.273 177.064Z" fill="#263238"/>
<path d="M177.844 204.136C178.437 204.568 179.046 205.178 179.847 205.129C180.645 204.991 181.404 204.685 182.075 204.232C182.075 204.232 182.219 204.232 182.187 204.328C181.946 204.799 181.582 205.197 181.133 205.479C180.685 205.761 180.168 205.917 179.639 205.931C179.186 205.891 178.755 205.717 178.401 205.432C178.047 205.146 177.786 204.762 177.651 204.328C177.587 204.152 177.748 204.072 177.844 204.136Z" fill="#263238"/>
<path d="M179.192 197.34C179.871 198.108 180.701 198.728 181.631 199.161C182.56 199.594 183.569 199.831 184.594 199.856C185.477 199.863 186.356 199.744 187.206 199.504L187.703 199.375L188.168 199.231C188.28 199.189 188.376 199.112 188.439 199.01C188.503 198.909 188.532 198.789 188.521 198.67C188.528 198.595 188.528 198.52 188.521 198.446V198.253C188.312 196.651 187.767 194.086 187.767 194.086C188.424 194.294 191.726 195.224 191.534 194.359C189.931 187.242 188.328 179.34 185.299 172.593C185.203 172.368 184.85 172.464 184.914 172.705C186.1 179.597 188.505 186.232 189.819 193.14C188.642 192.797 187.423 192.619 186.197 192.611C185.972 192.724 187.335 197.42 187.367 198.173C187.376 198.199 187.376 198.228 187.367 198.253C186.02 198.61 184.615 198.689 183.238 198.485C181.86 198.281 180.538 197.799 179.353 197.067C179.192 197.019 178.968 197.179 179.192 197.34Z" fill="#263238"/>
<path d="M186.066 198.878C185.33 200.192 184.271 201.295 182.989 202.084C182.276 202.497 181.452 202.676 180.633 202.597C178.838 202.404 178.565 200.834 178.661 199.391C178.733 198.644 178.889 197.907 179.126 197.195C181.199 198.486 183.632 199.076 186.066 198.878Z" fill="#263238"/>
<path d="M182.989 202.116C182.276 202.529 181.452 202.708 180.633 202.629C178.838 202.437 178.565 200.866 178.661 199.423C179.581 199.319 180.508 199.528 181.294 200.016C182.08 200.505 182.677 201.245 182.989 202.116Z" fill="#FF9BBC"/>
<path opacity="0.2" d="M147.808 188.829C149.924 187.563 153.482 179.966 155.085 176.856C156.687 173.747 155.341 159.225 154.828 155.042C151.453 157.831 148.95 161.531 147.616 165.701C146.093 170.653 146.333 179.661 147.808 188.829Z" fill="#263238"/>
<path d="M183.824 163.345C182.787 164.943 181.36 166.252 179.678 167.146C177.995 168.041 176.112 168.492 174.207 168.458C172.262 168.431 170.357 167.906 168.673 166.932C166.989 165.958 165.583 164.568 164.59 162.896C164.575 162.88 164.555 162.871 164.534 162.868C164.513 162.865 164.491 162.87 164.472 162.881C164.454 162.892 164.44 162.909 164.432 162.929C164.424 162.949 164.424 162.971 164.43 162.992C165.308 164.847 166.678 166.425 168.39 167.555C170.103 168.686 172.093 169.325 174.143 169.403C176.159 169.38 178.134 168.826 179.868 167.796C181.601 166.766 183.032 165.297 184.016 163.537C184.145 163.345 184 163.2 183.824 163.345Z" fill="#263238"/>
<path d="M168.676 137.571C162.265 138.581 156.88 142.925 155.117 147.605C154.152 150.265 154.113 153.173 155.005 155.859C155.005 155.971 155.261 155.859 155.245 155.859C154.784 153.431 154.988 150.924 155.834 148.602C156.68 146.28 158.138 144.23 160.053 142.668C162.124 140.873 164.582 139.582 167.234 138.895C169.887 138.208 172.663 138.145 175.344 138.709C177.948 139.217 180.287 140.631 181.948 142.7C182.108 142.909 182.573 142.7 182.428 142.476C180.104 138.597 174.463 136.674 168.676 137.571Z" fill="#263238"/>
<path d="M207.802 146.451C206.323 143.428 203.826 141.022 200.75 139.655C196.487 137.764 192.079 138.709 187.735 139.767C187.607 139.767 187.655 139.975 187.735 139.943C191.454 139.062 195.269 138.341 198.955 139.703C202.013 140.757 204.608 142.843 206.296 145.601C207.963 148.447 208.544 151.8 207.931 155.041C207.318 158.282 205.553 161.191 202.962 163.232C201.446 164.366 199.715 165.179 197.873 165.62C196.032 166.061 194.12 166.121 192.255 165.797C192.111 165.797 192.031 165.989 192.255 166.021C194.793 166.566 197.432 166.392 199.876 165.52C202.32 164.648 204.473 163.113 206.093 161.085C207.713 159.057 208.735 156.618 209.046 154.042C209.356 151.465 208.942 148.853 207.851 146.499L207.802 146.451Z" fill="#263238"/>
<path d="M146.543 172.432C146.543 172.432 138.945 161.757 143.177 154.433C145.581 150.297 155.214 149.624 155.214 149.624C156.233 147.575 157.647 145.747 159.374 144.245C161.101 142.743 163.108 141.597 165.279 140.873C173.069 137.988 183.199 141.434 183.199 141.434C183.199 141.434 190.251 136.081 197.912 139.222C208.587 143.614 209.324 158.92 199.948 165.091C193.36 169.419 183.006 164.45 183.006 164.45C182.109 164.69 173.389 171.583 165.263 164.113C165.263 164.113 160.15 170.012 154.492 167.079C153.868 168.673 152.772 170.039 151.352 170.995C149.932 171.951 148.255 172.452 146.543 172.432Z" fill="#263238"/>
<path d="M154.33 192.083C154.33 192.083 146.909 181.953 142.293 184.63C137.677 187.306 143.431 202.1 148.961 204.007C149.656 204.301 150.403 204.451 151.157 204.448C151.911 204.445 152.657 204.288 153.349 203.989C154.041 203.689 154.666 203.252 155.184 202.704C155.703 202.157 156.105 201.509 156.366 200.802L154.33 192.083Z" fill="#AD6359"/>
<path d="M144.043 188.829C144.043 188.829 143.947 188.941 144.043 188.973C147.922 190.447 150.021 193.958 151.528 197.628C151.296 197.247 150.984 196.921 150.614 196.672C150.243 196.423 149.823 196.258 149.382 196.188C148.942 196.118 148.491 196.144 148.062 196.266C147.632 196.387 147.234 196.6 146.896 196.891C146.8 196.891 146.896 197.115 147.008 197.099C147.678 196.866 148.403 196.847 149.084 197.046C149.764 197.244 150.367 197.649 150.807 198.205C151.543 199.136 152.172 200.147 152.682 201.218C152.874 201.555 153.499 201.363 153.355 200.962C153.291 195.977 149.332 189.197 144.043 188.829Z" fill="#263238"/>
<path d="M184.832 231.64L180.024 250.985L154.026 231.015L148.625 239.349C148.625 239.349 176.033 273.008 175.873 271.405L181.21 254.56L193.632 264.016L188.823 236.576L184.832 231.64Z" fill="#EBEBEB"/>
<path d="M192.157 250.264C191.211 245.76 190.394 241.192 189.256 236.737C189.256 236.576 188.951 236.544 188.935 236.737C188.647 241.256 192.317 258.454 192.878 262.622C192.349 262.205 181.418 254.367 181.354 254.528C180.072 257.268 176.145 269.53 175.904 270.636C171.577 265.282 155.068 245.921 150.164 240.984C150.138 240.95 150.1 240.927 150.058 240.921C150.016 240.915 149.973 240.926 149.939 240.952C149.905 240.977 149.883 241.015 149.877 241.057C149.871 241.1 149.882 241.142 149.907 241.176C153.882 246.914 175.744 273.024 176.017 272.912C178.171 267.081 180.022 261.143 181.562 255.121C183.47 256.884 194.657 265.891 194.593 265.202C194.039 260.184 193.226 255.198 192.157 250.264Z" fill="#263238"/>
<path d="M341.281 201.395C328.683 253.31 324.852 269.049 338.813 272.447C352.773 275.845 356.556 260.073 369.17 208.159L341.281 201.395Z" fill="#EBEBEB"/>
<path d="M341.281 201.395C338.412 213.817 335.431 226.222 332.866 238.692C331.492 244.905 330.624 251.22 330.269 257.573C330.048 260.715 330.541 263.866 331.712 266.789C332.358 268.192 333.365 269.397 334.629 270.283C335.922 271.142 337.362 271.756 338.877 272.094C340.383 272.48 341.947 272.589 343.493 272.415C345.017 272.2 346.456 271.58 347.66 270.62C350.009 268.547 351.87 265.98 353.109 263.103C355.724 257.301 357.868 251.297 359.521 245.151C362.999 232.89 365.932 220.484 369.025 208.111L369.169 208.383L341.281 201.395ZM341.281 201.395L369.217 207.95H369.426V208.175C366.429 220.564 363.544 232.986 360.13 245.28C358.53 251.475 356.434 257.532 353.863 263.391C352.587 266.393 350.64 269.063 348.173 271.197C346.852 272.215 345.289 272.873 343.637 273.104C342.025 273.272 340.396 273.148 338.828 272.736C337.229 272.362 335.709 271.705 334.341 270.796C332.988 269.832 331.915 268.527 331.231 267.014C330.033 263.996 329.535 260.747 329.773 257.509C330.172 251.126 331.083 244.785 332.497 238.548C334.966 226.094 338.187 213.753 341.281 201.395Z" fill="#263238"/>
<path d="M323.77 325.698L327.695 326.651L343.211 262.762L339.286 261.808L323.77 325.698Z" fill="#EBEBEB"/>
<path d="M302.672 326.077L346.268 336.671L326.057 324.875L302.672 326.077Z" fill="#EBEBEB"/>
<path d="M339.856 268.151C334.471 266.837 331.169 262.109 337.147 232.313C338.182 234.347 339.735 236.072 341.651 237.313C344.761 238.788 352.999 229.62 359.955 231.319C359.955 231.319 352.406 271.196 339.856 268.151Z" fill="#37474F"/>
<path d="M142.678 279.371C161.912 319.713 191.868 359.623 203.777 361.707C216.872 363.999 268.129 357.556 292.876 346.047C299.4 343.018 274.22 290.751 267.103 293.7C253.415 299.39 213.906 313.463 206.63 311.828C199.898 310.321 185.906 291.6 161.864 271.565C143.463 256.211 132.901 258.807 142.678 279.371Z" fill="#AD6359"/>
<path d="M257.586 298.444C257.586 298.444 276.547 284.9 289.369 276.63C296.518 272.014 309.485 265.186 316.296 264.192C326.474 262.718 369.974 263.022 370.134 273.585C370.279 283.201 332.917 278.121 332.917 278.121C332.917 278.121 371.064 279.852 369.109 291.376C367.153 302.9 325.705 291.632 325.705 291.632C325.705 291.632 364.861 294.293 360.966 305.865C358.017 314.6 319.903 306.506 319.903 306.506C319.903 306.506 353.561 309.022 350.901 318.142C347.984 328.224 312.338 322.951 312.338 322.951C301.727 345.021 293.36 347.986 282.141 350.198C279.528 350.759 257.586 298.444 257.586 298.444Z" fill="#AD6359"/>
<path d="M321.569 276.807C349.762 275.941 363.851 284.147 363.434 284.003C353.545 280.653 337.565 278.826 333.109 278.393C328.654 277.961 326.009 277.416 321.553 276.983C321.441 276.967 321.457 276.823 321.569 276.807Z" fill="#263238"/>
<path d="M317.88 292.77C329.269 291.911 340.72 293.083 351.699 296.232C352.116 296.376 351.956 296.521 351.507 296.456C345.849 295.735 323.538 293.347 317.848 292.914C317.784 292.898 317.8 292.786 317.88 292.77Z" fill="#263238"/>
<path d="M313.828 306.314C322.665 305.826 331.515 306.995 339.922 309.76C340.339 309.872 340.082 310.096 339.633 310.016C330.978 308.718 324.198 307.628 313.812 306.618C313.62 306.602 313.604 306.314 313.828 306.314Z" fill="#263238"/>
<path d="M262.201 294.277L282.909 355.712C282.909 355.712 214.807 374.337 197.416 362.957C180.026 351.577 154.269 309.648 141.318 282.448C128.368 255.249 141.014 253.422 159.414 266.629C177.814 279.836 201.632 306.699 205.398 309.68C209.165 312.661 262.201 294.277 262.201 294.277Z" fill="#37474F"/>
<path d="M258.352 328.993C259.955 333.674 266.094 352.362 267.969 356.866C267.969 356.946 268.113 356.866 268.097 356.866C267.088 352.17 261.446 333.513 259.923 328.817C257.123 319.388 253.833 310.111 250.066 301.025C250.046 300.998 250.018 300.978 249.985 300.968C249.953 300.958 249.919 300.958 249.887 300.969C249.855 300.979 249.827 301 249.808 301.027C249.788 301.054 249.777 301.087 249.777 301.121C252.053 310.593 255.339 319.713 258.352 328.993Z" fill="#263238"/>
<path d="M230.306 365.858C225.143 366.606 219.929 366.954 214.711 366.9C209.445 367.013 204.204 366.137 199.26 364.319C196.84 363.22 194.64 361.688 192.769 359.799C190.866 357.998 189.057 356.099 187.351 354.109C183.905 350.183 180.652 346.095 177.51 341.928C171.227 333.594 165.409 324.906 159.879 316.107C157.123 311.662 154.451 307.185 151.865 302.676C149.28 298.166 146.817 293.572 144.477 288.892C147.025 293.444 149.686 297.915 152.394 302.355C155.103 306.795 157.86 311.219 160.713 315.578C166.355 324.313 172.269 332.888 178.488 341.223C181.597 345.39 184.787 349.493 188.185 353.42C189.884 355.376 191.631 357.315 193.458 359.126C195.215 360.989 197.302 362.511 199.613 363.614C204.459 365.451 209.593 366.411 214.775 366.451C219.96 366.652 225.152 366.453 230.306 365.858Z" fill="#263238"/>
<path d="M144.426 295.319C145.984 296.507 147.462 297.797 148.85 299.182C150.244 300.544 151.574 301.938 152.873 303.429C152.022 302.929 151.218 302.355 150.468 301.714C149.715 301.089 148.994 300.432 148.289 299.743C146.88 298.378 145.588 296.898 144.426 295.319Z" fill="#263238"/>
<path d="M251.172 297.996C243.286 300.688 235.341 303.199 227.338 305.529C223.353 306.715 219.33 307.783 215.269 308.734C213.234 309.231 211.198 309.696 209.114 310.033C208.585 310.113 208.056 310.177 207.512 310.209C207.219 310.24 206.923 310.24 206.63 310.209C206.299 310.159 205.982 310.039 205.7 309.856C204.796 309.271 203.934 308.623 203.12 307.917C199.914 305.192 196.981 302.243 194 299.326C191.019 296.409 188.102 293.444 185.217 290.43C179.447 284.42 173.757 278.361 168.211 272.143L185.842 289.773C191.772 295.608 197.606 301.586 203.841 307.019C204.597 307.686 205.401 308.297 206.245 308.847C206.79 309.295 207.944 309.039 208.906 308.943C210.942 308.638 212.961 308.189 214.981 307.725C219.02 306.763 222.995 305.689 227.066 304.631C235.128 302.5 243.142 300.224 251.172 297.996Z" fill="#263238"/>
<path d="M172.926 274.194C173.899 275.189 174.735 276.31 175.41 277.528C176.121 278.735 176.661 280.035 177.013 281.39C176.578 280.849 176.177 280.281 175.811 279.691C175.426 279.114 175.09 278.521 174.737 277.928C174.044 276.729 173.438 275.481 172.926 274.194Z" fill="#263238"/>
<path d="M364.599 65.317C366.458 75.7352 375.626 84.2782 375.626 84.2782C375.626 84.2782 387.936 82.0182 395.1 74.2286C401.078 67.8174 401.094 58.8257 395.693 55.2996C387.935 50.2508 381.428 64.4195 381.428 64.4195C381.428 64.4195 383.56 48.9685 374.296 49.0487C367.836 49.1128 363.06 56.6299 364.599 65.317Z" fill="#37474F"/>
<path d="M324.771 97.774C331.182 102.15 340.414 101.717 340.414 101.717C340.414 101.717 345.559 94.0716 345.143 86.298C344.79 79.8067 340.11 75.2227 335.526 76.2645C328.874 77.7391 333.009 88.4618 333.009 88.4618C333.009 88.4618 325.973 79.3899 321.245 84.3105C317.895 87.7405 319.402 94.1197 324.771 97.774Z" fill="#37474F"/>
<path d="M363.031 23.3719C365.079 26.3684 367.928 28.7288 371.253 30.1838C374.343 28.2836 376.842 25.5579 378.466 22.3141C380.069 18.3391 378.61 14.3001 375.549 13.5628C371.141 12.5531 370.564 20.1343 370.564 20.1343C370.564 20.1343 368.961 12.7133 364.714 14.3161C361.781 15.4221 360.851 19.6534 363.031 23.3719Z" fill="#37474F"/>
</svg>
