<svg width="658" height="452" viewBox="0 0 658 452" fill="none" xmlns="http://www.w3.org/2000/svg">
<path d="M429.318 60.9336C429.039 61.4077 428.746 61.6441 428.439 61.6441C428.159 61.6441 427.895 61.5959 427.643 61.498C427.392 61.4007 427.015 61.2126 426.513 60.9339C424.754 59.9034 422.452 58.9005 419.605 57.925C418.348 57.5069 416.862 57.0681 415.146 56.6085C413.429 56.149 412.082 55.808 411.105 55.5848L411.398 60.9757C411.426 61.7279 411.524 62.3619 411.691 62.8773C411.859 63.3924 411.942 63.7196 411.942 63.8595C411.942 64.1657 411.789 64.4236 411.482 64.6325C411.175 64.8414 410.854 64.946 410.519 64.946C410.1 64.946 409.835 64.6536 409.724 64.0684C409.724 64.0123 409.688 63.7616 409.619 63.3161C409.549 62.87 409.514 62.2439 409.514 61.4355C409.514 60.9067 409.458 59.7781 409.347 58.0506C409.319 57.4654 409.291 56.9013 409.263 56.3581C409.235 55.8147 409.221 55.3341 409.221 54.9164C409.138 54.8328 409.033 54.7355 408.907 54.6239C408.782 54.5129 408.677 54.3595 408.593 54.1643C408.509 53.9137 408.439 53.6493 408.384 53.3703C408.328 53.0921 408.3 52.8832 408.3 52.7433C408.3 52.5487 408.356 52.3953 408.468 52.2837C408.579 52.1727 408.746 52.0474 408.97 51.9077C408.803 44.9431 408.719 40.9587 408.719 39.9557C408.719 39.0643 408.733 38.2422 408.761 37.4902C408.788 36.7379 408.803 36.2363 408.803 35.9856C408.635 36.0137 408.133 36.0835 407.295 36.1945C406.458 36.3061 405.788 36.418 405.286 36.5288C403.499 36.9465 402.139 37.3436 401.203 37.7199C400.269 38.0959 399.368 38.5209 398.503 38.9945C398.252 39.1616 398.008 39.2943 397.77 39.3916C397.534 39.4897 397.303 39.5379 397.08 39.5379C396.857 39.5379 396.661 39.4336 396.493 39.2245C396.326 39.0156 396.242 38.7582 396.242 38.4514C396.242 37.9226 397.136 37.3094 398.922 36.6126C400.708 35.9167 402.648 35.3452 404.742 34.8991C405.914 34.6484 407.407 34.4328 409.221 34.2514C411.035 34.0705 412.724 33.98 414.287 33.98C416.967 33.98 419.249 34.2724 421.133 34.8576C423.017 35.4425 424.441 36.2649 425.404 37.3231C426.367 38.3821 426.848 39.5943 426.848 40.959C426.848 42.7142 426.346 44.2188 425.341 45.4724C424.336 46.7261 423.003 47.8126 421.342 48.732C419.681 49.6514 417.427 50.6962 414.581 51.8662C413.854 52.2005 413.136 52.5075 412.424 52.7857C411.713 53.0644 411.231 53.2598 410.98 53.3706C410.98 53.5377 410.994 53.663 411.022 53.7468C414.036 54.4156 417.009 55.1822 419.94 56.0452L420.819 56.2959C423.861 57.2153 426.108 57.9331 427.56 58.4482C429.01 58.9638 429.737 59.3883 429.737 59.7229C429.737 60.056 429.597 60.46 429.318 60.9336ZM423.54 38.4082C422.73 37.6285 421.51 36.9945 419.877 36.5069C418.244 36.0198 416.269 35.7756 413.952 35.7756C412.221 35.7756 411.133 35.8037 410.686 35.8592C410.658 36.0543 410.624 36.5139 410.582 37.2381C410.54 37.963 410.519 38.6872 410.519 39.4115L410.686 46.098L410.854 51.2799C411.105 51.2525 411.6 51.1198 412.34 50.8829C413.08 50.6465 413.701 50.4166 414.204 50.1934C417.748 48.7724 420.393 47.3452 422.138 45.9099C423.882 44.4751 424.754 42.8244 424.754 40.9576C424.754 40.0382 424.35 39.1886 423.54 38.4082Z" fill="#4E615F" stroke="#4E615F" stroke-width="2" stroke-miterlimit="10"/>
<path d="M444.808 57.9248C443.998 59.3455 442.854 60.5647 441.375 61.5814C439.895 62.5986 438.207 63.1067 436.309 63.1067C434.439 63.1067 433.057 62.5916 432.164 61.5603C431.27 60.5299 430.824 59.2482 430.824 57.7156C430.824 56.3784 431.068 54.721 431.557 52.7425C432.045 50.7646 432.736 48.9956 433.629 47.4353C433.685 47.3242 433.915 46.9129 434.32 46.2024C434.724 45.4919 435.178 44.9487 435.681 44.5724C436.183 44.1964 436.713 44.0083 437.272 44.0083C437.523 44.0083 437.753 44.0708 437.963 44.1964C438.172 44.3218 438.277 44.4824 438.277 44.677C438.277 44.7331 438.199 44.8652 438.046 45.0741C437.893 45.283 437.774 45.4436 437.69 45.5547C436.741 46.6973 435.974 47.8258 435.387 48.9398C434.606 50.3606 433.999 51.7679 433.566 53.1606C433.133 54.5542 432.917 56.0722 432.917 57.7159C432.917 59.9172 434.257 61.0172 436.937 61.0172C438.193 61.0172 439.358 60.6555 440.433 59.9307C441.507 59.2064 442.365 58.3218 443.008 57.2771C443.649 56.2323 443.971 55.2781 443.971 54.4145C443.971 53.4396 443.649 52.59 443.008 51.8652C442.365 51.1409 441.486 50.3752 440.37 49.5665C439.644 49.0377 439.114 48.6053 438.779 48.2711C438.444 47.9369 438.277 47.6587 438.277 47.4353C438.277 47.101 438.513 46.8293 438.988 46.6204C439.463 46.4115 440.02 46.307 440.663 46.307C441.025 46.307 441.263 46.3277 441.374 46.3698C441.486 46.4115 441.542 46.4886 441.542 46.5997C441.542 46.6558 441.493 46.7461 441.396 46.8714C441.297 46.9967 441.249 47.1013 441.249 47.1849C441.249 47.2684 441.528 47.5471 442.086 48.0207C443.202 48.9401 444.138 49.8738 444.892 50.8207C445.645 51.7682 446.022 52.8827 446.022 54.1638C446.022 55.2501 445.617 56.5037 444.808 57.9248Z" fill="#4E615F" stroke="#4E615F" stroke-width="2" stroke-miterlimit="10"/>
<path d="M475.497 63.253C475.273 63.4894 474.981 63.6083 474.618 63.6083C474.116 63.6083 473.864 63.3573 473.864 62.856C473.864 57.2288 473.683 52.9169 473.32 49.9218C472.957 46.9272 472.329 45.4293 471.436 45.4293C469.929 45.4293 467.723 50.6811 464.821 61.1843V61.2261C464.821 61.5603 464.709 61.8463 464.486 62.0827C464.262 62.3199 463.969 62.4379 463.607 62.4379C463.104 62.4379 462.853 62.187 462.853 61.6856C462.853 60.5716 462.909 58.8439 463.021 56.5037C463.132 53.8854 463.188 51.8231 463.188 50.3185C463.188 48.229 463.125 46.7455 463 45.8678C462.874 44.9902 462.602 44.5514 462.183 44.5514C461.234 44.5514 460.034 46.2856 458.583 49.7544C457.131 53.2231 455.61 57.3118 454.019 62.0199L453.642 63.1064C453.53 63.3845 453.37 63.6215 453.161 63.8169C452.952 64.0115 452.721 64.1094 452.47 64.1094C452.135 64.1094 451.911 64.0813 451.8 64.0258C451.688 63.9697 451.618 63.8023 451.591 63.5242C451.451 62.1595 451.339 60.3344 451.256 58.0495C451.2 57.4643 451.144 56.5031 451.089 55.1659C450.809 50.4579 450.558 47.2746 450.335 45.6166C450.111 43.9595 450 43.0328 450 42.8376C450 42.615 450.111 42.3506 450.335 42.0436C450.558 41.7374 450.767 41.584 450.963 41.584C451.409 41.584 451.772 41.9045 452.051 42.5452C452.191 42.8522 452.344 44.0778 452.512 46.2228C452.679 48.3684 452.818 51.0287 452.93 54.2048L453.139 60.5986C454.674 55.8624 456.265 51.5654 457.912 47.7061C459.559 43.8476 461.066 41.9179 462.434 41.9179C463.355 41.9179 463.983 42.5867 464.318 43.9239C464.653 45.2611 464.821 47.198 464.821 49.7328C464.821 51.07 464.793 52.9923 464.737 55.4999L464.695 57.4223C465.839 53.4384 466.977 50.0953 468.107 47.3926C469.238 44.6905 470.375 43.339 471.52 43.339C474.394 43.339 475.832 49.691 475.832 62.3956C475.832 62.7307 475.72 63.0158 475.497 63.253Z" fill="#4E615F" stroke="#4E615F" stroke-width="2" stroke-miterlimit="10"/>
<path d="M498.443 60.7453C498.638 60.9542 498.736 61.1286 498.736 61.2677C498.736 61.6019 498.596 61.9852 498.318 62.417C498.039 62.8485 497.759 63.0647 497.48 63.0647C497.005 63.0647 496.643 62.7723 496.392 62.1871C496.14 61.6022 496.015 60.9197 496.015 60.1394C496.015 59.4709 496.057 57.4647 496.14 54.1216L496.182 52.5334C496.182 51.8927 496.015 51.4332 495.68 51.1542C494.424 53.2717 493.252 55.1108 492.163 56.6706C491.074 58.2313 489.693 59.7006 488.018 61.0798C486.343 62.4588 484.585 63.1486 482.742 63.1486C481.849 63.1486 481.158 62.8696 480.67 62.3127C480.181 61.7556 479.938 61.0316 479.938 60.1397C479.938 59.0257 480.44 57.5003 481.445 55.5636C482.449 53.6275 483.733 51.6634 485.296 49.6712C486.859 47.6796 488.422 46.0423 489.986 44.7607C491.018 43.9248 491.841 43.3607 492.456 43.0682C493.07 42.7758 493.614 42.6294 494.089 42.6294C494.535 42.6294 494.995 42.769 495.47 43.0472C495.945 43.3262 496.35 43.7156 496.684 44.2173C497.019 44.7186 497.187 45.29 497.187 45.9305C497.187 46.7944 496.95 47.6165 496.475 48.3962L497.187 48.1873C497.494 48.1873 497.675 48.5634 497.731 49.3156C497.759 49.7618 497.794 50.6671 497.836 52.0321C497.878 53.3973 497.913 54.5259 497.941 55.417C497.968 56.3364 497.996 57.2283 498.024 58.0917C498.052 58.9556 498.08 59.638 498.108 60.1394C498.136 60.3345 498.247 60.5364 498.443 60.7453ZM487.683 59.22C489.078 58.106 490.327 56.7752 491.43 55.2288C492.533 53.6825 493.754 51.7811 495.094 49.5243C495.428 48.6884 495.596 47.7833 495.596 46.8078C495.596 46.2229 495.421 45.7148 495.073 45.2825C494.724 44.8509 494.257 44.6348 493.67 44.6348C492.972 44.6348 492.079 45.1089 490.99 46.0555C489.734 47.1146 488.408 48.5286 487.013 50.2973C485.617 52.0669 484.459 53.8148 483.538 55.542C482.617 57.2698 482.156 58.6345 482.156 59.6375C482.156 60.4733 482.547 60.8911 483.328 60.8911C484.836 60.8917 486.287 60.3345 487.683 59.22Z" fill="#4E615F" stroke="#4E615F" stroke-width="2" stroke-miterlimit="10"/>
<path d="M516.862 63.9631C516.582 64.1994 516.248 64.3183 515.857 64.3183C515.578 64.3183 515.34 64.2555 515.145 64.1302C514.95 64.0048 514.852 63.8304 514.852 63.6078C514.852 62.4658 514.936 60.6968 515.103 58.3005C515.271 55.7375 515.355 53.6062 515.355 51.9064C515.355 50.2628 515.305 48.9186 515.208 47.8736C515.11 46.8288 514.88 46.3064 514.517 46.3064C513.568 46.3064 512.529 47.4838 511.398 49.8377C510.268 52.1924 508.976 55.2913 507.526 59.1361L506.897 60.8078C506.786 61.0868 506.597 61.3091 506.332 61.4765C506.066 61.6437 505.794 61.7272 505.516 61.7272C505.181 61.7272 504.957 61.6997 504.846 61.6437C504.734 61.5881 504.664 61.421 504.636 61.1423L504.301 57.7153L503.673 51.6976C503.478 49.3019 503.24 47.2121 502.962 45.4288C502.878 45.011 502.836 44.6908 502.836 44.4676C502.836 44.0496 503.017 43.7089 503.38 43.4439C503.743 43.1795 504.161 43.0469 504.636 43.0469C504.915 43.0469 505.118 43.7153 505.243 45.0528C505.369 46.39 505.501 48.5496 505.641 51.5304L505.809 53.7455C506.032 56.5599 506.157 58.3426 506.186 59.0949C506.269 58.9278 506.346 58.7396 506.416 58.5307C506.485 58.3218 506.576 58.0919 506.688 57.8412C508.195 53.9413 509.612 50.6884 510.938 48.0833C512.263 45.4784 513.54 44.1757 514.769 44.1757C515.634 44.1757 516.227 44.907 516.548 46.3695C516.869 47.8323 517.072 49.7062 517.155 51.9903C517.239 54.5259 517.281 58.2316 517.281 63.1067C517.281 63.4407 517.141 63.7261 516.862 63.9631Z" fill="#4E615F" stroke="#4E615F" stroke-width="2" stroke-miterlimit="10"/>
<path d="M534.007 55.1665C533.434 56.0304 532.855 56.8107 532.269 57.5066C530.817 59.2619 529.512 60.6134 528.354 61.5603C527.196 62.5077 525.989 62.981 524.733 62.981C523.672 62.981 522.8 62.5215 522.116 61.6021C521.431 60.6827 521.09 59.6242 521.09 58.4261C521.09 56.6433 521.564 54.3867 522.514 51.656C523.462 48.9258 524.662 46.5576 526.114 44.5517C527.565 42.5454 529.017 41.5425 530.468 41.5425C531.082 41.5425 531.613 41.7659 532.06 42.2112C532.311 42.4619 532.548 42.7961 532.771 43.2142C532.994 43.632 533.107 44.0083 533.107 44.3425C533.107 44.8166 533.044 45.3665 532.918 45.9932C532.792 46.6201 532.66 46.9336 532.52 46.9336C532.241 46.9336 532.06 46.7808 531.976 46.4738C531.892 46.1676 531.836 45.7778 531.808 45.3037C531.725 44.5794 531.641 44.0988 531.557 43.8619C531.473 43.6255 531.348 43.5066 531.18 43.5066C529.868 43.5066 528.598 44.4193 527.37 46.2438C526.142 48.0689 525.137 50.1864 524.356 52.5961C523.574 55.0061 523.184 56.866 523.184 58.1751C523.184 60.0139 523.797 60.9333 525.026 60.9333C525.919 60.9333 526.735 60.7107 527.475 60.2649C528.214 59.8196 528.989 59.1927 529.798 58.3843C531.306 56.8522 532.478 55.5288 533.315 54.4142C533.371 54.3306 533.532 54.115 533.797 53.7665C534.062 53.4185 534.25 53.2441 534.362 53.2441C534.697 53.2441 534.865 53.3694 534.865 53.6204C534.865 53.7872 534.578 54.3032 534.007 55.1665Z" fill="#4E615F" stroke="#4E615F" stroke-width="2" stroke-miterlimit="10"/>
<path d="M553.834 52.7846C553.834 53.2859 553.464 54.387 552.725 56.0859C551.985 57.7857 550.868 59.3598 549.376 60.8083C547.882 62.2574 546.047 62.9813 543.87 62.9813C542.083 62.9813 540.59 62.4245 539.39 61.3096C538.19 60.1956 537.59 58.4822 537.59 56.1695C537.59 53.9964 538.092 51.8441 539.097 49.7129C540.102 47.5816 541.414 45.8406 543.033 44.4889C544.651 43.1379 546.326 42.4619 548.057 42.4619C549.089 42.4619 549.962 42.6918 550.674 43.1514C551.385 43.611 551.741 44.2733 551.741 45.1363C551.741 46.1118 551.19 47.0587 550.087 47.9781C548.984 48.8975 547.554 49.7059 545.796 50.4021C544.037 51.0989 542.223 51.6005 540.353 51.9067C540.018 53.1886 539.85 54.4423 539.85 55.6679C539.85 57.284 540.234 58.5377 541.002 59.429C541.769 60.321 542.865 60.7665 544.288 60.7665C546.437 60.7665 548.182 60.0005 549.522 58.4681C550.862 56.9361 551.978 55.2086 552.872 53.2862C552.927 53.1752 553.025 52.959 553.165 52.6385C553.304 52.3186 553.429 52.1579 553.541 52.1579C553.736 52.1576 553.834 52.3665 553.834 52.7846ZM549.166 44.5517C548.706 44.3007 548.168 44.1757 547.554 44.1757C546.493 44.1757 545.474 44.5245 544.498 45.2204C543.52 45.9172 542.704 46.753 542.048 47.728C541.392 48.7035 540.966 49.5668 540.771 50.3191C542.055 50.18 543.409 49.8177 544.833 49.2326C546.256 48.6477 547.449 48.007 548.412 47.3102C549.375 46.614 549.857 46.0425 549.857 45.5967C549.857 45.1509 549.627 44.8024 549.166 44.5517Z" fill="#4E615F" stroke="#4E615F" stroke-width="2" stroke-miterlimit="10"/>
<path d="M587.013 59.6171C586.077 60.9686 584.765 62.0689 583.077 62.9185C581.388 63.7681 579.469 64.1931 577.32 64.1931C575.505 64.1931 574.068 64.0468 573.008 63.7543C571.946 63.4619 571.417 63.0505 571.417 62.5214C571.417 62.2433 571.619 61.7764 572.024 61.1214C572.428 60.467 572.742 60.1392 572.966 60.1392C573.301 60.1392 573.468 60.209 573.468 60.3481C573.468 60.4317 573.419 60.5295 573.321 60.6406C573.223 60.7522 573.175 60.864 573.175 60.9748C573.175 61.0584 573.349 61.1837 573.698 61.3508C574.047 61.5179 574.584 61.6713 575.311 61.8104C576.036 61.9503 576.915 62.0193 577.948 62.0193C579.594 62.0193 581.039 61.6993 582.281 61.0581C583.523 60.4174 584.48 59.6098 585.149 58.6341C585.819 57.6591 586.154 56.7117 586.154 55.7923C586.154 54.5947 585.575 53.5637 584.417 52.6998C583.258 51.8365 581.395 51.0144 578.827 50.2343C576.343 49.4265 574.424 48.7508 573.07 48.2077C571.716 47.6643 570.621 46.9958 569.784 46.2017C568.946 45.4077 568.527 44.44 568.527 43.2971C568.527 41.7654 569.392 40.2538 571.123 38.7629C572.853 37.2726 574.989 36.0608 577.529 35.1271C580.068 34.1939 582.427 33.7271 584.604 33.7271C585.72 33.7271 586.321 33.9505 586.405 34.3958C586.488 34.8419 586.53 35.3432 586.53 35.9004C586.53 36.3184 586.376 36.5273 586.07 36.5273C585.93 36.5273 585.769 36.4791 585.588 36.381C585.406 36.2837 585.246 36.2074 585.107 36.1511C584.939 36.0955 584.744 36.04 584.52 35.9839C584.297 35.9284 583.976 35.9004 583.557 35.9004C582.106 35.9004 580.361 36.2764 578.324 37.0287C576.286 37.781 574.52 38.7147 573.027 39.8287C571.534 40.9432 570.788 42.016 570.788 43.0465C570.788 43.8823 571.129 44.6071 571.813 45.2195C572.497 45.8327 573.411 46.3551 574.556 46.7866C575.7 47.219 577.319 47.7551 579.412 48.3955C582.483 49.2875 584.751 50.2904 586.216 51.4044C587.681 52.519 588.414 53.8845 588.414 55.4998C588.415 56.8942 587.947 58.2662 587.013 59.6171Z" fill="#4E615F" stroke="#4E615F" stroke-width="2" stroke-miterlimit="10"/>
<path d="M604.01 55.1665C603.438 56.0304 602.859 56.8107 602.273 57.5066C600.821 59.2619 599.516 60.6134 598.358 61.5603C597.199 62.5077 595.993 62.981 594.736 62.981C593.675 62.981 592.803 62.5215 592.12 61.6021C591.435 60.6827 591.094 59.6242 591.094 58.4261C591.094 56.6433 591.568 54.3867 592.517 51.656C593.466 48.9258 594.666 46.5576 596.118 44.5517C597.569 42.5454 599.021 41.5425 600.472 41.5425C601.086 41.5425 601.617 41.7659 602.063 42.2112C602.315 42.4619 602.552 42.7961 602.775 43.2142C602.998 43.632 603.11 44.0083 603.11 44.3425C603.11 44.8166 603.047 45.3665 602.922 45.9932C602.796 46.6201 602.663 46.9336 602.524 46.9336C602.245 46.9336 602.063 46.7808 601.98 46.4738C601.896 46.1676 601.84 45.7778 601.812 45.3037C601.729 44.5794 601.645 44.0988 601.561 43.8619C601.477 43.6255 601.352 43.5066 601.184 43.5066C599.872 43.5066 598.602 44.4193 597.374 46.2438C596.146 48.0689 595.141 50.1864 594.36 52.5961C593.578 55.0061 593.187 56.866 593.187 58.1751C593.187 60.0139 593.801 60.9333 595.03 60.9333C595.923 60.9333 596.739 60.7107 597.479 60.2649C598.218 59.8196 598.992 59.1927 599.802 58.3843C601.309 56.8522 602.482 55.5288 603.319 54.4142C603.375 54.3306 603.535 54.115 603.801 53.7665C604.066 53.4185 604.254 53.2441 604.366 53.2441C604.701 53.2441 604.869 53.3694 604.869 53.6204C604.869 53.7872 604.582 54.3032 604.01 55.1665Z" fill="#4E615F" stroke="#4E615F" stroke-width="2" stroke-miterlimit="10"/>
<path d="M625.385 60.7453C625.58 60.9542 625.678 61.1286 625.678 61.2677C625.678 61.6019 625.538 61.9852 625.259 62.417C624.98 62.8485 624.701 63.0647 624.422 63.0647C623.947 63.0647 623.585 62.7723 623.333 62.1871C623.082 61.6022 622.956 60.9197 622.956 60.1394C622.956 59.4709 622.998 57.4647 623.082 54.1216L623.124 52.5334C623.124 51.8927 622.956 51.4332 622.622 51.1542C621.365 53.2717 620.193 55.1108 619.105 56.6706C618.016 58.2313 616.634 59.7006 614.96 61.0798C613.285 62.4588 611.527 63.1486 609.684 63.1486C608.79 63.1486 608.1 62.8696 607.612 62.3127C607.123 61.7556 606.879 61.0316 606.879 60.1397C606.879 59.0257 607.381 57.5003 608.386 55.5636C609.391 53.6275 610.675 51.6634 612.238 49.6712C613.801 47.6796 615.364 46.0423 616.927 44.7607C617.96 43.9248 618.783 43.3607 619.398 43.0682C620.011 42.7758 620.555 42.6294 621.03 42.6294C621.477 42.6294 621.937 42.769 622.412 43.0472C622.886 43.3262 623.291 43.7156 623.626 44.2173C623.961 44.7186 624.129 45.29 624.129 45.9305C624.129 46.7944 623.892 47.6165 623.417 48.3962L624.129 48.1873C624.436 48.1873 624.617 48.5634 624.673 49.3156C624.701 49.7618 624.736 50.6671 624.778 52.0321C624.82 53.3973 624.854 54.5259 624.882 55.417C624.91 56.3364 624.938 57.2283 624.966 58.0917C624.994 58.9556 625.022 59.638 625.05 60.1394C625.078 60.3345 625.189 60.5364 625.385 60.7453ZM614.625 59.22C616.02 58.106 617.269 56.7752 618.372 55.2288C619.474 53.6825 620.696 51.7811 622.036 49.5243C622.37 48.6884 622.538 47.7833 622.538 46.8078C622.538 46.2229 622.363 45.7148 622.014 45.2825C621.665 44.8509 621.198 44.6348 620.612 44.6348C619.914 44.6348 619.021 45.1089 617.932 46.0555C616.676 47.1146 615.35 48.5286 613.955 50.2973C612.559 52.0669 611.401 53.8148 610.48 55.542C609.559 57.2698 609.098 58.6345 609.098 59.6375C609.098 60.4733 609.489 60.8911 610.271 60.8911C611.778 60.8917 613.229 60.3345 614.625 59.22Z" fill="#4E615F" stroke="#4E615F" stroke-width="2" stroke-miterlimit="10"/>
<path d="M655.948 63.253C655.724 63.4894 655.431 63.6083 655.069 63.6083C654.566 63.6083 654.315 63.3573 654.315 62.856C654.315 57.2288 654.133 52.9169 653.77 49.9218C653.407 46.9272 652.779 45.4293 651.886 45.4293C650.379 45.4293 648.173 50.6811 645.271 61.1843V61.2261C645.271 61.5603 645.159 61.8463 644.936 62.0827C644.712 62.3199 644.419 62.4379 644.057 62.4379C643.554 62.4379 643.303 62.187 643.303 61.6856C643.303 60.5716 643.359 58.8439 643.471 56.5037C643.582 53.8854 643.638 51.8231 643.638 50.3185C643.638 48.229 643.575 46.7455 643.45 45.8678C643.324 44.9902 643.052 44.5514 642.633 44.5514C641.684 44.5514 640.483 46.2856 639.033 49.7544C637.581 53.2231 636.06 57.3118 634.469 62.0199L634.092 63.1064C633.98 63.3845 633.82 63.6215 633.611 63.8169C633.401 64.0115 633.171 64.1094 632.92 64.1094C632.585 64.1094 632.361 64.0813 632.25 64.0258C632.138 63.9697 632.068 63.8023 632.04 63.5242C631.9 62.1595 631.789 60.3344 631.705 58.0495C631.649 57.4643 631.594 56.5031 631.538 55.1659C631.259 50.4579 631.008 47.2746 630.784 45.6166C630.56 43.9595 630.449 43.0328 630.449 42.8376C630.449 42.615 630.56 42.3506 630.784 42.0436C631.007 41.7374 631.217 41.584 631.412 41.584C631.859 41.584 632.221 41.9045 632.501 42.5452C632.64 42.8522 632.794 44.0778 632.962 46.2228C633.129 48.3684 633.268 51.0287 633.38 54.2048L633.59 60.5986C635.124 55.8624 636.715 51.5654 638.363 47.7061C640.009 43.8476 641.517 41.9179 642.884 41.9179C643.806 41.9179 644.434 42.5867 644.769 43.9239C645.104 45.2611 645.271 47.198 645.271 49.7328C645.271 51.07 645.243 52.9923 645.187 55.4999L645.145 57.4223C646.29 53.4384 647.427 50.0953 648.558 47.3926C649.688 44.6905 650.825 43.339 651.97 43.339C654.844 43.339 656.282 49.691 656.282 62.3956C656.282 62.7307 656.171 63.0158 655.948 63.253Z" fill="#4E615F" stroke="#4E615F" stroke-width="2" stroke-miterlimit="10"/>
<path d="M65.7973 155.657L65.7405 155.377L65.7383 155.378L65.7973 155.657Z" fill="#929497"/>
<path d="M0.331476 428.14C0.118543 429.339 0 430.572 0 431.837C0 442.522 7.90548 451.183 17.6551 451.183H489.198C498.956 451.183 506.853 442.522 506.853 431.837C506.853 430.573 506.74 429.339 506.53 428.14H0.331476Z" fill="#4E615F"/>
<path d="M481.904 420.985C481.904 431.659 472.85 440.307 461.698 440.307H57.6394C46.4835 440.307 37.4336 431.659 37.4336 420.985V181.496C37.4336 170.813 46.4835 162.146 57.6394 162.146H461.698C472.85 162.146 481.904 170.813 481.904 181.496V420.985Z" fill="url(#paint0_linear_346_2818)"/>
<path opacity="0.7" d="M473.476 413.897C473.476 423.902 464.748 432.008 453.995 432.008H64.4523C53.697 432.008 44.9727 423.903 44.9727 413.897V189.431C44.9727 179.418 53.6975 171.294 64.4523 171.294H453.996C464.748 171.294 473.476 179.418 473.476 189.431L473.476 413.897Z" fill="#E6F5FF"/>
<path d="M432.191 326.271H320.476C317.404 326.271 314.891 328.679 314.891 331.622V385.905C314.891 388.849 317.404 391.256 320.476 391.256H329.921L325.361 409.706L353.99 391.256H432.191C435.263 391.256 437.777 388.849 437.777 385.905V331.622C437.778 328.679 435.263 326.271 432.191 326.271Z" fill="#EEEBE2"/>
<path d="M425.795 350.46H327.107C325.763 350.46 324.664 351.514 324.664 352.801C324.664 354.089 325.763 355.142 327.107 355.142H425.795C427.139 355.142 428.239 354.089 428.239 352.801C428.239 351.514 427.139 350.46 425.795 350.46Z" fill="#8C9998"/>
<path d="M425.795 360.939H327.107C325.763 360.939 324.664 361.993 324.664 363.28C324.664 364.568 325.763 365.621 327.107 365.621H425.795C427.139 365.621 428.239 364.568 428.239 363.28C428.239 361.993 427.139 360.939 425.795 360.939Z" fill="#8C9998"/>
<path d="M425.795 371.418H327.107C325.763 371.418 324.664 372.472 324.664 373.759C324.664 375.047 325.763 376.1 327.107 376.1H425.795C427.139 376.1 428.239 375.047 428.239 373.759C428.239 372.472 427.139 371.418 425.795 371.418Z" fill="#8C9998"/>
<path d="M167.345 227.609H296.017C299.556 227.609 302.45 230.383 302.45 233.773V296.295C302.45 299.685 299.556 302.459 296.017 302.459H285.138L290.39 323.708L257.416 302.459H167.345C163.806 302.459 160.91 299.685 160.91 296.295V233.773C160.911 230.383 163.807 227.609 167.345 227.609Z" fill="#EEEBE2"/>
<path d="M174.713 255.47H288.38C289.928 255.47 291.195 256.684 291.195 258.167C291.195 259.65 289.928 260.863 288.38 260.863H174.713C173.165 260.863 171.898 259.65 171.898 258.167C171.898 256.684 173.165 255.47 174.713 255.47Z" fill="#8C9998"/>
<path d="M174.713 267.539H288.38C289.928 267.539 291.195 268.753 291.195 270.236C291.195 271.719 289.928 272.932 288.38 272.932H174.713C173.165 272.932 171.898 271.719 171.898 270.236C171.898 268.753 173.165 267.539 174.713 267.539Z" fill="#8C9998"/>
<path d="M174.713 279.609H288.38C289.928 279.609 291.195 280.823 291.195 282.306C291.195 283.788 289.928 285.002 288.38 285.002H174.713C173.165 285.002 171.898 283.788 171.898 282.306C171.898 280.823 173.165 279.609 174.713 279.609Z" fill="#8C9998"/>
<path d="M242.282 338.489C238.154 333.82 231.015 333.376 226.338 337.497L225.156 338.538L223.975 337.497C219.297 333.376 212.159 333.82 208.03 338.489C203.902 343.158 204.347 350.283 209.024 354.404L225.156 368.616L241.288 354.404C245.965 350.283 246.41 343.157 242.282 338.489Z" fill="#4E615F"/>
<path d="M286.915 405.533C284.734 403.166 280.962 402.941 278.491 405.03L277.866 405.558L277.242 405.03C274.771 402.941 270.999 403.166 268.818 405.533C266.637 407.9 266.872 411.514 269.343 413.603L277.867 420.809L286.39 413.603C288.861 411.514 289.097 407.901 286.915 405.533Z" fill="#4E615F"/>
<path d="M454.175 300.832C451.709 298.043 447.445 297.777 444.651 300.239L443.945 300.861L443.24 300.239C440.446 297.777 436.182 298.043 433.716 300.832C431.25 303.62 431.516 307.876 434.31 310.338L443.946 318.827L453.582 310.338C456.375 307.876 456.641 303.62 454.175 300.832Z" fill="#4E615F"/>
<path d="M368.791 269.806C364.963 265.651 358.344 265.256 354.007 268.923L352.911 269.849L351.816 268.923C347.479 265.256 340.86 265.651 337.032 269.806C333.204 273.96 333.616 280.301 337.953 283.968L352.911 296.614L367.87 283.968C372.207 280.301 372.619 273.96 368.791 269.806Z" fill="#4E615F"/>
<path d="M450.061 210.181C441.302 200.676 426.157 199.771 416.233 208.161L413.727 210.28L411.22 208.161C401.297 199.771 386.151 200.675 377.393 210.181C368.634 219.687 369.578 234.194 379.502 242.585L413.727 271.521L447.952 242.585C457.875 234.194 458.82 219.687 450.061 210.181Z" fill="#4E615F"/>
<path d="M93.5198 202.519C90.7949 199.562 86.0834 199.28 82.9962 201.891L82.2164 202.55L81.4365 201.891C78.3493 199.28 73.6378 199.562 70.9129 202.519C68.1881 205.476 68.4816 209.989 71.5692 212.6L82.2164 221.602L92.8638 212.6C95.9511 209.989 96.2446 205.476 93.5198 202.519Z" fill="#4E615F"/>
<path d="M146.467 353.978C143.786 355.161 140.645 353.104 140.645 353.104L146.467 353.978Z" fill="#4E615F"/>
<path d="M241.248 63.9305C232.489 54.4246 217.344 53.5203 207.421 61.9102L204.914 64.0294L202.408 61.9102C192.484 53.52 177.339 54.4246 168.58 63.9305C159.821 73.4363 160.766 87.9436 170.689 96.3338L204.914 125.27L239.139 96.3338C249.063 87.9436 250.007 73.4361 241.248 63.9305Z" fill="#4E615F"/>
<path d="M370.433 131.219C367.069 139.139 367.733 140.509 367.733 140.509L368.124 141.675L368.255 142.075C364.44 144.096 360.325 144.765 352.083 144.993C343.853 145.22 336.562 141.23 336.562 141.23C336.562 141.23 332.601 142.508 333.264 142.159C336.89 140.248 337.635 139.156 337.546 136.975C337.487 135.42 337.652 135.258 337.546 133.047C337.507 132.263 337.425 132.391 336.998 125.35C336.556 118.069 333.903 109.684 333.903 109.684C333.903 109.684 331.231 113.915 329.482 117.407C327.841 120.682 325.979 123.757 325.32 124.875C325.368 122.992 324.934 122.747 324.01 120.631C323.849 120.255 323.675 119.878 323.484 119.496C322.087 116.561 321.092 116.175 319.344 113.527L319.739 110.618C323.425 99.8509 326.166 96.4455 327.935 94.4595C329.776 92.3913 332.972 91.2293 336.727 90.6916C338.823 90.3927 340.83 90.2973 342.357 90.4403C346.321 90.8169 358.228 92.8853 358.228 92.8853C358.228 92.8853 354.178 92.1802 357.879 92.7841C361.623 93.3943 360.039 93.313 364.384 94.7587C366.004 95.2979 367.654 96.088 371.98 101.295C376.43 106.65 373.11 124.924 370.433 131.219Z" fill="#4E615F"/>
<path d="M357.402 146.368C345.823 150.607 337.481 155.115 337.234 156.502C337.014 157.733 337.474 162.444 337.719 164.722H337.122C336.871 162.402 336.409 157.703 336.642 156.4C337.007 154.35 347.381 149.405 357.197 145.807C357.353 145.753 357.528 145.83 357.582 145.985C357.641 146.141 357.558 146.315 357.402 146.368Z" fill="#8C9998"/>
<path opacity="0.61" d="M311.883 182.131C311.956 189.162 310.613 201.718 310.613 201.718C310.441 201.871 310.039 202.117 309.558 202.392C309.618 198.23 309.589 191.08 308.613 183.554C307.242 172.942 299.234 161.882 299.234 161.882C299.234 161.882 311.584 161.923 316.825 161.23C322.066 160.536 336.643 156.399 336.643 156.399C336.643 156.399 337.271 161.918 337.391 164.721H305.523C309.416 167.711 311.811 175.113 311.883 182.131Z" fill="#4E615F"/>
<path d="M294.55 246.3L294.513 246.118L294.512 246.118L294.55 246.3Z" fill="#929497"/>
<path d="M349.004 64.0696C349.004 64.0696 340.288 63.3649 340.111 71.8163C339.956 79.1951 339.677 79.5927 343.12 85.2549C347.538 92.5216 350.795 90.5241 353.963 87.4535C355.47 85.9935 356.327 84.2161 357.587 82.2191C362.269 74.7977 363.941 65.2523 349.004 64.0696Z" fill="#EDA198"/>
<path d="M348.126 60.3054C339.652 61.7659 334.365 74.1949 338.766 82.1026C343.041 89.7831 341.426 89.7205 343.187 99.0924C343.39 95.2768 348.233 93.3356 346.762 90.7504C344.605 86.9567 346.649 89.5848 343.138 84.9065C341.456 82.6659 340.093 76.7796 341.377 74.3631C342.93 71.442 346.105 68.2514 349.137 67.8317C355.538 66.9456 359.752 73.3599 358.913 78.5856C358.341 82.1435 355.815 84.3617 354.922 88.0057C354.017 91.6967 353.134 96.003 353.862 99.8988C356.741 100.36 355.713 93.1226 356.892 91.1489C359.183 87.3145 363.259 82.0047 363.259 77.309C363.259 67.0797 359.752 60.0376 348.934 60.0376" fill="#4E615F"/>
<path d="M302.721 210.01C301.345 212.269 291.133 213.985 293.306 217.961C294.648 220.416 305.107 216.069 307.066 215.792C308.58 215.579 310.523 215.772 311.411 214.708C312.758 213.095 310.74 206.887 311.638 204.734C309.406 204.214 308.12 206.699 305.979 206.757" fill="#4E615F"/>
<path d="M336.992 213.016C336.015 215.474 326.235 218.872 329.044 222.428C330.778 224.624 340.361 218.591 342.246 217.991C343.703 217.527 345.651 217.394 346.348 216.196C347.405 214.38 344.565 209.565 345.089 207.291C342.802 207.152 341.76 208.849 339.66 209.264" fill="#4E615F"/>
<path d="M367.176 139.893C366.452 140.978 374.296 151.713 373.332 159.41C371.883 170.976 355.227 169.53 349.795 166.639C349.311 175.83 347.71 184.566 346.899 193.746C345.812 206.034 346.83 205.189 345.621 209.416C345.098 211.246 345.801 211.747 344.002 212.901C342.723 213.722 338.279 213.477 336.76 213.263C336.142 199.643 334.949 184.254 334.949 170.614C334.949 167.403 334.082 161.203 334.347 158.005C334.799 152.559 341.645 151.635 344.673 147.105C345.928 145.226 346.997 140.954 348.907 139.941C350.487 139.103 354.861 140.081 356.692 140.236C360.55 140.561 364.024 139.279 367.538 139.532" fill="#4E615F"/>
<path d="M338.53 137.629C336.114 140.354 331.126 141.978 328.898 142.766C321.26 145.465 312.587 145.575 304.724 147.635C299.536 148.994 290.128 149.529 288.599 155.435C287.797 158.532 290.252 165.044 291.425 167.74C294.212 174.141 296.177 180.75 298.005 187.303C299.949 194.268 302.457 202.205 304.532 208.926C306.472 209.156 308.746 206.96 310.693 206.989C313.787 205.665 311.664 189.056 310.687 183.264C310.033 179.386 309.009 176.513 308.153 172.422C307.524 169.419 303.066 163.146 306.342 164.109C314.262 166.435 338.931 163.386 333.137 164.109C320.123 165.732 335.452 164.297 338.931 163.386C341.017 162.839 341.235 160.846 343.638 160.494C346.316 160.102 344.433 158.906 346.401 156.942C348.694 154.653 350.512 151.181 352.798 148.821C355.333 146.205 357.564 142.711 357 138.864C350.482 139.878 346.764 134.183 340.17 136.647" fill="#4E615F"/>
<path d="M320.387 109.647C320.813 111.004 316.927 115.984 316.767 117.451C316.577 119.191 318.212 119.559 317.316 121.223C314.996 114.55 313.318 111.159 310.912 105.271C310.098 103.28 309.324 102.205 308.038 100.416C307.512 99.6846 304.642 96.9253 305.164 96.2243C305.568 95.682 302.653 91.1444 301.848 90.7081C298.187 88.7218 294.393 83.4182 295.438 92.4732C295.79 95.5301 299.879 97.0394 301.185 97.7687C302.986 98.7739 303.781 100.566 304.059 102.182C304.872 106.909 307.038 113.346 307.817 118.068C308.583 122.716 309.868 127.231 313.539 130.791C314.889 132.101 317.275 132.713 319.995 131.165C322.464 129.76 324.305 129.333 325.112 127.458C325.927 125.564 324.843 127.214 325.501 125.35C326.201 123.369 329.48 118.509 329.922 116.744C330.67 113.759 322.91 112.047 320.417 110.125" fill="#EDA198"/>
<path d="M211.108 57.6748C210.776 57.6742 210.506 57.9084 210.506 58.1983L210.488 67.0554C210.483 69.5116 208.189 71.5055 205.375 71.4999C205.364 71.4999 205.353 71.499 205.342 71.499L205.34 72.5485L205.341 72.5491C208.833 72.5712 211.685 70.1018 211.691 67.0576L211.708 58.2005C211.709 57.9109 211.44 57.6754 211.108 57.6748Z" fill="#4E615F" stroke="#4E615F" stroke-width="6" stroke-miterlimit="10"/>
<path d="M205.603 72.0123C205.602 72.358 205.28 72.6376 204.884 72.637C204.488 72.6362 204.167 72.3552 204.168 72.0095C204.169 71.6638 204.49 71.3842 204.887 71.3848C205.283 71.3856 205.603 71.6666 205.603 72.0123Z" fill="#092A4A"/>
<path d="M200.28 67.0347L200.29 61.6094L198.105 65.0916L199.08 65.6829L199.077 67.0322C199.072 69.8594 201.522 72.2001 204.669 72.5127C205.026 72.5483 205.341 72.3061 205.342 71.9923C205.342 71.7296 205.12 71.5005 204.821 71.4716C202.267 71.2249 200.275 69.3275 200.28 67.0347Z" fill="#4E615F" stroke="#4E615F" stroke-width="6" stroke-miterlimit="10"/>
<path d="M211.055 57.474L214.033 1.0127" stroke="#4E615F" stroke-width="6" stroke-miterlimit="10"/>
<path d="M321.553 134.421C311.773 78.159 283.733 31.3853 247.021 10.9918C236.704 5.26083 225.137 0.72631 214.031 1.01287C213.858 1.01736 213.779 1.43654 213.972 1.49122C223.43 4.15103 232.725 6.48025 241.879 11.0818C251.176 15.7559 260.077 22.067 268.349 29.9065C284.48 45.1952 297.974 66.2631 307.462 90.9335C312.795 104.798 317.89 119.321 319.563 135.095C320.59 144.768 321.883 136.314 321.553 134.421Z" fill="#4E615F"/>
<path d="M356.249 127.682C355.273 127.155 354.111 127.481 352.225 126.878C348.199 125.592 342.849 124.49 338.735 123.561C334.22 122.542 330.82 122.408 326.363 121.78C323.482 121.374 315.284 111.677 313.723 114.84C309.685 123.02 320.442 126.921 322.623 126.701C330.514 125.905 338.855 132.929 346.009 135.016C348.64 135.783 354.147 139.01 356.524 136.933C358.029 135.618 357.487 129.115 356.41 128.122" fill="#EDA198"/>
<path d="M295.672 87.1574C298.533 85.4924 302.415 88.1164 305.827 88.2807C309.771 97.1097 298.019 95.3578 297.432 87.7431" fill="#EDA198"/>
<path d="M340.092 77.0279C345.314 79.2447 354.422 79.5012 359.035 75.9341C359.341 82.1123 355.345 92.9144 351.366 93.7971C343.619 95.5153 342.524 86.7362 339.871 76.5866" fill="#4E615F"/>
<path d="M339.207 74.8213C344.085 74.5511 362.057 77.7932 359.765 70.1879C358.363 65.5339 352.977 63.932 348.944 63.7789C342.089 63.5187 340.6 67.4064 339.207 73.0563" fill="#4E615F"/>
<mask id="mask0_346_2818" style="mask-type:luminance" maskUnits="userSpaceOnUse" x="30" y="186" width="246" height="247">
<path d="M275.878 186.546H30.8398V432.799H275.878V186.546Z" fill="white"/>
</mask>
<g mask="url(#mask0_346_2818)">
<path d="M137.466 200.053C131.944 203.504 124.5 211.866 121.937 217.76C119.878 222.495 119.278 225.218 118.392 227.704C113.49 241.452 122.447 255.187 119.524 268.017C116.197 282.627 99.8025 279.346 94.6685 291.571C92.272 297.278 91.9066 306.995 85.6681 310.089C80.0543 312.873 69.3239 315.867 64.1234 319.775C49.633 330.664 37.6782 353.423 43.5796 372.861C48.1877 388.038 71.8114 393.691 85.3065 390.137C94.0699 387.83 102.879 378.71 110.701 373.534C121.548 366.356 123.598 359.728 130.224 349.03C136.817 338.386 145.104 330.012 154.528 321.813C163.248 314.225 169.709 310.892 170.448 299.113C171.088 288.909 171.999 279.618 167.911 270.124C163.125 259.01 154.758 248.927 150.396 237.42C146.511 227.171 150.144 208.904 140.046 202.396" fill="#1F2726"/>
<path d="M133.28 205.78C132.861 201.008 143.391 197.183 147.521 196.88C154.746 196.35 159.705 197.818 165.228 201.273C170.997 204.882 174.176 208.87 177.729 214.737C181.423 220.836 181.918 228.688 183.392 235.448C185.838 246.666 190.099 256.653 200.67 261.807C211.112 266.897 224.039 269.915 230.577 281.16C233.763 286.64 232.107 292.064 232.746 298.067C233.322 303.489 236.553 308.067 240.049 312.094C248.254 321.544 267.615 341.62 267.407 355.734C267.236 367.436 261.593 387.999 237.525 392.832C232.493 393.843 211.905 394.714 208.404 381.479C206.98 376.097 208.71 371.104 205.176 366.6C201.146 361.463 199.735 352.418 193.848 349.22C189.825 347.034 182.404 347.795 177.878 347.128C167.563 345.607 155.502 336.412 151.471 326.153C148.723 319.16 146.062 313.173 146.078 304.666C146.094 296.72 147.346 288.763 147.598 280.818C147.989 268.449 140.872 260.336 136.587 249.987C133.418 242.334 134.294 236.401 134.047 228.183C133.824 220.779 132.765 213.849 133.28 205.78Z" fill="#1F2726"/>
<path d="M137.669 267.791C136.177 291.163 132.135 310.895 107.126 318.07C93.2455 322.053 86.0457 325.204 80.9825 339.65C77.3817 349.924 78.4399 363.901 77.7278 375.062C76.3067 397.34 79.6672 434.608 78.0362 454.551C75.9291 480.317 64.3841 483.037 56.9245 504.399C49.8353 524.699 48.8151 532.882 38.8294 551.932C34.1488 560.862 26.6035 563.684 22.0215 568.046C14.7386 574.98 12.6826 573.896 10.4805 585.927C10.5647 590.228 12.837 596.579 14.1071 596.539C19.5332 595.81 24.6379 583.247 29.2882 577.816C38.2541 566.572 40.234 567.665 46.7489 557.089C60.0173 535.551 76.2541 513.045 87.1915 490.93C97.9606 469.155 98.6789 472.357 102.156 447.493C104.731 429.078 97.6454 372.032 119.265 364.815C130.704 360.997 146.992 375.909 159.053 374.023C169.266 372.426 182.952 359.842 192.495 363.742C192.218 374.097 200.667 379.366 199.943 390.347C199.231 401.145 194.134 388.891 198.156 409.922C202.09 430.493 198.344 470.008 207.503 490.995C216.42 511.429 218.799 515.375 225.898 531.605C229.564 539.984 238.916 558.911 241.327 568.025C244.794 581.132 244.145 582.88 243.44 593.933C243.235 597.14 239.441 603.494 240.444 607.166C247.848 609.413 258.203 598.63 254.404 582.279C248.989 554.73 234.631 518.314 229.25 478.13C226.772 459.616 225.847 435.255 223.521 417.083C219.572 386.225 221.412 385.576 220.783 364.581C220.038 339.725 224.451 309.751 193.844 305.121C180.825 303.151 169.574 306.157 161.645 294.539C155.496 285.53 157.375 278.568 156.921 268.288C147.886 268.188 146.643 268.19 138.439 267.113" fill="#FCA7AB"/>
<path d="M111.637 315.736C116.442 329.452 147.17 359.71 163.482 356.988C176.581 354.802 183.674 347.242 190.661 333.107C196.928 320.429 195.654 306.182 198.95 305.847C207.08 305.02 215.007 311.954 216.974 317.33C222.343 332.008 224.803 370.081 223.227 387.086C217.33 398.021 196.143 398.391 196.143 398.391C190.983 410.805 191.527 421.916 187.772 432.306C181.531 449.573 180.064 454.829 186.249 472.883C182.342 472.241 180.057 483.038 167.373 483.616C159.497 483.975 165.428 484.447 145.471 482.463C134.044 481.327 116.789 479.988 106.545 474.261C109.882 466.375 112.314 469.07 115.53 459.917C118.24 452.204 118.602 443.883 118.339 435.256C117.825 418.447 111.444 397.9 108.512 400.107C94.2092 397.9 102.253 397.446 88.3002 396.917C59.0141 395.807 71.7153 393.504 73.5803 373.735C75.3703 354.76 75.6835 350.147 77.8378 339.664C79.1519 333.27 82.7462 324.285 89.7432 321.244C95.9618 318.541 94.6362 320.83 108.337 316.869" fill="#4E615F"/>
<path d="M128.376 229.079C127.685 239.91 125.737 251.717 130.521 261.254C132.731 265.662 135.974 271.031 139.572 274.626C145.64 280.689 150.46 278.996 155.855 273.838C165.512 264.604 169.245 255.936 170.122 242.215C171.007 228.386 172.616 219.13 161.111 209.761C155.245 204.983 148.364 202.592 141.011 206.753C135.609 209.81 127.617 218.447 127.472 224.946" fill="#F8B3B8"/>
<path d="M127.233 243.157C127.499 238.989 124.615 241.45 126.831 238.046C129.03 234.669 129.813 225.524 133.012 221.006C137.193 229.625 144.792 229.648 153.943 232.869C166.54 237.301 172.993 242.965 173.004 250.061C175.586 236.567 176.227 216.101 164.055 207.814C157.817 203.568 152.611 199.437 144.649 201.123C137.163 202.707 129.981 208.517 126.8 215.607C124.465 220.81 125.304 229.055 127.085 234.067" fill="#1F2726"/>
</g>
<defs>
<linearGradient id="paint0_linear_346_2818" x1="37.4337" y1="301.226" x2="481.904" y2="301.226" gradientUnits="userSpaceOnUse">
<stop stop-color="#4E615F"/>
<stop offset="0.3063" stop-color="#4E615F"/>
<stop offset="0.6222" stop-color="#4E615F"/>
<stop offset="0.8637" stop-color="#4E615F"/>
<stop offset="1" stop-color="#4E615F"/>
</linearGradient>
</defs>
</svg>
