<svg width="639" height="686" viewBox="0 0 639 686" fill="none" xmlns="http://www.w3.org/2000/svg">
<path d="M548.38 565.631H605.023V547.604H548.38V565.631Z" fill="#EEEBE2"/>
<path d="M579.972 588.346C589.381 588.201 613.498 587.798 622.584 587.685H636.616L635.875 588.41V570.383L636.681 571.188C627.272 571.188 603.284 571.075 594.198 570.946L580.037 570.769L580.423 570.383L580.037 588.41L579.972 588.346ZM579.972 588.346L579.602 570.318V569.948H579.988C587.061 569.851 601.254 569.69 608.31 569.625L636.632 569.513H637.438V570.318V588.346V589.087H636.713H622.423C613.401 588.99 589.397 588.571 580.069 588.41L579.972 588.346Z" fill="#EEEBE2"/>
<path d="M383.345 183.154C392.754 183.009 416.871 182.606 425.957 182.493H439.989L439.248 183.218V165.191L440.053 165.996C430.645 165.996 406.657 165.884 397.571 165.755L383.41 165.577L383.796 165.191L383.41 183.218L383.345 183.154ZM383.345 183.154L382.958 165.175V164.804H383.345C390.418 164.707 404.611 164.546 411.667 164.482L439.989 164.369H440.795V165.175L440.714 183.202V183.943H439.989H425.699C416.677 183.847 392.673 183.428 383.345 183.267V183.154Z" fill="#EEEBE2"/>
<path d="M414.937 205.887C424.346 205.742 448.463 205.339 457.549 205.226H471.581L470.856 205.951L470.776 187.924L471.581 188.729C462.173 188.729 438.185 188.616 429.098 188.488L414.937 188.31L415.324 187.924L414.937 205.951V205.887ZM414.937 205.887L414.551 187.859V187.489H414.937C422.01 187.392 436.203 187.231 443.259 187.166L471.581 187.054H472.387V187.859V205.887V206.628H471.662H457.372C448.35 206.531 424.346 206.112 415.018 205.951L414.937 205.887Z" fill="#EEEBE2"/>
<path d="M2.38392 588.362H59.0278V570.335H2.38392V588.362Z" fill="#EEEBE2"/>
<path d="M33.9772 31.6699L90.6211 31.6699V13.6425L33.9772 13.6425V31.6699Z" fill="#EEEBE2"/>
<path d="M2.38421 54.3852C11.7926 54.2241 35.9098 53.8213 44.996 53.7247H59.0281L58.2871 54.4496V36.4222L59.0926 37.2277C49.6841 37.2277 25.6959 37.1149 16.6096 36.9861L2.44865 36.8088L2.77086 36.2933L2.38421 54.3208V54.3852ZM2.38421 54.3852L1.99756 36.2933V35.9228H2.38421C9.45664 35.8261 23.6337 35.665 30.7062 35.6006L59.0281 35.4878H59.8336V36.2933V54.3208V55.0618H59.1087H44.8188C35.797 54.9491 11.7765 54.5463 2.46476 54.3852H2.38421Z" fill="#EEEBE2"/>
<path d="M548.379 31.6538C557.788 31.4927 581.905 31.106 590.991 30.9932H605.023L604.282 31.7182V13.6908L605.087 14.4963C595.679 14.4963 571.691 14.3835 562.605 14.2546L548.444 14.0774L548.83 13.6908L548.444 31.7182L548.379 31.6538ZM548.379 31.6538L547.992 13.6263V13.2558H548.379C555.452 13.1591 569.645 12.998 576.701 12.9336L605.023 12.8208H605.829V13.6263L605.748 31.6538V32.3949H605.023H590.733C581.711 32.2821 557.707 31.8793 548.379 31.7182V31.6538Z" fill="#EEEBE2"/>
<path opacity="0.3" d="M511.813 207.466L508.666 223.703C508.398 225.332 507.8 226.89 506.909 228.281C506.017 229.672 504.85 230.868 503.48 231.796C502.11 232.724 500.564 233.364 498.938 233.677C497.311 233.991 495.637 233.971 494.019 233.619C492.402 233.306 490.862 232.679 489.488 231.773C488.115 230.868 486.934 229.701 486.013 228.34C485.093 226.979 484.45 225.45 484.123 223.841C483.796 222.233 483.79 220.576 484.107 218.965L489.136 192.988C489.185 192.744 489.44 192.793 489.489 192.539C489.283 192.246 489.283 192.246 489.332 191.992C490.045 188.792 491.961 185.987 494.684 184.15C497.408 182.313 500.734 181.585 503.98 182.115C519.765 185.143 534.971 175.12 537.971 159.645C541.01 143.917 530.598 129.224 514.804 126.185C509.939 125.234 504.909 125.576 500.22 127.176C495.53 128.776 491.346 131.578 488.087 135.3C487 136.565 485.67 137.601 484.177 138.348C482.683 139.095 481.055 139.538 479.388 139.652C477.721 139.766 476.047 139.547 474.465 139.01C472.884 138.472 471.425 137.626 470.175 136.521C468.944 135.436 467.941 134.118 467.225 132.644C466.509 131.169 466.093 129.568 466.002 127.933C465.911 126.297 466.146 124.66 466.694 123.116C467.242 121.572 468.092 120.151 469.194 118.937C475.027 112.255 482.433 107.123 490.749 104C499.064 100.877 508.028 99.8615 516.835 101.045C525.642 102.229 534.016 105.574 541.204 110.78C548.392 115.987 554.17 122.891 558.017 130.873C561.864 138.855 563.661 147.665 563.246 156.51C562.831 165.356 560.217 173.96 555.639 181.549C551.06 189.138 544.662 195.475 537.017 199.991C529.373 204.506 520.722 207.058 511.843 207.417L511.813 207.466ZM501.225 262.174L500.352 266.668C500.08 268.294 499.478 269.847 498.585 271.234C497.691 272.621 496.524 273.813 495.154 274.736C493.784 275.66 492.24 276.297 490.616 276.608C488.991 276.919 487.321 276.897 485.705 276.545C482.452 275.914 479.582 274.023 477.726 271.287C475.87 268.551 475.178 265.193 475.802 261.95L476.665 257.456C477.35 254.241 479.258 251.416 481.99 249.574C484.721 247.732 488.063 247.017 491.313 247.579C492.929 247.876 494.469 248.491 495.844 249.388C497.218 250.284 498.4 251.445 499.319 252.802C500.238 254.16 500.877 255.686 501.197 257.291C501.518 258.897 501.514 260.551 501.186 262.155L501.225 262.174Z" fill="#8C9998"/>
<path opacity="0.3" d="M107.085 328.251L103.031 311.675C102.589 310.034 102.486 308.32 102.73 306.638C102.973 304.956 103.557 303.341 104.447 301.89C105.337 300.439 106.514 299.183 107.906 298.197C109.299 297.212 110.878 296.518 112.548 296.157C115.878 295.358 119.391 295.904 122.317 297.676C125.242 299.448 127.342 302.301 128.156 305.609L134.643 332.12C134.703 332.372 134.44 332.433 134.501 332.695C134.825 332.876 134.825 332.876 134.886 333.138C135.597 336.442 135.009 339.892 133.243 342.78C131.477 345.667 128.667 347.773 125.389 348.666C121.57 349.543 117.963 351.161 114.774 353.427C111.585 355.693 108.877 358.562 106.806 361.87C104.735 365.178 103.34 368.86 102.703 372.705C102.066 376.55 102.198 380.482 103.092 384.276C107.024 400.328 123.149 409.659 139.315 405.76C144.3 404.575 148.882 402.105 152.601 398.599C156.32 395.093 159.043 390.674 160.497 385.788C160.974 384.137 161.776 382.598 162.857 381.259C163.938 379.92 165.277 378.808 166.795 377.989C168.314 377.17 169.981 376.66 171.699 376.489C173.418 376.318 175.153 376.488 176.805 376.991C178.426 377.481 179.934 378.285 181.242 379.357C182.549 380.429 183.63 381.748 184.422 383.237C185.215 384.727 185.703 386.357 185.858 388.035C186.014 389.713 185.834 391.405 185.329 393.013C182.729 401.773 177.981 409.754 171.511 416.238C165.041 422.722 157.053 427.507 148.263 430.161C139.473 432.816 130.157 433.258 121.153 431.447C112.148 429.637 103.738 425.63 96.6762 419.788C89.6149 413.945 84.1242 406.45 80.6976 397.976C77.2709 389.502 76.0157 380.314 77.0448 371.238C78.0738 362.162 81.3548 353.482 86.593 345.979C91.8311 338.476 98.8623 332.384 107.055 328.251H107.085ZM93.4431 272.427L92.3181 267.842C91.8742 266.2 91.7705 264.485 92.0132 262.802C92.2558 261.119 92.8398 259.503 93.7297 258.051C94.6197 256.599 95.7969 255.341 97.1902 254.355C98.5835 253.369 100.164 252.675 101.835 252.314C105.167 251.515 108.681 252.063 111.607 253.837C114.533 255.611 116.632 258.466 117.443 261.776L118.568 266.361C119.309 269.668 118.733 273.131 116.961 276.025C115.188 278.918 112.357 281.016 109.061 281.879C107.411 282.298 105.693 282.385 104.008 282.135C102.323 281.885 100.706 281.303 99.2507 280.422C97.7956 279.541 96.5322 278.38 95.5349 277.007C94.5375 275.634 93.8263 274.077 93.4431 272.427Z" fill="#8C9998"/>
<path d="M440.988 684.946H265.498C264.048 679.291 262.646 673.668 261.245 668.271C259.634 661.972 258.023 655.834 256.556 649.857C256.234 648.52 255.864 647.183 255.542 645.878C254.382 641.281 253.249 636.819 252.142 632.49C251.466 629.832 250.805 627.238 250.161 624.661C249.516 622.083 248.824 619.457 248.179 616.944C248.002 616.267 247.841 615.607 247.664 614.962C247.486 614.318 247.309 613.512 247.132 612.804C246.955 612.095 246.681 611.064 246.471 610.21C246.214 609.308 246.004 608.405 245.779 607.519C245.328 605.828 244.909 604.168 244.506 602.541C243.878 600.141 243.282 597.789 242.702 595.485C242.46 594.486 242.186 593.487 241.944 592.505C241.526 590.893 241.123 589.282 240.752 587.816C240.478 586.801 240.237 585.803 239.995 584.82C238.948 580.792 237.997 577.006 237.095 573.543C236.854 572.608 236.628 571.69 236.386 570.804C236.016 569.193 235.629 567.807 235.275 566.374C235.033 565.487 234.808 564.618 234.614 563.78C233.825 560.751 233.116 557.996 232.52 555.564C232.343 554.919 232.182 554.307 232.037 553.695C231.634 552.084 231.247 550.682 230.941 549.409C230.812 548.894 230.699 548.411 230.571 547.959C230.442 547.508 230.313 546.993 230.2 546.558C230.087 546.123 230.055 545.946 229.991 545.672C229.926 545.398 229.765 544.834 229.668 544.48C229.641 544.299 229.597 544.121 229.539 543.948C229.266 542.901 229.137 542.337 229.137 542.337H399.906C399.906 542.337 405.529 561.669 414.534 592.988C416.355 599.351 418.336 606.214 420.447 613.512C426.488 634.279 433.464 658.621 440.988 684.946Z" fill="#37474F"/>
<path d="M294.238 684.945H289.856C283.412 658.094 277.118 631.163 270.975 604.152C269.503 597.589 268.048 591.022 266.609 584.449C266.48 583.821 266.351 583.224 266.206 582.596C266.206 582.535 266.226 582.476 266.264 582.428C266.302 582.379 266.354 582.345 266.414 582.33C266.473 582.316 266.535 582.321 266.591 582.346C266.647 582.371 266.693 582.413 266.722 582.467C266.722 582.677 266.834 582.87 266.899 583.063C268.88 590.12 270.862 597.192 272.795 604.264C280.206 631.088 287.278 657.992 294.238 684.945Z" fill="#263238"/>
<path d="M394.413 542.272L386.873 580.003L380.719 610.951L370.215 663.712L369.119 669.109L367.315 678.115L365.962 684.946H265.482C264.053 679.275 262.641 673.717 261.245 668.271C259.634 661.972 258.023 655.834 256.556 649.857C256.234 648.52 255.864 647.183 255.542 645.878C254.382 641.281 253.249 636.819 252.142 632.49C251.466 629.832 250.805 627.238 250.161 624.661C249.516 622.083 248.824 619.457 248.179 616.944C248.002 616.267 247.841 615.607 247.664 614.962C247.486 614.318 247.309 613.512 247.132 612.803C246.955 612.095 246.681 611.064 246.471 610.21C246.214 609.308 246.004 608.405 245.779 607.519C245.328 605.828 244.909 604.168 244.506 602.541C243.878 600.141 243.282 597.789 242.702 595.485C242.444 594.47 242.186 593.487 241.944 592.504C241.526 590.893 241.123 589.282 240.752 587.816C240.478 586.801 240.237 585.803 239.995 584.82C238.948 580.792 237.997 577.006 237.095 573.543C236.854 572.608 236.628 571.69 236.386 570.804C236.016 569.193 235.629 567.807 235.275 566.373C235.033 565.487 234.808 564.617 234.614 563.78C233.825 560.751 233.116 557.996 232.52 555.563C232.343 554.919 232.182 554.307 232.037 553.695C231.634 552.084 231.247 550.682 230.941 549.409C230.812 548.894 230.699 548.41 230.571 547.959C230.442 547.508 230.313 546.993 230.2 546.558C230.087 546.123 230.055 545.946 229.991 545.672C229.926 545.398 229.765 544.834 229.668 544.48C229.641 544.299 229.597 544.121 229.539 543.948C229.266 542.901 229.137 542.337 229.137 542.337L394.413 542.272Z" fill="#263238"/>
<path d="M394.444 542.16V542.24C394.444 543.158 393.719 553.356 392.076 568.903C391.609 573.43 391.061 578.408 390.465 583.757C389.466 592.182 388.21 601.478 386.679 611.305C384.053 628.447 380.638 647.151 376.175 665.436C374.564 672.009 372.953 678.534 371.02 684.913L150.534 684.994C150.534 684.994 144.09 672.847 144.654 666.419C146.667 640.642 161.747 542.24 161.747 542.24L361.708 542.16H394.444Z" fill="#37474F"/>
<path d="M374.274 562.459C374.033 570.353 373.694 578.231 373.179 586.077C372.647 594.599 371.874 603.089 370.762 611.579C370.741 611.893 370.703 612.205 370.65 612.514C369.602 620.472 368.426 628.415 367.073 636.325C365.8 643.72 364.866 651.678 361.596 658.509C360.359 661.15 358.606 663.516 356.44 665.468C354.45 667.282 352.016 668.538 349.384 669.109C348.956 669.218 348.519 669.294 348.079 669.335H347.709C347.786 669.385 347.849 669.455 347.891 669.537C347.934 669.618 347.954 669.71 347.95 669.802C347.854 672.46 347.95 675.151 347.628 677.761C347.628 677.873 347.628 677.986 347.628 678.099C347.354 680.387 346.935 682.658 346.516 684.93H342.73C342.73 684.93 342.73 684.833 342.73 684.801C343.391 682.304 343.955 679.791 344.567 677.277C345.179 674.764 346.081 672.203 346.677 669.609C346.729 669.531 346.801 669.469 346.887 669.432C344.487 669.548 342.108 668.927 340.072 667.651C338.035 666.375 336.439 664.506 335.497 662.295C334.224 658.912 334.804 655.4 335.32 651.92C336.012 647.409 336.673 642.898 337.366 638.387C338.655 630.09 340.314 621.874 341.78 613.625L342.457 609.872C345.405 593.085 348.498 576.298 352.219 559.656C352.348 558.963 352.509 558.286 352.654 557.594C352.689 557.507 352.752 557.434 352.833 557.387C352.914 557.34 353.009 557.322 353.101 557.335C353.194 557.348 353.28 557.391 353.345 557.459C353.41 557.526 353.45 557.613 353.46 557.706C353.347 558.818 353.234 559.946 353.105 561.057C352.461 567.437 351.699 573.801 350.818 580.148C349.755 587.591 349.013 595.082 347.966 602.542C347.612 605.071 347.257 607.6 346.887 610.146C345.163 622.389 343.391 634.649 341.297 646.861C340.314 652.532 336.786 662.681 344.938 664.454C346.81 664.857 348.764 664.613 350.48 663.761C354.104 661.956 356.746 657.816 358.067 654.175C360.371 647.731 361.193 640.514 362.401 633.763C363.744 626.245 364.93 618.765 365.962 611.322C367.299 601.962 368.668 592.634 370.134 583.29C370.875 578.521 371.627 573.763 372.39 569.016L373.453 562.411C373.469 561.863 374.274 561.992 374.274 562.459Z" fill="#263238"/>
<path d="M198.849 621.099C208.037 621.001 217.178 619.762 226.06 617.41C230.152 616.363 234.196 615.042 238.223 613.737C242.202 612.626 245.927 610.755 249.194 608.227C255.381 602.895 258.264 594.485 260.939 587.042C263.888 578.618 266.272 570.007 268.076 561.266C268.172 560.831 268.801 560.976 268.801 561.378C269.027 571.243 267.784 581.087 265.111 590.586C262.888 598.642 259.908 607.647 253.399 613.302C246.536 619.247 237.289 621.357 228.46 622.404C218.609 623.551 208.65 623.416 198.833 622.001C198.749 621.959 198.678 621.894 198.629 621.814C198.58 621.733 198.555 621.64 198.556 621.545C198.558 621.451 198.586 621.359 198.638 621.28C198.69 621.201 198.763 621.138 198.849 621.099Z" fill="#263238"/>
<path d="M183.576 561.572C183.077 573.913 170.688 645.604 169.447 670.011C169.238 674.377 178.083 680.579 177.857 684.945H173.717C174.007 680.676 165.21 674.57 165.484 670.301C167.095 645.733 181.595 573.865 182.513 561.54C182.517 561.399 182.577 561.266 182.68 561.169C182.783 561.072 182.92 561.02 183.061 561.025C183.202 561.029 183.335 561.089 183.432 561.192C183.529 561.294 183.58 561.431 183.576 561.572Z" fill="#263238"/>
<path d="M357.584 269.701C395.331 298.555 527.887 405.028 531.173 455.502C533.863 496.486 492.218 506.12 466.087 486.804C430.645 460.56 363.738 373.291 336.754 309.945C321.852 274.937 320.482 241.331 357.584 269.701Z" fill="#EB9481"/>
<path d="M378.898 400.146L483.358 352.991C483.358 352.991 384.118 275.275 348.466 260.663C308.367 244.214 308.722 268.315 324.3 306.465C339.879 344.614 378.898 400.146 378.898 400.146Z" fill="#263238"/>
<path d="M483.358 352.991L378.882 400.146C378.882 400.146 339.879 344.614 324.333 306.465C308.786 268.315 308.4 244.214 348.498 260.663C350.512 261.501 352.752 262.532 355.184 263.74L358.148 265.351C371.504 272.423 389.338 284.152 407.366 296.718L408.348 297.411C422.558 307.367 436.864 317.822 449.107 326.941L454.247 330.807C471.388 343.615 483.358 352.991 483.358 352.991Z" fill="#263238"/>
<path d="M483.358 352.991L378.882 400.146C378.882 400.146 339.879 344.614 324.333 306.465C308.786 268.315 308.4 244.214 348.498 260.663C350.512 261.501 352.752 262.532 355.184 263.74L358.148 265.351C371.504 272.423 389.338 284.152 407.366 296.718L408.348 297.411C422.558 307.367 436.864 317.822 449.107 326.941L454.247 330.807C471.388 343.615 483.358 352.991 483.358 352.991Z" fill="#263238"/>
<path d="M463.655 337.849C462.529 337.568 461.389 337.348 460.239 337.188C463.248 339.746 466.612 341.851 470.228 343.439L472 344.196L463.655 337.849ZM322.158 256.282C320.981 256.671 319.888 257.278 318.936 258.07C319.596 258.425 320.257 258.747 320.933 259.069C324.506 260.768 328.304 261.945 332.21 262.565C329.174 260.005 325.789 257.889 322.158 256.282ZM393.977 359.759C392.645 356.044 390.796 352.535 388.484 349.335C389.213 357.216 391.99 364.769 396.539 371.246C396.244 367.313 395.381 363.444 393.977 359.759ZM363.497 301.149C359.778 302.466 356.267 304.311 353.073 306.627C357.008 306.303 360.876 305.419 364.56 304.001C368.281 302.682 371.792 300.831 374.983 298.507C371.048 298.835 367.18 299.724 363.497 301.149Z" fill="#8C9998"/>
<path d="M460.288 341.07C456.421 342.15 423.637 356.327 416.58 359.565C409.524 362.803 380.542 375.675 373.517 379.719C373.449 379.747 373.395 379.8 373.366 379.868C373.337 379.936 373.337 380.013 373.364 380.081C373.392 380.15 373.446 380.204 373.514 380.233C373.582 380.262 373.659 380.262 373.727 380.234C381.331 377.689 410.603 364.704 417.853 361.563C425.103 358.421 457.243 343.648 460.562 341.537C460.835 341.36 460.562 341.006 460.288 341.07Z" fill="#263238"/>
<path opacity="0.1" d="M407.156 387.387L378.882 400.147C378.882 400.147 339.879 344.615 324.332 306.465C312.846 278.321 309.64 257.812 324.848 255.605L407.156 387.387Z" fill="black"/>
<path d="M404.562 554.065L158.944 560.509C158.944 560.509 146.845 547.991 148.681 533.234C155.464 478.733 242.121 287.713 275.824 264.755C290.92 254.477 323.253 246.438 341.232 259.922C369.167 280.866 396.909 430.515 412.746 514.981C417.273 539.163 404.723 553.823 404.562 554.065Z" fill="#EEEBE2"/>
<path d="M277.306 277.063C285.845 291.095 297.589 303.13 310.945 310.669C317.695 314.488 324.977 317.339 332.371 317.323C336.269 317.545 340.129 316.463 343.343 314.246C346.34 311.614 348.596 308.242 349.883 304.467C351.524 300.083 352.533 295.489 352.88 290.822C353.34 285.497 353.453 280.147 353.218 274.808C353.218 274.598 353.492 274.631 353.492 274.808C353.734 279.883 354.33 284.941 354.217 290.016C354.196 294.461 353.628 298.887 352.526 303.194C351.496 307.199 349.635 310.943 347.064 314.181C344.415 317.291 340.683 319.277 336.625 319.74C328.892 320.883 320.869 318.628 313.555 314.906C306.277 311.114 299.626 306.223 293.836 300.407C287.029 293.594 281.317 285.768 276.904 277.208C276.743 276.983 277.129 276.789 277.306 277.063Z" fill="#263238"/>
<path d="M282.768 255.396C282.768 255.396 293.079 344.293 294.239 385.551C295.399 426.81 282.768 660.7 282.768 660.7C282.768 660.7 182.224 641.577 169.674 638.258C157.124 634.939 123.05 601.945 123.05 601.945C123.05 601.945 201.765 317.775 282.768 255.396Z" fill="#263238"/>
<path d="M272.344 291.322C270.651 294.895 269.479 298.693 268.864 302.599C273.893 296.483 277.252 289.167 278.611 281.366C276.062 284.372 273.952 287.724 272.344 291.322ZM225.624 437.153C223.925 440.725 222.747 444.523 222.128 448.43C224.687 445.419 226.798 442.055 228.395 438.441C230.081 434.865 231.253 431.069 231.875 427.164C229.32 430.18 227.204 433.543 225.592 437.153H225.624ZM191.954 592.843C190.255 596.415 189.078 600.213 188.458 604.12C191.023 601.115 193.135 597.749 194.724 594.132C196.418 590.558 197.59 586.761 198.204 582.854C195.647 585.869 193.531 589.232 191.921 592.843H191.954ZM282.091 582.21C280.399 585.784 279.227 589.581 278.611 593.487C281.163 590.475 283.268 587.111 284.862 583.499C285.701 581.651 286.438 579.758 287.069 577.828C287.069 576.426 287.198 575.009 287.278 573.575C285.22 576.249 283.469 579.145 282.059 582.21H282.091ZM193.371 498.05C189.801 496.348 186.002 495.176 182.094 494.57C188.217 499.583 195.541 502.915 203.344 504.236C200.316 501.714 196.948 499.631 193.339 498.05H193.371ZM233.309 359.759C231.976 356.043 230.127 352.534 227.815 349.335C228.144 353.27 229.034 357.138 230.457 360.822C231.777 364.543 233.627 368.054 235.951 371.245C235.611 367.308 234.711 363.44 233.276 359.759H233.309ZM281.64 487.948C280.307 484.233 278.458 480.724 276.146 477.525C276.469 481.451 277.342 485.313 278.74 488.996C280.059 492.717 281.91 496.227 284.233 499.419C283.908 495.49 283.024 491.628 281.607 487.948H281.64ZM159.201 628.35C159.303 629.932 159.524 631.505 159.862 633.054C161.022 633.828 162.117 634.536 163.18 635.181C162.1 632.762 160.755 630.471 159.169 628.35H159.201ZM145.072 547.396C144.177 544.982 143.1 542.639 141.85 540.388C141.496 541.531 141.125 542.675 140.771 543.787C141.19 545.398 141.689 546.912 142.237 548.459C143.57 552.174 145.419 555.683 147.731 558.882C147.396 554.943 146.49 551.074 145.04 547.396H145.072ZM238.19 633.827C234.475 635.16 230.966 637.009 227.767 639.321C231.702 638.992 235.57 638.102 239.253 636.679C242.974 635.36 246.485 633.509 249.677 631.185C245.73 631.51 241.851 632.399 238.158 633.827H238.19ZM235.419 543.61C231.697 544.926 228.185 546.776 224.996 549.103C228.925 548.767 232.786 547.877 236.466 546.461C240.194 545.145 243.71 543.295 246.906 540.968C242.956 541.312 239.077 542.224 235.387 543.674L235.419 543.61ZM284.185 394.879C280.47 396.212 276.961 398.061 273.762 400.373C277.695 400.043 281.562 399.159 285.248 397.747C288.446 396.585 291.5 395.061 294.351 393.204V392.366C290.859 392.805 287.434 393.671 284.153 394.944L284.185 394.879Z" fill="#8C9998"/>
<path d="M341.232 259.89C353.218 274.808 371.069 361.933 372.293 370.826C373.517 379.719 409.717 650.292 409.717 650.292C409.717 650.292 431.853 628.301 433.56 621.1C435.268 613.898 411.94 483.55 401.146 435.042C388.967 380.267 370.102 300.569 357.359 281.687C348.498 268.445 341.232 259.89 341.232 259.89Z" fill="#263238"/>
<path d="M365.897 300.327C365.092 300.601 364.286 300.859 363.497 301.149C361.369 301.938 359.297 302.869 357.294 303.936L357.826 305.966C360.112 305.46 362.361 304.804 364.56 304L366.88 303.066L365.897 300.327ZM396.072 543.674L395.443 543.915C395.588 544.93 395.733 545.945 395.862 546.96L397.135 546.525C400.858 545.209 404.369 543.358 407.558 541.032C403.623 541.361 399.755 542.25 396.072 543.674ZM407.156 631.555C407.156 632.119 407.317 632.651 407.381 633.167C408.409 632.562 409.399 631.895 410.346 631.169C409.276 631.24 408.211 631.369 407.156 631.555ZM386.212 437.152C384.518 440.725 383.346 444.523 382.732 448.429C387.736 442.3 391.067 434.979 392.399 427.18C389.903 430.202 387.842 433.559 386.277 437.152H386.212Z" fill="#8C9998"/>
<path d="M228.105 300.503C159.266 383.617 82.2586 501.206 102.767 532.331C125.628 567.001 224.964 487.625 227.654 481.922C230.667 475.478 258.683 400.355 275.244 325.378C293.417 243.118 245.118 279.914 228.105 300.503Z" fill="#EB9481"/>
<path d="M108.696 536.182C133.361 552.84 201.411 559.896 317.582 539.549C333.693 536.73 301.279 424.682 283.96 426.777C262.147 429.451 178.067 444.498 172.058 446.447C121.342 462.364 91.9733 524.872 108.696 536.182Z" fill="#EB9481"/>
<path d="M254.075 436.089C254.075 436.089 261.115 433.882 296.381 416.193C320.756 403.965 387.984 389.756 444.967 441.035C466.812 460.689 462.559 484.533 436.251 468.213C417.772 456.662 405.867 447.108 398.762 444.998C398.762 444.998 409.959 476.494 398.762 492.346C393.8 499.435 379.784 518.445 366.751 531.704C364.01 530.094 361.373 528.313 358.857 526.371C353.909 532.241 347.402 536.592 340.088 538.924C332.774 541.255 324.95 541.472 317.518 539.549L254.075 436.089Z" fill="#EB9481"/>
<path d="M321.513 408.235C335.352 411.811 364.576 419.883 386.18 434.801C410.168 451.362 451.942 489.737 439.521 507.297C430.419 520.186 413.197 506.943 413.197 506.943C413.197 506.943 427.116 526.436 416.339 536.296C406.527 545.269 393.784 534.218 393.784 534.218C393.784 534.218 400.228 547.493 389.064 554.323C375.692 562.54 364.463 533.38 343.729 529.965C339.106 529.272 321.513 408.235 321.513 408.235Z" fill="#EB9481"/>
<path d="M364.447 457.226C376.916 462.719 402.032 482.471 413.261 506.362C413.503 506.91 413.261 507.393 412.907 506.942C398.768 488.534 382.441 471.915 364.286 457.451C364.157 457.355 364.302 457.161 364.447 457.226Z" fill="#263238"/>
<path d="M348.498 481.939C358.76 487.787 383.747 509.326 394.283 533.894C394.525 534.442 394.283 534.909 393.897 534.458C380.728 515.357 365.439 497.808 348.321 482.148C348.143 482.051 348.304 481.858 348.498 481.939Z" fill="#263238"/>
<path d="M393.833 534.458C401.082 540.032 413.165 542.385 418.546 533.186C422.735 524.615 417.402 514.417 412.521 507.232L410.781 504.847C415.018 508.07 419.738 511.034 424.958 512.129C434.189 514.707 441.986 507.022 440.81 497.775C439.07 484.42 428.534 474.592 419.786 465.152C412.086 456.862 403.765 449.172 394.896 442.146C403.635 446.298 412.09 451.023 420.205 456.291C426.247 460.125 431.386 465.28 437.701 468.696C456.002 479.232 465.089 468.776 453.376 451.538C438.668 431.159 405.883 412.729 381.347 407.847C406.544 412.439 439.022 430.063 454.407 450.83C457.436 455.308 460.304 460.496 459.949 466.167C459.498 473.013 453.183 475.478 447.174 473.996C436.219 471.725 428.325 463.541 419.335 457.58C413.35 453.676 407.154 450.104 400.776 446.882L401.662 445.497C408.413 451.328 414.835 457.529 420.898 464.072C430.564 474.705 445.547 488.576 441.455 504.461C437.766 514.852 426.956 515.496 418.401 510.808C416.377 509.801 414.446 508.615 412.633 507.264L413.31 506.603C418.336 514.159 423.556 524.518 419.045 533.395C413.407 542.707 401.131 540.226 393.865 534.41L393.833 534.458Z" fill="#263238"/>
<path d="M134.521 474.223C138.613 470.002 150.728 456.598 169.303 448.446C185.51 441.342 233.47 433.657 245.279 432.819C245.585 432.819 245.682 433.142 245.392 433.222C235.097 436.154 189.006 444.113 171.655 451.459C158.312 457.285 145.903 465.048 134.827 474.497C134.601 474.674 134.327 474.497 134.521 474.223Z" fill="#263238"/>
<path d="M255.058 419.72L142.286 399.759C142.286 399.759 219.277 300.02 250.225 277.079C285.056 251.302 290.63 274.727 284.927 315.534C279.224 356.342 255.058 419.72 255.058 419.72Z" fill="#263238"/>
<path d="M233.276 359.759C231.944 356.043 230.095 352.534 227.783 349.335C228.112 353.27 229.002 357.138 230.425 360.822C231.744 364.543 233.595 368.054 235.919 371.245C235.59 367.31 234.7 363.442 233.276 359.759ZM166.064 369.666C164.874 371.549 163.798 373.502 162.842 375.514C161.148 379.087 159.976 382.885 159.362 386.792C161.911 383.777 164.016 380.413 165.613 376.803C167.244 373.356 168.398 369.703 169.045 365.945L166.064 369.666ZM272.392 291.322C270.699 294.895 269.527 298.693 268.913 302.599C273.942 296.483 277.3 289.167 278.659 281.366C276.093 284.369 273.967 287.721 272.344 291.322H272.392Z" fill="#8C9998"/>
<path d="M161.618 381.715C165.63 381.715 200.895 387.483 208.532 388.884C216.168 390.286 247.454 395.699 255.252 397.81C255.315 397.825 255.371 397.861 255.412 397.912C255.452 397.963 255.474 398.026 255.474 398.091C255.474 398.157 255.452 398.22 255.412 398.271C255.371 398.322 255.315 398.358 255.252 398.373C247.196 397.761 215.701 392.38 207.887 391.124C200.074 389.867 165.308 383.455 161.586 382.231C161.199 382.118 161.377 381.715 161.618 381.715Z" fill="#263238"/>
<path d="M249.919 418.561C253.367 418.916 255.493 419.044 255.493 419.044C259.376 403.514 264.354 387.613 268.897 372.325C273.521 356.698 278.563 341.248 283.396 325.605C283.396 325.363 283.831 325.476 283.767 325.717C281.592 334.707 279.401 343.664 277.129 352.589C277.613 351.526 278.096 350.463 278.563 349.367C280.271 345.581 282.059 341.844 283.638 337.993C283.767 337.671 284.266 337.816 284.154 338.155C282.972 342.172 281.524 346.106 279.82 349.931C278.579 352.622 277.178 355.183 275.728 357.745C274.391 362.868 273.102 367.975 271.62 373.082C267.109 388.693 263.307 406.35 257.588 421.574C254.888 421.006 252.233 420.241 249.645 419.286C249.575 419.234 249.523 419.16 249.499 419.076C249.474 418.992 249.477 418.902 249.508 418.82C249.539 418.738 249.596 418.669 249.67 418.622C249.744 418.575 249.832 418.554 249.919 418.561Z" fill="#263238"/>
<path d="M339.444 306.288C324.107 311.508 294.883 290.178 282.381 271.7C281.527 270.427 282.22 256.185 282.252 238.851C282.252 228.314 281.946 216.602 280.931 205.921C280.706 203.73 349.448 215.781 349.448 215.781C349.448 215.781 345.002 238.786 346.903 257.377C347.061 258.852 347.358 260.308 347.789 261.727C347.789 261.921 347.902 262.162 347.95 262.436C350.109 270.636 354.265 301.246 339.444 306.288Z" fill="#EB9481"/>
<path d="M349.448 215.78C347.499 226.568 346.491 237.505 346.436 248.468C313.909 259.648 288.213 242.314 282.252 237.754C282.252 227.508 281.93 216.231 280.931 205.937L349.448 215.78Z" fill="#263238"/>
<path d="M378.818 185.638C378.818 185.638 376.289 201.506 377.078 207.193C377.868 212.88 389.644 220.082 389.644 220.082C389.644 220.082 374.903 223.481 370.972 222.047C367.042 220.613 361.741 209.562 361.741 209.562C361.741 209.562 365.833 226.767 371.407 228.298C374.919 229.248 362.563 227.96 362.563 227.96C358.505 227.214 354.867 224.993 352.349 221.725C348.772 216.521 378.818 185.638 378.818 185.638Z" fill="#263238"/>
<path d="M382.12 126.512C385.52 151.21 362.127 217.23 342.94 229.699C315.118 247.775 275.035 243.473 261.067 211.285C247.502 180.079 279.514 94.5818 300.441 83.8201C331.26 67.9675 377.11 90.0387 382.12 126.512Z" fill="#EB9481"/>
<path d="M314.667 158.121C314.747 157.96 314.941 158.46 314.86 158.637C313.169 163.019 311.976 168.303 315.472 171.203C315.585 171.3 315.472 171.509 315.343 171.445C310.688 169.044 312.363 161.956 314.667 158.121Z" fill="#263238"/>
<path d="M320.241 154.867C327.571 156.832 323.125 171.332 316.342 169.527C309.56 167.723 314.103 153.24 320.241 154.867Z" fill="#263238"/>
<path d="M287.714 148.503C287.714 148.326 287.295 148.616 287.247 148.809C286.039 153.352 283.896 158.346 279.385 158.62C279.24 158.62 279.176 158.862 279.385 158.894C284.524 159.683 287.279 153.014 287.714 148.503Z" fill="#263238"/>
<path d="M285.104 142.623C278.031 139.9 273.118 154.254 279.658 156.768C286.199 159.281 291.032 144.878 285.104 142.623Z" fill="#263238"/>
<path d="M329.89 144.137C327.89 143.588 325.863 143.142 323.817 142.8C321.465 142.317 319.66 141.688 317.373 142.623C316.748 142.958 316.251 143.491 315.96 144.137C315.669 144.784 315.599 145.509 315.762 146.199C316.631 149.115 319.338 150.42 322.206 151.113C324.992 151.922 327.982 151.658 330.583 150.372C331.163 150.042 331.633 149.549 331.936 148.954C332.239 148.36 332.361 147.69 332.288 147.026C332.214 146.363 331.948 145.736 331.522 145.223C331.096 144.709 330.528 144.332 329.89 144.137Z" fill="#263238"/>
<path d="M285.265 126.287C287.331 126.491 289.407 126.582 291.484 126.561C293.868 126.561 295.769 126.947 297.928 125.626C298.484 125.191 298.882 124.584 299.059 123.9C299.237 123.216 299.184 122.492 298.91 121.84C297.541 119.118 294.641 118.296 291.773 118.087C288.912 117.789 286.041 118.564 283.718 120.262C281.108 121.985 282.446 125.916 285.265 126.287Z" fill="#263238"/>
<path d="M302.358 193.596C297.38 189.552 289.856 187.989 285.039 187.152C284.556 186.91 284.395 185.75 284.475 185.234C284.475 185.073 287.697 175.842 287.697 175.842C286.247 176.084 278.998 176.938 279.642 175.198C285.152 160.698 291.29 144.588 299.828 131.394C299.888 131.314 299.973 131.257 300.07 131.232C300.166 131.208 300.268 131.217 300.358 131.258C300.449 131.3 300.522 131.371 300.567 131.46C300.611 131.549 300.623 131.651 300.602 131.748C295.849 145.877 288.648 159.136 283.67 173.168C285.925 173.039 289.679 172.652 291.451 173.248C291.902 173.538 287.504 182.995 287.182 184.526C287.182 184.526 297.074 184.654 302.986 191.679C304.581 193.483 304.742 195.513 302.358 193.596Z" fill="#263238"/>
<path d="M307.739 203.133C306.353 203.825 304.823 204.921 303.18 204.55C301.541 203.985 300.038 203.085 298.765 201.908C298.739 201.887 298.707 201.875 298.674 201.873C298.641 201.871 298.608 201.88 298.579 201.898C298.551 201.915 298.529 201.941 298.516 201.972C298.503 202.003 298.5 202.037 298.508 202.069C298.859 203.141 299.494 204.098 300.345 204.838C301.195 205.578 302.231 206.075 303.341 206.274C304.334 206.344 305.326 206.114 306.188 205.615C307.049 205.115 307.741 204.368 308.174 203.471C308.222 203.229 307.948 203.036 307.739 203.133Z" fill="#263238"/>
<path d="M369.119 185.396C358.663 178.21 365.897 137.5 365.897 137.5L356.553 158.04C356.553 158.04 350.109 147.875 349.11 136.92C348.417 129.106 352.558 119.875 355.248 115.557C355.248 115.557 337.946 124.676 321.868 123.613C315.955 123.226 276.018 109.58 276.855 107.083C279.223 99.6726 303.937 78.5198 316.277 75.056C330.503 71.0607 349.626 68.9986 370.44 86.1883C391.255 103.378 392.35 120.858 391.883 133.955C391.416 147.053 372.953 188.038 369.119 185.396Z" fill="#263238"/>
<path d="M357.6 182.367C357.6 182.367 378.544 165.048 386.808 173.087C395.073 181.126 375.177 209.142 362.643 210.254C361.035 210.505 359.392 210.429 357.814 210.029C356.236 209.629 354.755 208.914 353.46 207.926C352.166 206.939 351.085 205.7 350.282 204.284C349.479 202.867 348.971 201.303 348.788 199.686L357.6 182.367Z" fill="#EB9481"/>
<path d="M380.912 180.982C381.089 180.982 381.057 181.288 380.912 181.304C372.003 182.335 365.72 188.602 360.629 195.497C363.851 193.194 367.541 192.469 370.731 196.4C370.892 196.609 370.602 196.883 370.392 196.77C369.105 195.933 367.59 195.515 366.056 195.573C364.521 195.63 363.042 196.161 361.822 197.092C359.799 198.672 357.947 200.459 356.296 202.425C355.716 203.037 354.54 202.296 355.039 201.539C355.071 201.481 355.109 201.427 355.152 201.378C357.746 191.099 369.635 178.968 380.912 180.982Z" fill="#263238"/>
<path d="M341.764 72.1876C351.308 71.1494 360.953 71.513 370.392 73.267C380.88 75.4258 411.796 88.6685 417.241 97.6097C422.686 106.551 414.535 137.144 413.246 141.591C411.957 146.037 401.018 171.814 389.273 174.955C377.529 178.097 391.883 132.843 381.831 112.802C371.778 92.7605 341.764 72.1876 341.764 72.1876Z" fill="#263238"/>
<path opacity="0.1" d="M341.748 72.1886C341.748 72.1886 371.778 92.7615 381.815 112.803C391.851 132.844 377.497 178.066 389.29 174.956C394.461 173.587 397.925 170.123 402.049 163.679C404.514 149.873 406.125 127.705 399.971 109.871C394.22 93.1642 378.85 80.5015 360.694 71.9469C354.383 71.4954 348.046 71.5763 341.748 72.1886Z" fill="black"/>
<path d="M377.594 200.732C380.816 188.472 379.527 152.288 373.002 129.573C366.477 106.857 332.581 83.3683 327.233 81.8861C314.232 78.2935 308.609 80.6778 306.966 78.8574C305.323 77.0369 321.723 71.9138 326.04 70.9794C330.358 70.045 341.716 68.2568 347.209 70.2867C352.703 72.3166 385.713 87.2992 393.172 106.084C400.631 124.868 404.337 171.669 397.554 181.013C395.943 183.268 392.044 183.752 389.773 186.942C386.793 191.13 383.973 196.205 381.46 198.992C379.43 201.231 377.32 201.795 377.594 200.732Z" fill="#263238"/>
<path d="M372.873 120.327C376.404 119.541 379.864 118.464 383.216 117.105C386.626 115.765 389.87 114.035 392.882 111.949C393.091 111.788 393.365 112.078 393.172 112.256C390.412 114.838 387.258 116.965 383.828 118.555C380.391 120.061 376.703 120.913 372.954 121.068C372.519 121.052 372.486 120.407 372.873 120.327Z" fill="#263238"/>
<path d="M381.782 188.811C382.41 188.07 383.232 187.49 383.925 186.798C384.72 186.013 385.432 185.15 386.051 184.22C386.962 182.32 388.081 180.526 389.386 178.871C390.648 177.703 392.043 176.686 393.542 175.843C395.31 174.995 396.728 173.56 397.554 171.783C397.562 171.756 397.576 171.732 397.594 171.711C397.612 171.689 397.634 171.672 397.658 171.659C397.683 171.647 397.71 171.639 397.738 171.636C397.765 171.634 397.793 171.637 397.82 171.646C397.846 171.654 397.871 171.668 397.892 171.686C397.913 171.704 397.931 171.726 397.943 171.75C397.956 171.775 397.964 171.802 397.966 171.83C397.968 171.857 397.965 171.885 397.957 171.912C396.732 175.553 393.414 177.292 390.788 179.806C389.177 181.417 388.403 183.64 387.034 185.46C385.887 187.256 384.193 188.635 382.201 189.391C381.879 189.456 381.556 189.085 381.782 188.811Z" fill="#263238"/>
<path d="M382.04 174.474C383.651 173.491 385.262 172.685 386.792 171.558C388.234 170.446 389.601 169.24 390.884 167.949C392.157 166.692 393.317 165.323 394.557 164.034C396.04 162.52 397.779 161.15 399.1 159.572C399.278 159.362 399.552 159.684 399.374 159.878C397.941 161.489 396.764 163.422 395.379 165.13C394.155 166.584 392.837 167.957 391.432 169.238C390.117 170.486 388.688 171.608 387.163 172.589C385.648 173.623 383.937 174.336 382.136 174.683C382.109 174.696 382.077 174.697 382.048 174.687C382.019 174.676 381.996 174.654 381.983 174.627C381.97 174.599 381.969 174.567 381.98 174.538C381.99 174.51 382.012 174.486 382.04 174.474Z" fill="#263238"/>
<path d="M381.67 161.295C384.91 160.021 387.949 158.284 390.692 156.139C393.334 154.045 395.879 151.757 398.393 149.486C398.554 149.325 398.86 149.566 398.699 149.76C396.619 152.604 394.201 155.185 391.497 157.444C390.154 158.517 388.695 159.436 387.148 160.183C385.436 160.897 383.646 161.405 381.815 161.697C381.589 161.746 381.428 161.391 381.67 161.295Z" fill="#263238"/>
<path d="M380.719 148.47C382.266 148.045 383.717 147.323 384.988 146.344C386.47 145.361 387.952 144.33 389.386 143.267C390.82 142.203 392.173 141.237 393.543 140.206C395.001 139.258 396.242 138.011 397.184 136.549C397.296 136.339 397.651 136.549 397.554 136.726C396.871 138.319 395.861 139.751 394.59 140.931C393.267 142.309 391.828 143.57 390.288 144.7C388.774 145.811 387.186 146.817 385.536 147.713C384.125 148.633 382.467 149.1 380.783 149.05C380.706 149.059 380.629 149.036 380.569 148.988C380.508 148.94 380.47 148.869 380.461 148.792C380.452 148.715 380.475 148.638 380.523 148.578C380.571 148.517 380.642 148.479 380.719 148.47Z" fill="#263238"/>
<path d="M382.152 133.101C383.635 132.392 385.101 131.667 386.518 130.846C387.936 130.024 389.305 129.122 390.675 128.22C392.044 127.318 393.542 126.335 394.912 125.288C394.955 125.251 395.01 125.233 395.066 125.238C395.122 125.243 395.173 125.269 395.21 125.312C395.246 125.355 395.264 125.41 395.259 125.466C395.255 125.522 395.228 125.574 395.186 125.61C394.053 126.903 392.82 128.105 391.496 129.202C390.17 130.262 388.771 131.226 387.308 132.086C385.866 132.955 384.37 133.73 382.829 134.406C381.324 135.182 379.683 135.658 377.996 135.808C377.936 135.807 377.879 135.787 377.83 135.752C377.782 135.717 377.746 135.668 377.727 135.612C377.707 135.556 377.706 135.495 377.722 135.438C377.739 135.38 377.772 135.33 377.819 135.292C379.186 134.418 380.638 133.684 382.152 133.101Z" fill="#263238"/>
<path d="M365.994 110.403C367.686 109.339 369.329 108.292 371.101 107.374C372.911 106.458 374.773 105.646 376.675 104.941C380.35 103.487 384.176 102.45 388.081 101.848C388.307 101.848 388.468 102.138 388.226 102.235C380.928 105.151 373.485 107.777 366.203 110.773C366.154 110.801 366.096 110.808 366.042 110.793C365.987 110.778 365.941 110.742 365.914 110.693C365.886 110.644 365.879 110.585 365.894 110.531C365.909 110.477 365.945 110.43 365.994 110.403Z" fill="#263238"/>
<path d="M362.24 97.6908C363.937 96.6717 365.742 95.845 367.621 95.226C371.591 94.0349 375.682 93.2893 379.817 93.0027C379.867 92.9984 379.917 93.0122 379.957 93.0415C379.998 93.0708 380.027 93.1138 380.039 93.1625C380.05 93.2113 380.044 93.2626 380.021 93.3072C379.998 93.3518 379.96 93.3867 379.914 93.4055C376.095 94.4204 372.277 95.3548 368.54 96.6276C366.655 97.191 364.804 97.8634 362.998 98.6413C361.226 99.4469 359.663 100.607 357.939 101.493C357.81 101.493 357.633 101.396 357.73 101.267C358.988 99.7945 360.52 98.5799 362.24 97.6908Z" fill="#263238"/>
<path d="M353.879 89.6192C355.471 88.5859 357.166 87.722 358.938 87.0416C362.292 85.7359 365.844 85.006 369.442 84.8828C369.683 84.8828 369.699 85.2372 369.442 85.2856C365.931 86.0678 362.492 87.1457 359.163 88.5076C357.552 89.1843 355.861 89.9415 354.217 90.6825C352.649 91.5704 351.036 92.377 349.384 93.0991C349.239 93.0991 349.159 92.9541 349.255 92.8574C350.688 91.6302 352.236 90.5457 353.879 89.6192Z" fill="#263238"/>
<path d="M348.691 81.1939C350.302 80.5978 351.913 80.0984 353.524 79.5828C355.113 79.0094 356.782 78.694 358.47 78.6484C358.526 78.6484 358.579 78.6705 358.618 78.7098C358.658 78.7491 358.68 78.8023 358.68 78.8579C358.68 78.9134 358.658 78.9667 358.618 79.006C358.579 79.0452 358.526 79.0673 358.47 79.0673C355.361 80.1789 352.252 81.3711 349.175 82.5471C346.402 83.8291 343.772 85.4006 341.329 87.2352C341.216 87.3158 341.071 87.2352 341.152 87.0419C343.017 84.376 345.645 82.3372 348.691 81.1939Z" fill="#263238"/>
<path d="M340.443 76.2164C343.491 74.848 346.772 74.0768 350.11 73.9448C350.351 73.9448 350.383 74.3315 350.11 74.3637C346.932 74.9001 343.853 75.9102 340.975 77.3602C338.087 78.7834 335.359 80.5117 332.839 82.5155C332.71 82.6122 332.501 82.5155 332.614 82.3222C334.715 79.7071 337.395 77.6167 340.443 76.2164Z" fill="#263238"/>
<path d="M326.781 77.5701C327.28 77.041 327.818 76.5508 328.392 76.104C329.558 75.184 330.823 74.3952 332.162 73.7519C334.912 72.4906 337.784 71.5136 340.733 70.8359C340.99 70.8359 341.087 71.1743 340.829 71.2387C337.984 71.986 335.236 73.0676 332.645 74.4608C331.372 75.1388 330.15 75.9088 328.988 76.7645C328.424 77.1834 327.876 77.6345 327.377 78.1017C326.887 78.6064 326.348 79.0598 325.766 79.455C325.73 79.4713 325.69 79.4772 325.651 79.472C325.612 79.4667 325.575 79.4505 325.545 79.4253C325.515 79.4 325.492 79.3667 325.48 79.3292C325.468 79.2917 325.466 79.2516 325.476 79.2133C325.799 78.5852 326.242 78.0269 326.781 77.5701Z" fill="#263238"/>
<path d="M319.355 75.7645C320.35 75.0562 321.388 74.4105 322.464 73.8313C323.499 73.2193 324.576 72.681 325.686 72.2202C326.846 71.753 328.038 71.3503 329.182 70.8508C329.456 70.722 329.601 71.1247 329.311 71.2375C328.14 71.6797 327.009 72.2186 325.928 72.8485C324.897 73.4446 323.866 74.0085 322.835 74.5884L319.741 76.3445C318.737 77.0181 317.693 77.6314 316.616 78.181C316.439 78.181 316.31 78.0522 316.439 77.9072C317.323 77.0806 318.302 76.3614 319.355 75.7645Z" fill="#263238"/>
<path d="M489.093 487.385C516.706 505.315 540.646 474.013 539.567 451.056C536.989 397.135 485.871 310.896 455.712 281.559C444.435 270.604 373.985 333.418 380.396 348.932C387.388 365.832 437.717 453.988 489.093 487.385Z" fill="#EB9481"/>
<path d="M401.147 385.567C411.361 399.567 425.473 419.222 435.832 432.787C447.754 448.156 459.434 463.928 474.304 476.623C447.174 459.063 417.064 414.05 401.147 385.567Z" fill="#263238"/>
<path d="M384.553 248.678C387.147 238.512 378.464 217.472 378.206 202.812C377.948 188.151 391.094 175.102 395.927 178.26C400.76 181.417 398.763 187.845 406.753 208.402C411.909 221.629 433.658 242.717 440.311 268.01C443.71 280.641 381.96 258.86 384.553 248.678Z" fill="#EB9481"/>
<path d="M384.553 248.678C387.147 238.512 378.464 217.472 378.206 202.812C377.948 188.151 391.094 175.102 395.927 178.26C400.76 181.417 398.763 187.845 406.753 208.402C411.909 221.629 433.658 242.717 440.311 268.01C443.71 280.641 381.96 258.86 384.553 248.678Z" fill="#EB9481"/>
<path opacity="0.1" d="M384.553 248.678C387.147 238.512 378.464 217.472 378.206 202.812C377.948 188.151 391.094 175.102 395.927 178.26C400.76 181.417 398.763 187.845 406.753 208.402C411.909 221.629 433.658 242.717 440.311 268.01C443.71 280.641 381.96 258.86 384.553 248.678Z" fill="black"/>
<path d="M303.26 213.089C298.523 225.333 329.681 234.452 329.681 234.452C329.681 234.452 320.772 236.063 315.778 243.264C310.042 251.432 320.337 263.982 320.337 263.982C314.878 266.451 310.287 270.504 307.159 275.614C302.47 283.975 311.041 298.168 311.041 298.168C311.041 298.168 304.806 305.917 305.902 315.696C307.755 332.402 331.807 341.891 345.533 350.72C360.242 360.177 395.685 362.851 403.708 370.729L458.257 285.425C458.257 285.425 408.186 222.321 389.756 216.279C374.274 211.172 310.493 194.401 303.26 213.089Z" fill="#EB9481"/>
<path d="M330.052 234.194C347.854 235.644 365.269 241.347 382.008 247.082C382.085 247.11 382.147 247.167 382.182 247.241C382.217 247.315 382.221 247.4 382.193 247.477C382.165 247.554 382.108 247.616 382.034 247.651C381.96 247.686 381.875 247.69 381.798 247.662C365.221 241.814 346.678 240.251 329.891 235.08C329.773 235.058 329.669 234.991 329.601 234.893C329.533 234.795 329.507 234.674 329.528 234.556C329.55 234.439 329.617 234.335 329.715 234.267C329.813 234.199 329.934 234.172 330.052 234.194Z" fill="#263238"/>
<path d="M321.255 262.903C325.267 263.625 329.167 264.871 332.855 266.608C336.85 268.219 340.829 269.83 344.793 271.57C352.708 275.017 360.538 278.658 368.281 282.493C368.62 282.67 368.442 283.234 368.072 283.073C360.178 279.657 352.235 276.355 344.196 273.278C340.169 271.731 336.136 270.217 332.098 268.734C328.175 267.59 324.393 266.012 320.82 264.03C320.711 263.948 320.632 263.832 320.594 263.701C320.556 263.57 320.563 263.43 320.612 263.302C320.661 263.175 320.751 263.067 320.867 262.994C320.983 262.922 321.119 262.89 321.255 262.903Z" fill="#263238"/>
<path d="M311.444 298.265C314.956 298.522 318.549 300.697 321.706 302.147C325.283 303.79 328.865 305.402 332.452 306.98C339.637 310.202 346.822 313.424 354.12 316.34C354.475 316.502 354.282 317.065 353.911 316.92C346.484 313.956 339.025 311.088 331.63 308.06C327.99 306.578 324.381 305.063 320.756 303.533C317.679 302.228 313.7 300.955 311.267 298.571C311.255 298.539 311.249 298.505 311.252 298.471C311.254 298.437 311.265 298.404 311.282 298.375C311.299 298.345 311.322 298.32 311.35 298.301C311.378 298.282 311.411 298.27 311.444 298.265Z" fill="#263238"/>
<path d="M313.765 329.712C303.792 320.4 302.181 308.769 310.543 297.669V298.813C306.241 291.998 302.294 283.17 305.854 275.13C308.859 269.167 314.109 264.641 320.45 262.548L319.758 265.11C311.139 256.523 309.06 240.139 321.836 234.371C323.473 233.652 325.223 233.227 327.007 233.115L326.556 236.16C318.501 233.131 310.72 229.619 304.759 223.271C299.185 217.053 301.118 209.223 309.35 206.952C319.516 204.084 330.294 205.099 340.572 206.001C348.814 206.839 357.009 208.092 365.124 209.755C352.861 207.877 340.477 206.892 328.071 206.807C321.971 206.631 315.88 207.392 310.011 209.062C306.467 210.174 303.261 212.751 304.131 216.731C306.644 225.301 319.742 230.231 327.491 233.26L334.676 235.789L327.04 236.305C324.233 236.544 321.596 237.749 319.578 239.714C317.56 241.679 316.286 244.283 315.972 247.082C314.973 253.768 319.017 260.277 323.576 264.804L321.191 265.529C315.657 267.343 311.038 271.228 308.303 276.371C305.081 283.282 308.658 291.515 312.186 297.733L312.572 298.362L312.154 298.893C303.599 309.268 304.904 320.014 313.765 329.728V329.712Z" fill="#263238"/>
<path d="M0 685.15C204.698 684.489 434.302 684.478 639 685.15C434.302 685.822 204.698 685.812 0 685.15Z" fill="#263238"/>
<g opacity="0.5">
<path d="M248.228 125.047C248.228 126.484 248.654 127.888 249.453 129.083C250.251 130.278 251.386 131.209 252.713 131.759C254.041 132.309 255.502 132.453 256.911 132.173C258.321 131.892 259.615 131.2 260.631 130.184C261.648 129.168 262.34 127.873 262.62 126.464C262.9 125.055 262.756 123.594 262.206 122.266C261.657 120.938 260.725 119.804 259.53 119.005C258.336 118.207 256.931 117.781 255.494 117.781C253.567 117.781 251.719 118.546 250.356 119.909C248.994 121.271 248.228 123.12 248.228 125.047Z" fill="#8C9998"/>
<path d="M248.228 125.046C248.228 126.867 248.951 128.612 250.238 129.899C251.525 131.186 253.271 131.909 255.091 131.909C256.911 131.909 258.657 131.186 259.944 129.899C261.231 128.612 261.954 126.867 261.954 125.046C261.954 123.226 261.231 121.481 259.944 120.194C258.657 118.906 256.911 118.183 255.091 118.183C253.271 118.183 251.525 118.906 250.238 120.194C248.951 121.481 248.228 123.226 248.228 125.046ZM248.228 125.046C248.518 114.929 263.227 114.849 263.565 125.046C263.227 135.228 248.518 135.148 248.228 125.046Z" fill="#263238"/>
<path d="M239.303 113.673C245.077 113.673 249.759 108.992 249.759 103.217C249.759 97.4428 245.077 92.7617 239.303 92.7617C233.529 92.7617 228.847 97.4428 228.847 103.217C228.847 108.992 233.529 113.673 239.303 113.673Z" fill="#8C9998"/>
<path d="M228.831 103.218C228.827 104.864 229.227 106.486 229.995 107.942C230.763 109.398 231.876 110.643 233.237 111.569C234.599 112.495 236.166 113.073 237.802 113.252C239.439 113.432 241.094 113.207 242.623 112.599C244.153 111.99 245.51 111.016 246.575 109.761C247.641 108.506 248.382 107.009 248.735 105.401C249.088 103.793 249.041 102.124 248.599 100.538C248.157 98.9524 247.332 97.4994 246.198 96.3062C240.205 89.7171 228.703 94.228 228.831 103.218ZM228.831 103.218C228.828 101.416 229.273 99.6414 230.125 98.0539C230.977 96.4664 232.211 95.1156 233.714 94.1228C235.218 93.13 236.945 92.5265 238.739 92.3663C240.534 92.2061 242.34 92.4944 243.996 93.2052C245.652 93.916 247.105 95.0271 248.225 96.4386C249.344 97.8501 250.096 99.5177 250.412 101.292C250.728 103.065 250.598 104.89 250.034 106.601C249.47 108.313 248.49 109.857 247.181 111.096C245.633 112.541 243.699 113.504 241.613 113.868C239.527 114.232 237.381 113.981 235.435 113.146C233.489 112.31 231.829 110.927 230.656 109.164C229.484 107.401 228.85 105.335 228.831 103.218Z" fill="#263238"/>
<path opacity="0.5" d="M152.919 124.74C199.061 124.74 236.467 96.8916 236.467 62.5384C236.467 28.1852 199.061 0.336426 152.919 0.336426C106.776 0.336426 69.3706 28.1852 69.3706 62.5384C69.3706 96.8916 106.776 124.74 152.919 124.74Z" fill="#8C9998"/>
<path d="M71.6586 48.0868C61.9924 77.9392 84.0635 105.005 110.71 115.96C123.969 121.484 138.196 124.312 152.56 124.279C166.924 124.246 181.137 121.352 194.371 115.766C211.641 108.372 227.542 95.0323 233.406 76.7471C245.827 35.4563 204.198 6.05494 167.515 1.70515C131.009 -3.43404 84.9979 10.5175 71.6586 48.0868ZM71.6586 48.0868C84.9496 10.3403 131.009 -3.78847 167.612 0.851305C186.654 3.3323 205.584 10.6303 219.616 24.0824C233.873 37.2606 241.349 58.333 234.937 77.2465C218.085 124.305 151.872 135.244 110.517 116.427C83.9669 105.15 61.8635 77.9876 71.6586 48.1029V48.0868Z" fill="#263238"/>
</g>
<path d="M153.386 65.9056V72.0437C153.401 72.6579 153.291 73.2688 153.063 73.839C152.834 74.4092 152.491 74.9266 152.055 75.3596C151.619 75.7925 151.099 76.1318 150.527 76.3567C149.956 76.5816 149.344 76.6873 148.73 76.6673C147.505 76.6631 146.331 76.1746 145.465 75.3084C144.599 74.4422 144.11 73.2686 144.106 72.0437V62.2164C144.106 62.1197 144.203 62.1197 144.203 62.023C144.203 61.9264 144.106 61.9264 144.106 61.8297C144.165 60.6256 144.672 59.4871 145.528 58.6376C146.383 57.7882 147.525 57.2891 148.73 57.2383C151.537 57.2383 154.229 56.1231 156.214 54.1382C158.199 52.1532 159.314 49.461 159.314 46.6538C159.314 43.8466 158.199 41.1544 156.214 39.1694C154.229 37.1845 151.537 36.0693 148.73 36.0693C146.896 36.0642 145.093 36.5406 143.502 37.451C141.91 38.3614 140.585 39.6737 139.66 41.2568C139.353 41.7963 138.941 42.2691 138.45 42.6478C137.958 43.0265 137.396 43.3034 136.796 43.4624C136.196 43.6214 135.57 43.6592 134.956 43.5737C134.341 43.4883 133.749 43.2812 133.216 42.9645C132.693 42.6557 132.236 42.2467 131.872 41.7609C131.508 41.2751 131.244 40.7221 131.094 40.1337C130.944 39.5454 130.912 38.9333 131 38.3325C131.088 37.7318 131.293 37.1542 131.605 36.6332C133.256 33.787 135.589 31.3957 138.393 29.6741C141.197 27.9524 144.385 26.9544 147.671 26.7696C150.956 26.5849 154.236 27.2192 157.215 28.6155C160.195 30.0119 162.781 32.1266 164.741 34.7697C166.701 37.4127 167.974 40.5013 168.445 43.758C168.916 47.0146 168.571 50.3374 167.44 53.4276C166.31 56.5178 164.429 59.2787 161.968 61.4624C159.506 63.646 156.54 65.1839 153.337 65.9379L153.386 65.9056ZM153.386 86.5913V88.299C153.401 88.9132 153.291 89.5241 153.063 90.0943C152.834 90.6645 152.491 91.182 152.055 91.6149C151.619 92.0478 151.099 92.3871 150.527 92.612C149.956 92.8369 149.344 92.9426 148.73 92.9227C147.505 92.9184 146.331 92.4299 145.465 91.5637C144.599 90.6975 144.11 89.524 144.106 88.299V86.5913C144.127 85.3715 144.621 84.2074 145.483 83.3448C146.346 82.4821 147.51 81.9883 148.73 81.9676C149.342 81.9568 149.949 82.0688 150.517 82.2969C151.084 82.5251 151.601 82.8647 152.035 83.2958C152.469 83.7269 152.812 84.2406 153.044 84.8067C153.276 85.3727 153.392 85.9796 153.386 86.5913Z" fill="#263238"/>
</svg>
