<svg width="729" height="409" viewBox="0 0 729 409" fill="none" xmlns="http://www.w3.org/2000/svg">
<path d="M246.067 94.5664C246.067 94.5664 264.095 130.596 268.434 181.202C272.774 231.808 259.155 289.112 259.155 289.112C259.155 289.112 195.196 228.086 204.344 186.274C213.496 144.459 246.067 94.5664 246.067 94.5664Z" fill="#8C9998"/>
<path d="M-42.396 153.746C-42.396 153.746 122.412 166.469 213.493 144.459C304.574 122.45 307.938 122.046 318.293 113.792C328.649 105.539 398.193 66.4666 420.93 55.8953C443.667 45.324 463.705 43.3788 488.981 34.5317C514.256 25.6847 549.123 3.00044 560.631 1.66522C572.139 0.329997 576.831 24.789 562.305 42.0988C547.778 59.4086 542.267 61.8942 504.732 80.4239C467.197 98.9537 469.166 107.666 469.166 107.666C469.166 107.666 500.301 123.807 512.652 128.319C525.003 132.831 550.53 121.878 550.53 121.878C550.53 121.878 557.202 111.943 564.649 109.621C572.096 107.296 572.929 112.133 572.929 112.133C572.929 112.133 608.034 99.6838 612.457 94.4702C612.457 94.4702 612.347 68.3085 620.26 61.1305C628.172 53.9525 636.311 50.773 640.819 51.0515C645.326 51.3301 647.929 70.8852 647.929 70.8852C647.929 70.8852 663.09 51.2844 669.836 47.0602C676.581 42.8361 687.22 42.9897 687.22 42.9897C687.22 42.9897 694.614 30.8119 705.18 30.4781C715.749 30.1419 727.296 37.865 727.497 40.7828C727.697 43.6982 717.075 57.9821 706.312 72.5231C695.546 87.0664 675.534 119.842 671.356 126.143C667.177 132.445 656.474 141.746 652.876 144.322C652.876 144.322 648.765 179.122 647.588 188.245C646.412 197.369 637.322 205.98 629.635 211.203C621.948 216.427 602.044 226.025 598.598 231.604C595.152 237.185 595.037 243.239 581.774 251.474C568.51 259.708 519.65 272.266 496.49 276.43C473.328 280.596 437.114 273.875 409.557 276.908C382 279.941 338.365 261.75 280.722 271.072C223.08 280.395 1.50536 336.524 1.50536 336.524L-42.396 153.746Z" fill="#F7E8E0"/>
<path d="M584.511 135.218C584.696 135.562 584.876 135.968 584.749 136.318C584.677 136.568 584.461 136.758 584.257 136.921C581.378 139.142 577.302 139.416 573.878 138.203C570.472 136.986 567.658 134.428 565.521 131.482C563.386 128.535 561.846 125.207 560.357 121.905C565.3 120.166 569.649 116.763 572.499 112.378C576.51 119.998 580.508 127.598 584.511 135.218Z" fill="#4E615F"/>
<path d="M643.695 53.96C647.046 62.9823 649.005 72.5353 649.461 82.1532C648.076 82.2661 646.625 81.8146 645.307 81.3007C643.035 80.4626 640.706 79.4948 639.027 77.7513C637.007 75.6284 636.179 72.6554 635.454 69.8192C634.625 66.6997 633.813 63.5754 633.004 60.4511C632.949 60.259 632.918 60.0813 632.949 59.9036C633.026 59.5265 633.432 59.344 633.787 59.1999C637.293 57.8383 640.617 56.0733 643.695 53.96Z" fill="#4E615F"/>
<path d="M727.616 40.8235C727.63 41.299 727.404 41.7408 727.179 42.1827C723 50.0259 717.906 57.3816 712.054 64.0649C709.155 62.5112 707.933 58.7553 708.365 55.4556C708.831 52.1248 710.63 49.1349 712.496 46.3108C715.111 42.3292 718.264 38.1915 722.863 36.9283C723.247 36.8154 723.663 36.7362 724.037 36.8779C724.607 37.1084 724.854 37.7447 725.238 38.1962C725.999 39.1472 727.534 39.6156 727.616 40.8235Z" fill="#4E615F"/>
<path d="M287.199 216.974C287.156 216.974 287.113 216.972 287.07 216.967C286.412 216.897 285.934 216.306 286.003 215.646C288.081 196.172 288.472 176.389 287.17 156.848C287.127 156.188 287.627 155.614 288.29 155.571C288.94 155.504 289.524 156.025 289.567 156.69C290.876 176.368 290.482 196.29 288.39 215.901C288.326 216.518 287.804 216.974 287.199 216.974Z" fill="#1F2726"/>
<path d="M449.801 220.432C449.371 220.432 448.955 220.202 448.739 219.796C440.618 204.559 430.334 187.093 415.659 173.066C400.534 158.611 382.603 150.144 365.168 149.217C364.505 149.181 363.996 148.616 364.032 147.956C364.068 147.296 364.644 146.719 365.295 146.82C383.304 147.774 401.781 156.479 417.318 171.33C432.241 185.59 442.649 203.26 450.862 218.665C451.174 219.251 450.953 219.979 450.367 220.291C450.185 220.389 449.99 220.432 449.801 220.432Z" fill="#1F2726"/>
<path d="M454.868 242.963C454.824 242.963 454.779 242.961 454.736 242.956C454.075 242.884 453.6 242.291 453.674 241.631C454.774 231.636 457.894 221.689 462.701 212.863C465.694 207.369 469.37 202.213 472.927 197.225L504.674 152.721C505.061 152.181 505.81 152.061 506.351 152.44C506.891 152.824 507.016 153.576 506.632 154.114L474.889 198.611C471.368 203.548 467.732 208.644 464.81 214.011C460.151 222.563 457.125 232.207 456.061 241.892C455.992 242.51 455.473 242.963 454.868 242.963Z" fill="#1F2726"/>
<path d="M469.169 108.862C468.986 108.862 468.801 108.819 468.626 108.73C457.704 103.175 436.878 97.9857 436.669 97.9353C436.026 97.7768 435.632 97.1236 435.793 96.4824C435.951 95.8364 436.605 95.4498 437.246 95.6059C438.11 95.8196 458.547 100.916 469.714 106.593C470.304 106.893 470.54 107.616 470.24 108.206C470.028 108.624 469.606 108.862 469.169 108.862Z" fill="#1F2726"/>
<path d="M462.59 95.414C462.168 95.414 461.757 95.1883 461.539 94.792C460.117 92.2129 458.381 89.869 456.378 87.835C452.221 83.6084 446.887 80.6569 441.729 77.7992C441.148 77.4774 440.939 76.7449 441.26 76.1662C441.582 75.585 442.315 75.3785 442.893 75.6979C448.201 78.6373 453.691 81.6752 458.09 86.1515C460.247 88.3441 462.115 90.8632 463.642 93.6345C463.962 94.2157 463.75 94.9457 463.169 95.2651C462.984 95.366 462.787 95.414 462.59 95.414Z" fill="#1F2726"/>
<path d="M1.5129 337.721C0.977371 337.721 0.487469 337.361 0.350586 336.815C0.187283 336.172 0.576332 335.519 1.21992 335.358C3.43649 334.796 223.505 279.106 280.538 269.881C316.044 264.135 346.297 268.786 370.608 272.521C385.797 274.855 398.914 276.875 409.432 275.71C422.669 274.255 437.878 275.03 452.589 275.779C468.895 276.615 484.301 277.398 496.286 275.242C518.584 271.231 567.742 258.772 581.15 250.446C591.104 244.267 593.337 239.544 595.498 234.974C596.152 233.593 596.769 232.289 597.585 230.966C600.068 226.943 609.934 221.321 618.637 216.362C622.683 214.057 626.504 211.879 628.968 210.205C632.719 207.654 645.06 198.526 646.405 188.085C647.567 179.072 651.65 144.522 651.69 144.176C651.731 143.84 651.909 143.538 652.185 143.341C655.79 140.759 666.323 131.569 670.364 125.474C671.479 123.793 673.722 120.222 676.618 115.618C684.406 103.229 697.443 82.492 705.356 71.8006L706.009 70.9217C715.099 58.6406 726.412 43.3576 726.309 40.8529C726.155 39.0469 715.867 31.331 705.229 31.672C695.448 31.9818 688.325 43.4921 688.255 43.6074C688.034 43.97 687.557 44.1885 687.213 44.1837C687.112 44.1837 676.846 44.0876 670.482 48.0716C663.993 52.1325 649.037 71.4188 648.888 71.6133C648.59 72 648.091 72.1657 647.627 72.0384C647.159 71.9135 646.813 71.5173 646.748 71.0394C645.43 61.1429 642.63 52.3631 640.754 52.2478C636.715 52.0005 628.864 54.9519 621.074 62.017C613.644 68.758 613.663 94.2064 613.666 94.4634C613.666 94.7492 613.565 95.0253 613.38 95.2438C608.875 100.551 576.961 111.977 573.338 113.262C573.004 113.38 572.634 113.344 572.331 113.166C572.024 112.988 571.815 112.683 571.755 112.333C571.75 112.306 571.536 111.317 570.499 110.702C569.303 109.994 567.406 110.015 565.014 110.762C558.064 112.933 551.599 122.448 551.537 122.544C551.407 122.734 551.227 122.887 551.013 122.978C549.952 123.43 524.893 134.066 512.249 129.443C499.968 124.955 469.897 109.386 468.624 108.728C468.309 108.565 468.083 108.269 468.004 107.926C467.781 106.939 466.904 97.7606 504.209 79.3437L506.735 78.0949C541.95 60.7178 547.361 58.045 561.393 41.3212C570.85 30.051 572.13 15.1979 567.901 7.35226C566.892 5.47911 564.608 2.40045 560.776 2.85433C555.134 3.50513 543.391 9.6337 529.792 16.7253C516.704 23.5526 501.87 31.2902 489.384 35.6585C478.936 39.3159 469.407 41.7943 460.192 44.1885C447.095 47.5914 434.724 50.8046 421.444 56.9787C397.931 67.9127 329.031 106.769 319.048 114.727C309.171 122.601 306.226 123.312 230.76 141.525L213.782 145.624C123.558 167.425 -40.8323 155.069 -42.4821 154.94C-43.1425 154.889 -43.6372 154.313 -43.5868 153.653C-43.5364 152.992 -42.9696 152.442 -42.2972 152.548C-40.6498 152.67 123.366 165.002 213.217 143.29L230.198 139.191C305.165 121.101 308.092 120.394 317.552 112.851C327.607 104.835 396.834 65.7729 420.431 54.803C433.91 48.5351 446.384 45.2956 459.587 41.8639C468.756 39.4816 478.237 37.0177 488.592 33.3938C500.914 29.0808 515.666 21.3865 528.682 14.5975C542.493 7.39548 554.419 1.17325 560.499 0.46722C564.404 0.025349 567.773 2.05461 570.014 6.21396C574.622 14.7656 573.342 30.8147 563.23 42.8677C548.876 59.9782 543.403 62.6775 507.797 80.249L505.27 81.4978C474.815 96.5334 470.917 104.888 470.427 106.961C475.112 109.374 501.956 123.127 513.07 127.191C524.117 131.235 546.806 122.124 549.748 120.906C550.97 119.158 557.197 110.69 564.296 108.471C567.437 107.494 569.956 107.556 571.786 108.678C572.72 109.247 573.29 109.979 573.631 110.608C583.774 106.965 607.03 98.0728 611.264 93.9927C611.288 90.244 611.759 67.2234 619.46 60.24C627.813 52.6657 636.271 49.5774 640.901 49.8512C645.243 50.1178 647.69 61.5776 648.718 67.9439C652.922 62.6535 663.657 49.5126 669.207 46.0376C675.254 42.2505 684.06 41.8279 686.57 41.7846C688.236 39.2703 695.294 29.5851 705.152 29.2705C715.594 28.9512 728.42 36.5758 728.706 40.6919C728.907 43.6649 722.207 53.0716 707.94 72.3506L707.289 73.2319C699.429 83.8489 686.423 104.535 678.652 116.898C675.741 121.526 673.486 125.113 672.365 126.802C668.126 133.194 657.845 142.121 654.015 144.976C653.496 149.351 649.873 179.975 648.787 188.39C647.353 199.513 635.394 208.74 630.32 212.188C627.774 213.92 623.915 216.12 619.825 218.451C611.79 223.029 601.79 228.727 599.629 232.229C598.882 233.439 598.294 234.683 597.669 236.001C595.467 240.66 592.972 245.936 582.415 252.488C568.765 260.962 519.17 273.568 496.711 277.607C484.454 279.809 468.919 279.017 452.467 278.179C437.851 277.432 422.739 276.661 409.696 278.097C398.868 279.288 385.602 277.249 370.245 274.893C346.1 271.188 316.053 266.575 280.922 272.249C223.99 281.457 4.02485 337.123 1.81068 337.682C1.70982 337.709 1.60896 337.721 1.5129 337.721Z" fill="#1F2726"/>
<path d="M521.996 215.984C521.595 215.984 521.201 215.783 520.973 215.415C520.625 214.853 520.8 214.111 521.364 213.761C527.964 209.683 551.159 202.853 555.79 201.511C556.849 194.508 564.36 182.448 566.123 179.691C564.596 176.233 556.805 158.493 552.756 147.626C548.198 135.386 549.289 122.317 549.337 121.767C549.394 121.109 549.973 120.648 550.638 120.677C551.299 120.735 551.786 121.318 551.729 121.979C551.717 122.108 550.643 135.074 555.009 146.788C559.461 158.743 568.491 179.107 568.58 179.311C568.745 179.684 568.709 180.116 568.486 180.457C568.388 180.608 558.618 195.603 558.083 202.536C558.045 203.038 557.699 203.463 557.216 203.598C556.94 203.677 529.529 211.534 522.623 215.804C522.431 215.927 522.212 215.984 521.996 215.984Z" fill="#1F2726"/>
<path d="M515.154 235.595C514.981 235.595 514.803 235.557 514.635 235.478C514.037 235.189 513.785 234.474 514.073 233.876C514.141 233.732 520.927 219.46 522.916 205.293C523.007 204.638 523.607 204.186 524.27 204.27C524.926 204.362 525.384 204.969 525.293 205.625C523.252 220.171 516.525 234.318 516.237 234.911C516.033 235.343 515.603 235.595 515.154 235.595Z" fill="#1F2726"/>
<path d="M564.392 212.092C564.06 212.092 563.731 211.955 563.494 211.688L555.991 203.242C555.552 202.748 555.595 201.989 556.092 201.547C556.587 201.11 557.343 201.151 557.788 201.648L565.29 210.094C565.729 210.589 565.684 211.347 565.189 211.789C564.961 211.991 564.675 212.092 564.392 212.092Z" fill="#1F2726"/>
<path d="M571.958 182.403C571.841 182.403 571.718 182.386 571.598 182.35L567.124 180.95C566.49 180.751 566.14 180.078 566.337 179.444C566.533 178.81 567.199 178.457 567.84 178.657L572.314 180.057C572.948 180.256 573.298 180.929 573.101 181.562C572.943 182.074 572.467 182.403 571.958 182.403Z" fill="#1F2726"/>
<path d="M598.606 232.798C598.505 232.798 598.404 232.786 598.303 232.76C597.662 232.592 597.278 231.936 597.444 231.295C603.555 207.782 609.564 181.337 608.656 178.638C607.47 175.103 600.95 163.573 590.299 146.167C582.578 133.557 571.971 112.883 571.865 112.674C571.563 112.086 571.796 111.36 572.387 111.058C572.977 110.755 573.698 110.991 574.003 111.581C574.108 111.788 584.675 132.383 592.348 144.916C599.948 157.334 609.343 173.131 610.935 177.874C612.479 182.473 601.903 223.685 599.768 231.9C599.627 232.44 599.141 232.798 598.606 232.798Z" fill="#1F2726"/>
<path d="M605.073 170.001C604.958 170.001 604.838 169.984 604.723 169.951C604.089 169.756 603.731 169.084 603.926 168.45C604.029 168.106 614.449 134.041 616.087 125.533C617.741 116.948 611.375 95.0246 611.31 94.8036C611.123 94.1648 611.49 93.4997 612.124 93.3147C612.758 93.1274 613.426 93.4924 613.616 94.1288C613.884 95.0534 620.21 116.837 618.447 125.989C616.783 134.622 606.651 167.748 606.221 169.156C606.063 169.67 605.587 170.001 605.073 170.001Z" fill="#1F2726"/>
<path d="M652.882 145.516C652.836 145.516 652.788 145.514 652.737 145.507C652.079 145.43 651.609 144.832 651.686 144.174C651.931 142.121 652.18 140.13 652.423 138.199C653.876 126.674 655.024 117.573 653.187 107.969C651.018 96.632 646.791 71.3301 646.748 71.0755C646.64 70.4223 647.082 69.8051 647.735 69.6947C648.388 69.5842 649.008 70.0261 649.118 70.6817C649.162 70.9338 653.383 96.2118 655.547 107.52C657.454 117.496 656.229 127.229 654.808 138.499C654.565 140.425 654.315 142.409 654.073 144.455C654.001 145.07 653.482 145.516 652.882 145.516Z" fill="#1F2726"/>
<path d="M650.375 86.4683C650.027 86.4683 649.678 86.317 649.443 86.024C649.025 85.5101 649.102 84.7537 649.616 84.3358C649.753 84.2229 663.41 73.0681 669.234 64.6869C675.18 56.1281 686.176 42.3676 686.286 42.2284C686.702 41.712 687.458 41.6304 687.975 42.041C688.491 42.4565 688.577 43.2106 688.162 43.7293C688.052 43.8662 677.103 57.5666 671.205 66.0558C665.187 74.7179 651.7 85.731 651.129 86.1969C650.91 86.3794 650.641 86.4683 650.375 86.4683Z" fill="#1F2726"/>
<path d="M584.3 134.608C583.783 134.608 583.305 134.272 583.149 133.755C582.957 133.119 583.317 132.451 583.951 132.259C590.793 130.194 615.615 111.633 615.865 111.446C616.395 111.047 617.147 111.16 617.546 111.688C617.944 112.219 617.836 112.97 617.303 113.369C616.268 114.142 591.888 132.372 584.643 134.557C584.53 134.591 584.415 134.608 584.3 134.608Z" fill="#1F2726"/>
<path opacity="0.1" d="M604.831 198.709C591.476 193.805 578.122 188.903 564.767 183.999C563.403 183.5 561.864 184.482 561.292 185.736C560.259 186.576 559.791 187.976 560.819 189.379C569.296 200.956 579.697 210.942 591.539 218.951C578.856 217.435 566.878 210.843 559.248 200.397C556.984 197.296 551.842 200.423 554.133 203.559C565.06 218.518 583.782 227.087 602.276 225.043C605.129 224.728 606.473 220.951 603.671 219.4C591.286 212.536 580.233 203.461 571.085 192.688C581.849 196.641 592.612 200.591 603.378 204.542C604.903 205.101 606.658 203.807 607.023 202.352C607.451 200.634 606.361 199.27 604.831 198.709Z" fill="#1F2726"/>
<path d="M259.155 289.11C252.262 303.975 242.969 318.384 227.575 322.298C220.923 323.979 213.791 323.451 207.355 325.805C201.663 327.894 197.029 332.072 192.081 335.579C179.978 344.176 165.305 349.075 150.488 349.459C137.88 349.795 125.032 346.986 112.809 350.131C94.1013 354.934 81.7818 372.129 66.9887 384.545C47.1525 401.187 11.0344 410.096 -14.9016 408.559C-33.8012 325.468 -52.1004 216.778 -71 133.687C-57.2636 130.781 -45.2082 123.841 -30.5832 116.252C-8.87387 105.037 12.4993 92.021 36.514 87.5062C53.6845 84.2883 71.6956 85.6571 88.1697 91.4446C99.8889 95.5511 111.032 101.891 123.375 103.356C140.21 105.325 156.516 98.0247 172.918 93.7501C196.812 87.5543 222.316 87.8665 246.067 94.5666C237.133 114.667 228.056 135.968 219.626 160.151C216.36 169.565 213.311 179.291 213.431 189.257C213.527 199.535 217.009 209.453 220.851 218.963C230.841 243.722 243.713 267.305 259.155 289.11Z" fill="#CBD9D1"/>
<path d="M242.004 308.862C198.65 265.839 178.886 202.834 190.48 142.79C193.878 125.194 199.755 108.158 208.011 92.2534C210.143 88.1445 203.928 84.4966 201.791 88.6176C186.64 117.803 179.035 150.739 180.029 183.625C180.975 214.906 189.829 245.72 205.364 272.871C213.964 287.902 224.619 301.758 236.908 313.955C240.205 317.226 245.301 312.135 242.004 308.862Z" fill="#8C9998"/>
<path d="M205.443 320.482C166.76 274.655 146.3 215.18 148.509 155.261C149.177 137.142 151.922 119.188 156.585 101.672C157.779 97.1885 150.831 95.2746 149.638 99.7581C133.207 161.457 141.137 228.074 171.803 284.088C179.884 298.848 189.495 312.723 200.347 325.578C203.344 329.123 208.419 324.005 205.443 320.482Z" fill="#8C9998"/>
</svg>
