<svg width="575" height="625" viewBox="0 0 575 625" fill="none" xmlns="http://www.w3.org/2000/svg">
<path opacity="0.1" d="M572.766 314.409C576.051 296.05 574.623 276.585 567.016 259.434C559.889 243.367 548.267 229.581 533.667 219.812C528.919 216.637 523.845 213.975 518.564 211.868C518.396 213.454 517.95 214.947 517.305 216.437C517.072 216.979 516.816 217.508 516.565 218.042C539.321 227.295 557.609 247.976 564.579 271.567C575.978 310.155 558.151 352.567 529.37 378.698C499.6 405.726 458.614 417.934 419.105 419.873C414.793 420.086 410.455 420.158 406.109 420.101C404.114 402.777 399.602 385.725 391.972 370.015C383.862 353.321 372.321 338.508 358.519 326.134C330.598 301.107 295.036 286.222 259.469 275.732C258.366 275.406 257.257 275.102 256.154 274.786C252.114 230.335 260.609 185.848 268.276 142.221C271.982 121.131 276.25 99.82 276.95 78.3616C277.535 60.4153 275.129 41.4763 265.007 26.2022C245.18 -3.7187 203.941 -5.6341 174.404 9.94841C145.675 25.1058 130.406 55.8276 123.403 86.8942C112.211 79.0044 100.105 72.4754 86.8647 68.7716C69.1771 63.8262 49.4512 64.4872 32.8825 72.8253C15.8166 81.4149 4.95902 98.397 1.64632 116.945C-5.69911 158.063 22.6155 194.056 54.3775 216.326C89.7163 241.102 131.909 252.885 173.5 262.267C199.064 268.034 224.863 273.006 250.122 279.897C253.582 311.586 263.323 343.15 282.143 368.963C293.682 384.789 308.492 397.881 325.705 407.235C344.149 417.258 364.8 422.999 385.6 425.319C390.423 425.855 395.285 426.226 400.167 426.441C401.545 442.957 400.698 459.734 398.131 475.975C391.646 517.007 374.774 558.032 343.631 586.465C315.078 612.534 272.743 625.895 235.115 613.926C199.261 602.522 173.627 572.057 142.517 552.441C129.352 544.139 115.055 538.058 99.67 536.078C99.7554 536.293 99.8228 536.519 99.8616 536.765C100.191 538.761 99.4706 540.715 98.3465 542.34C133.597 546.306 160.7 574.317 187.779 594.645C202.475 605.676 218.191 615.761 235.975 620.942C254.421 626.318 274.176 625.857 292.71 621.155C332.173 611.148 363.124 582.287 381.894 546.868C400.846 511.108 409.727 468.396 406.852 428.032C406.818 427.561 406.759 427.091 406.722 426.617C439.976 427.081 473.857 420.01 503.179 404.648C538.124 386.347 565.706 353.875 572.766 314.409ZM139.171 247.037C99.3022 235.825 58.5915 218.638 30.7069 186.804C17.9378 172.227 8.22508 154.019 7.06991 134.388C5.97431 115.809 12.3744 95.7377 27.4123 83.9627C42.041 72.5065 61.798 70.1142 79.6177 73.7092C95.1659 76.8428 109.222 84.5096 121.976 93.8482C121.069 98.6977 120.354 103.526 119.81 108.28C117.754 126.338 115.392 150.092 131.093 163.086C137.63 168.495 146.742 171.52 155.022 168.568C163.059 165.703 168.113 158.06 169.563 149.885C173.168 129.557 156.139 114.21 142.429 102.101C138.138 98.3115 133.703 94.6129 129.116 91.1086C129.562 88.9703 130.026 86.8371 130.549 84.717C135.289 65.4591 143.502 46.6938 156.939 31.8914C168.7 18.9345 184.368 10.218 201.719 7.55089C217.65 5.10155 235.084 7.50164 248.169 17.5038C279.856 41.7251 270.653 89.2891 265.02 122.981C257.294 169.184 246.915 215.691 248.829 262.825C248.967 266.184 249.192 269.556 249.464 272.928C213.006 263.058 175.549 257.268 139.171 247.037ZM127.772 98.27C130.347 100.312 132.875 102.399 135.34 104.522C148.397 115.765 168.27 131.537 162.603 151.241C160.234 159.48 152.852 164.776 144.263 162.769C135.144 160.636 129.124 152.728 126.677 144.087C123.967 134.523 124.765 124.096 125.674 114.324C126.172 108.951 126.873 103.594 127.772 98.27ZM301.941 381.938C274.834 355.819 261.345 318.571 256.882 281.802C268.087 285.035 279.172 288.687 290.063 293.028C324.408 306.716 357.423 327.041 378.05 358.543C390.203 377.104 396.88 398.189 399.506 419.922C363.808 418.295 328.062 407.108 301.941 381.938Z" fill="#1F2726"/>
</svg>
