<svg width="693" height="557" viewBox="0 0 693 557" fill="none" xmlns="http://www.w3.org/2000/svg">
<path d="M694.122 0L722.999 283.496C719.289 285.446 715.307 286.899 711.186 287.963C700.606 290.694 689.014 290.807 678.012 289.992C671.639 289.534 665.201 288.821 658.762 288.287C653.097 287.836 647.444 287.526 641.834 287.634C635.259 287.759 628.744 288.465 622.375 290.221C607.227 294.382 594.045 304.185 578.764 307.838C575.952 308.508 573.118 308.976 570.249 309.269C554.392 311.025 537.745 308.57 523.057 314.68C521.859 315.184 520.687 315.727 519.558 316.325C506.641 322.998 496.819 335.14 483.495 341.211C474.159 345.466 463.398 346.221 453.439 343.769C447.822 342.407 442.459 340.013 437.747 336.665C430.31 341.17 422.849 345.656 415.409 350.14C410.877 346.794 406.562 343.185 402.482 339.309C374.236 312.574 357.046 274.157 356.47 235.256C356.402 232.422 356.458 229.595 356.594 226.783C366.654 221.709 376.714 216.637 386.769 211.541C387.732 194.298 390.549 175.661 403.113 164.933C404.004 164.177 404.938 163.459 405.935 162.772C417.594 154.816 433.069 155.455 446.021 149.886C458.876 144.367 467.98 133.488 477.372 122.84C481.435 118.237 485.544 113.688 490.047 109.623C491.946 107.898 493.935 106.265 495.995 104.745C513.564 91.9164 536.412 88.9842 555.713 78.9196C558.506 77.4668 561.202 75.8626 563.83 74.1647C581.764 62.5488 596.17 45.7697 613.153 32.5376C636.388 14.4425 664.831 3.16514 694.122 0Z" fill="#CBD9D1"/>
<path d="M356.47 235.256C350.587 239.984 344.703 244.713 338.819 249.463C326.98 259.009 315.083 268.581 301.921 276.227C266.701 296.717 225.042 302.067 185.279 310.993C175.454 313.222 164.712 316.351 158.764 324.209C150.633 326.85 143.68 332.755 138.649 339.734C133.548 346.821 130.21 354.976 127.449 363.276C107.901 378.239 81.2852 383.126 63.2741 400.129C58.1998 404.896 53.9948 410.482 50.0036 416.188C44.3601 424.256 39.1249 432.606 33.8921 440.954C24.5167 455.91 15.1221 470.867 5.74679 485.823C3.58306 489.308 1.33288 492.919 0.881398 496.995C0.761324 497.994 0.768567 499.041 1.1456 499.989C1.89726 501.826 3.90967 502.789 5.82125 503.38C14.7763 506.053 24.6272 503.498 32.6386 498.673C40.6283 493.851 47.1122 486.906 53.4665 480.074C61.1464 471.818 68.8095 463.583 76.4894 455.327C71.4223 471.638 66.8355 488.097 62.7242 504.694C61.7804 508.476 60.8607 512.316 60.9976 516.211C61.1128 519.907 62.1622 523.485 63.0316 527.083C64.5565 533.353 65.5723 539.758 66.0478 546.215C66.2352 548.855 66.4513 551.756 68.3148 553.638C69.8878 555.23 72.2917 555.711 74.525 555.483C82.2242 554.738 87.4546 547.337 90.4348 540.204C93.684 532.34 95.5427 523.91 95.8669 515.416C95.9942 512.321 95.915 509.168 96.573 506.137C97.1445 503.44 98.254 500.89 99.3659 498.359C106.65 481.863 113.969 465.305 122.783 449.602C131.519 479.795 133.63 511.61 141.312 542.133C142.263 545.925 143.339 549.781 145.657 552.93C146.243 553.737 146.965 554.508 147.902 554.796C148.923 555.115 149.999 554.803 150.986 554.421C157.402 551.955 162.313 546.379 164.972 540.043C167.174 534.763 167.935 528.985 167.834 523.255C168.271 523.007 168.706 522.722 169.121 522.438C196.575 503.628 226.044 487.773 256.879 475.245C273.05 468.662 289.709 462.937 304.569 453.768C326.975 439.964 344.141 419.038 358.192 396.776C371.182 376.174 382.742 353.202 402.478 339.304C374.236 312.574 357.046 274.157 356.47 235.256ZM172.529 476.349C170.622 478.196 168.761 480.098 166.989 482.091C166.989 482.091 163.946 448.86 163.022 443.154L165.841 437.81C165.841 437.81 170.31 469.426 174.51 473.47L175.008 474.003C174.181 474.769 173.355 475.559 172.529 476.349ZM201.613 452.375C201.613 452.375 197.74 441.045 198.763 433.891C199.767 426.737 206.628 409.439 206.628 409.439C206.628 409.439 233.255 417.304 234.355 424.545L201.613 452.375Z" fill="#F7E8E0"/>
<path d="M362.027 237.23C361.599 237.23 361.184 237.002 360.968 236.596C360.653 236.013 360.874 235.285 361.458 234.97L385.112 222.267C385.693 221.954 386.423 222.17 386.738 222.756C387.053 223.34 386.832 224.068 386.248 224.382L362.594 237.086C362.413 237.184 362.219 237.23 362.027 237.23Z" fill="#1F2726"/>
<path d="M431.59 265.196C431.458 265.196 431.324 265.174 431.192 265.128C410.671 257.902 395.04 239.375 391.373 217.93C391.262 217.277 391.702 216.655 392.355 216.544C392.994 216.429 393.628 216.871 393.741 217.524C397.209 237.807 412.58 256.027 431.989 262.861C432.616 263.082 432.942 263.767 432.724 264.394C432.549 264.886 432.085 265.196 431.59 265.196Z" fill="#1F2726"/>
<path d="M432.877 317.444C432.455 317.444 432.047 317.221 431.826 316.827C422.537 300.077 420.179 279.895 425.363 261.454C425.543 260.815 426.197 260.441 426.845 260.623C427.484 260.803 427.854 261.466 427.676 262.105C422.664 279.941 424.941 299.462 433.929 315.663C434.251 316.244 434.042 316.974 433.461 317.296C433.276 317.396 433.074 317.444 432.877 317.444Z" fill="#1F2726"/>
<path d="M364.777 261.562C364.356 261.562 363.946 261.338 363.725 260.945C363.403 260.363 363.612 259.633 364.191 259.312L391.459 244.154C392.033 243.834 392.768 244.038 393.095 244.619C393.417 245.198 393.208 245.928 392.629 246.252L365.36 261.411C365.175 261.511 364.976 261.562 364.777 261.562Z" fill="#1F2726"/>
<path d="M372.682 275.891C372.267 275.891 371.861 275.675 371.64 275.289C371.308 274.715 371.508 273.98 372.084 273.651C382.771 267.525 393.359 260.954 403.558 254.117C404.105 253.75 404.857 253.894 405.222 254.446C405.592 254.999 405.445 255.743 404.893 256.113C394.648 262.979 384.012 269.58 373.278 275.733C373.09 275.839 372.886 275.891 372.682 275.891Z" fill="#1F2726"/>
<path d="M378.736 290.608C378.292 290.608 377.864 290.36 377.658 289.933C377.367 289.335 377.615 288.617 378.21 288.326L415.906 269.96C416.495 269.674 417.22 269.914 417.51 270.512C417.801 271.11 417.554 271.828 416.958 272.119L379.262 290.485C379.094 290.569 378.914 290.608 378.736 290.608Z" fill="#1F2726"/>
<path d="M384.822 309.923C384.408 309.923 384.007 309.709 383.784 309.327C383.448 308.753 383.642 308.018 384.216 307.684C395.383 301.179 406.913 294.961 418.483 289.21C419.071 288.914 419.799 289.157 420.092 289.75C420.387 290.343 420.145 291.064 419.552 291.359C408.027 297.087 396.546 303.278 385.424 309.759C385.237 309.87 385.028 309.923 384.822 309.923Z" fill="#1F2726"/>
<path d="M399.245 327.528C398.897 327.528 398.556 327.376 398.316 327.088C397.895 326.577 397.97 325.82 398.481 325.398C405.76 319.418 413.505 313.849 421.495 308.847C422.061 308.496 422.801 308.664 423.149 309.228C423.502 309.79 423.329 310.53 422.77 310.883C414.864 315.832 407.208 321.339 400.006 327.251C399.785 327.439 399.516 327.528 399.245 327.528Z" fill="#1F2726"/>
<path d="M408.793 341.406C408.462 341.406 408.133 341.269 407.895 341.002C407.453 340.505 407.501 339.746 407.998 339.307L425.356 323.935C425.846 323.496 426.61 323.541 427.049 324.038C427.491 324.533 427.443 325.294 426.946 325.734L409.588 341.106C409.36 341.307 409.077 341.406 408.793 341.406Z" fill="#1F2726"/>
<path d="M175.009 475.201C174.69 475.201 174.373 475.074 174.137 474.826C173.684 474.346 173.703 473.585 174.185 473.129C176.671 470.775 199.879 452.224 200.863 451.436C201.387 451.025 202.139 451.107 202.552 451.623C202.965 452.142 202.883 452.896 202.364 453.312C202.122 453.504 178.251 472.586 175.835 474.874C175.602 475.091 175.305 475.201 175.009 475.201Z" fill="#1F2726"/>
<path d="M76.4943 456.53C76.2013 456.53 75.9059 456.422 75.673 456.206C75.1903 455.752 75.1638 454.993 75.6177 454.508C76.6744 453.379 101.631 426.761 115.984 419.78C125.727 415.04 137.638 412.939 149.156 410.905C154.888 409.894 160.303 408.938 165.404 407.684C181.03 403.837 205.79 408.071 206.839 408.256C207.492 408.369 207.929 408.991 207.814 409.644C207.701 410.299 207.06 410.727 206.426 410.621C206.176 410.576 181.114 406.294 165.976 410.014C160.798 411.286 155.347 412.249 149.576 413.268C138.219 415.273 126.476 417.345 117.036 421.937C103.083 428.724 77.6302 455.872 77.3732 456.146C77.1331 456.4 76.8161 456.53 76.4943 456.53Z" fill="#1F2726"/>
<path d="M122.787 450.808C122.607 450.808 122.427 450.767 122.254 450.683C121.66 450.39 121.416 449.669 121.709 449.074C122.242 447.998 134.833 422.65 144.061 417.506C144.638 417.184 145.368 417.389 145.694 417.97C146.019 418.548 145.81 419.281 145.231 419.603C136.653 424.386 123.99 449.881 123.863 450.14C123.654 450.563 123.229 450.808 122.787 450.808Z" fill="#1F2726"/>
<path d="M157.983 420.1C145.274 420.1 137.856 417.768 137.34 417.6C136.708 417.396 136.365 416.718 136.569 416.087C136.773 415.458 137.45 415.112 138.082 415.316C138.291 415.386 159.601 422.04 192.345 412.509C192.989 412.321 193.647 412.689 193.834 413.325C194.019 413.962 193.654 414.627 193.015 414.814C179 418.894 167.123 420.1 157.983 420.1Z" fill="#1F2726"/>
<path d="M165.843 439.009C165.663 439.009 165.48 438.968 165.305 438.882C164.712 438.586 164.472 437.864 164.767 437.27C164.842 437.119 172.332 422.115 173.84 417.343C174.039 416.711 174.716 416.361 175.346 416.558C175.98 416.757 176.328 417.432 176.129 418.066C174.568 423.02 167.226 437.722 166.914 438.344C166.705 438.764 166.28 439.009 165.843 439.009Z" fill="#1F2726"/>
<path d="M234.355 425.745C234.021 425.745 233.69 425.606 233.449 425.335C233.012 424.835 233.065 424.074 233.565 423.639C233.63 423.584 240.022 417.95 244.611 409.913C244.945 409.334 245.68 409.139 246.252 409.466C246.826 409.795 247.027 410.527 246.698 411.104C241.9 419.506 235.419 425.21 235.145 425.45C234.919 425.647 234.636 425.745 234.355 425.745Z" fill="#1F2726"/>
<path d="M127.451 364.474C127.038 364.474 126.634 364.261 126.411 363.876C126.077 363.302 126.274 362.568 126.848 362.236C127.436 361.895 141.384 353.853 153.319 350.193C153.951 349.998 154.626 350.354 154.82 350.99C155.012 351.624 154.657 352.294 154.023 352.489C142.354 356.067 128.193 364.232 128.054 364.313C127.861 364.424 127.655 364.474 127.451 364.474Z" fill="#1F2726"/>
<path d="M158.766 325.407C158.211 325.407 157.714 325.023 157.592 324.459C157.452 323.81 157.865 323.172 158.514 323.032C158.958 322.936 169.448 320.703 175.231 321.349C175.889 321.423 176.364 322.016 176.29 322.674C176.215 323.332 175.639 323.798 174.962 323.736C169.582 323.145 159.121 325.357 159.018 325.378C158.932 325.4 158.848 325.407 158.766 325.407Z" fill="#1F2726"/>
<path d="M71.9237 537.422C73.0091 541.159 73.2469 545.083 73.4846 548.987C73.511 549.448 73.4895 550.015 73.11 550.255C72.8651 550.421 72.5601 550.392 72.2767 550.38C70.6173 550.308 68.9651 550.496 67.3753 550.921L67.356 550.923C67.0703 550.892 66.7749 550.762 66.554 550.563C66.0401 550.07 65.9416 549.295 65.8671 548.577C65.3052 542.652 64.7409 536.725 64.1766 530.779C64.1573 530.599 64.1549 530.378 64.239 530.208C64.4239 529.848 64.9234 529.816 65.3341 529.896C67.0583 530.203 68.5784 531.298 69.6663 532.677C70.7541 534.055 71.4266 535.719 71.9237 537.422Z" fill="#8C9998"/>
<path d="M22.3018 471.524C23.2552 473.563 22.9334 475.953 22.4122 478.14C20.7096 485.364 16.9417 492.074 11.6921 497.302C11.2334 497.751 10.7195 498.226 10.0807 498.291C9.66526 498.354 9.26898 498.234 8.85352 498.113C6.34158 497.381 3.81043 496.653 1.27688 495.923L0.92627 496.644C1.20244 494.218 2.4728 492.055 3.72877 489.953C7.39582 483.839 11.0653 477.723 14.7131 471.611C15.2655 470.708 15.8539 469.762 16.7664 469.226C18.7116 468.105 21.3484 469.488 22.3018 471.524Z" fill="#8C9998"/>
<path d="M152.758 549.632C152.616 550.029 152.196 550.233 151.831 550.413C150.022 551.263 148.236 552.089 146.444 552.915C146.963 553.266 147.46 553.597 147.979 553.929L147.054 553.559C145.058 552.956 144.22 550.665 143.634 548.669C142.213 543.617 140.774 538.586 139.336 533.555C139.019 532.419 138.697 531.242 138.879 530.075C139.045 528.929 139.895 527.777 141.046 527.618C141.605 527.561 142.162 527.705 142.669 527.935C145.203 529.066 146.677 531.677 147.839 534.198C150.008 538.874 151.636 543.783 152.731 548.809C152.784 549.087 152.832 549.364 152.758 549.632Z" fill="#8C9998"/>
<path d="M185.819 510.309C185.761 511.524 184.767 512.432 183.835 513.19C180.519 515.844 176.979 518.26 173.285 520.369C172.008 521.082 170.673 521.802 169.217 521.951C168.739 521.999 168.254 521.99 167.805 521.934C164.599 521.516 161.982 518.558 160.029 515.796C158.384 513.486 156.737 510.955 156.749 508.114C156.751 505.957 157.712 503.926 158.922 502.151C161.023 499.036 163.924 496.483 167.255 494.754C167.94 494.363 168.653 494.048 169.39 493.751C169.758 493.592 170.144 493.453 170.55 493.472C171.563 493.53 172.209 494.531 172.721 495.405C175.778 500.492 180.009 504.857 184.993 508.095L184.267 507.706C183.66 507.283 182.961 506.932 182.286 506.658L184.267 507.706C185.197 508.356 185.888 509.214 185.819 510.309Z" fill="#8C9998"/>
<path d="M167.839 524.46C167.711 524.46 167.584 524.439 167.457 524.398C152.849 519.482 149.832 507.616 151.689 498.947C153.73 489.411 165.821 481.419 166.335 481.082C166.888 480.725 167.635 480.878 167.995 481.433C168.357 481.988 168.204 482.732 167.649 483.095C167.531 483.169 155.872 490.885 154.04 499.449C152.311 507.52 155.13 517.714 168.223 522.121C168.852 522.333 169.188 523.012 168.979 523.641C168.807 524.143 168.341 524.46 167.839 524.46Z" fill="#1F2726"/>
<path d="M356.47 235.256C350.587 239.984 344.703 244.713 338.819 249.463C326.98 259.009 315.083 268.581 301.921 276.227C266.701 296.717 225.042 302.067 185.279 310.993C175.454 313.222 164.712 316.351 158.764 324.209C150.633 326.85 143.68 332.755 138.649 339.734C133.548 346.821 130.21 354.976 127.449 363.276C107.901 378.239 81.2852 383.126 63.2741 400.129C58.1998 404.896 53.9948 410.482 50.0036 416.188C44.3601 424.256 39.1249 432.606 33.8921 440.954C24.5167 455.91 15.1221 470.867 5.74679 485.823C3.58306 489.308 1.33288 492.919 0.881398 496.995C0.761324 497.994 0.768567 499.041 1.1456 499.989C1.89726 501.826 3.90967 502.789 5.82125 503.38C14.7763 506.053 24.6272 503.498 32.6386 498.673C40.6283 493.851 47.1122 486.906 53.4665 480.074C61.1464 471.818 68.8095 463.583 76.4894 455.327C71.4223 471.638 66.8355 488.097 62.7242 504.694C61.7804 508.476 60.8607 512.316 60.9976 516.211C61.1128 519.907 62.1622 523.485 63.0316 527.083C64.5565 533.353 65.5724 539.758 66.0478 546.215C66.2352 548.855 66.4513 551.756 68.3148 553.638C69.8878 555.23 72.2917 555.711 74.525 555.483C82.2242 554.738 87.4546 547.337 90.4348 540.204C93.684 532.34 95.5427 523.91 95.8669 515.416C95.9942 512.321 95.915 509.168 96.573 506.137C97.1445 503.44 98.254 500.89 99.3659 498.359C106.65 481.863 113.969 465.305 122.783 449.602C131.519 479.795 133.63 511.61 141.312 542.133C142.263 545.925 143.339 549.781 145.657 552.93C146.243 553.737 146.965 554.508 147.902 554.796C148.923 555.115 149.999 554.803 150.986 554.421C157.402 551.955 162.313 546.379 164.972 540.044C167.174 534.763 167.935 528.985 167.834 523.255C168.271 523.007 168.706 522.722 169.121 522.438C196.575 503.628 226.044 487.773 256.879 475.245C273.05 468.662 289.709 462.937 304.569 453.768C326.975 439.964 344.141 419.038 358.192 396.776C371.182 376.174 382.742 353.202 402.478 339.304M172.529 476.349C170.622 478.196 168.761 480.098 166.989 482.091C166.989 482.091 163.946 448.86 163.022 443.154L165.841 437.81C165.841 437.81 170.31 469.426 174.51 473.47L175.008 474.003C174.181 474.769 173.355 475.559 172.529 476.349ZM201.613 452.375C201.613 452.375 197.74 441.045 198.763 433.891C199.767 426.737 206.628 409.439 206.628 409.439C206.628 409.439 233.255 417.304 234.355 424.545L201.613 452.375Z" stroke="#1F2726" stroke-miterlimit="10" stroke-linecap="round" stroke-linejoin="round"/>
<path d="M475.924 157.316C464.478 174.88 440.982 188.453 420.435 178.581C411.941 175.296 406.315 170.471 403.111 164.936C404.002 164.179 404.936 163.461 405.933 162.774C417.592 154.818 433.067 155.457 446.018 149.888C458.873 144.37 467.977 133.491 477.369 122.843C484.454 131.085 485.794 143.258 475.924 157.316Z" fill="#8C9998"/>
<path d="M565.393 81.0407C568.594 132.043 516.521 135.998 490.042 109.625C491.942 107.901 493.93 106.268 495.99 104.748C513.56 91.9194 536.407 88.9872 555.708 78.9226C558.501 77.4697 561.198 75.8656 563.825 74.1677C564.596 76.3675 565.112 78.6729 565.393 81.0407Z" fill="#8C9998"/>
<path d="M641.834 287.632C635.259 287.757 628.744 288.463 622.375 290.219C607.227 294.38 594.045 304.183 578.765 307.836C575.953 308.506 573.119 308.974 570.249 309.267C550.105 296.431 533.943 270.258 547.264 248.757C568.856 224.601 612.604 237.991 632.375 258.642C640.639 268.778 643.23 278.788 641.834 287.632Z" fill="#8C9998"/>
<path d="M612.936 94.8923C602.103 73.6032 620.008 40.775 639.102 29.637C655.759 20.2568 679.646 26.7192 687.319 44.7519C702.52 82.4046 640.276 132.953 612.936 94.8923Z" fill="#8C9998"/>
<path d="M711.187 287.963C700.606 290.694 689.014 290.807 678.013 289.993C671.639 289.534 665.201 288.821 658.763 288.288C670.201 274.791 697.013 275.586 711.187 287.963Z" fill="#EEEBE2"/>
<path d="M714.765 202.649L721.09 264.756C692.21 279.261 649.346 245.494 653.602 216.455C660.323 189.902 691.843 190.036 714.765 202.649Z" fill="#8C9998"/>
<path d="M519.558 316.325C506.641 322.998 496.819 335.14 483.495 341.211C474.158 345.467 463.397 346.221 453.439 343.769C438.996 312.141 469.514 250.815 506.475 274.71C518.934 284.299 522.363 300.569 519.558 316.325Z" fill="#8C9998"/>
<path d="M629.205 160.094C627.342 181.955 613.701 205.331 593.077 214.197C548.624 228.421 542.387 167.698 565.876 142.936C585.417 117.132 631.273 122.927 629.205 160.094Z" fill="#8C9998"/>
<path d="M525.26 192.721C548.285 227.931 493.375 253.8 464.065 246.151C446.198 241.447 437.517 217.651 449.421 203.064C467.022 183.655 504.043 174.703 525.26 192.721Z" fill="#8C9998"/>
<path d="M704.076 97.7163L712.479 180.219C697.623 184.693 681.276 183.598 668.649 174.732C640.607 150.794 676.346 107.106 704.076 97.7163Z" fill="#8C9998"/>
<path opacity="0.1" d="M199.946 444.725C192.819 444.931 185.72 445.56 178.664 446.53C185.626 442.393 193.061 439.107 200.864 436.759C202.42 436.291 203.131 434.297 202.578 432.868C201.954 431.255 200.247 430.686 198.688 431.154C187.098 434.643 176.167 440.183 166.472 447.424C165.528 448.127 165.207 449.069 165.293 449.972C165.036 450.447 164.909 451.002 164.971 451.619C165.125 453.123 166.664 454.619 168.266 454.304C178.914 452.222 189.709 451.019 200.554 450.704C202.18 450.656 203.397 448.942 203.239 447.409C203.066 445.695 201.575 444.679 199.946 444.725Z" fill="#1F2726"/>
</svg>
