<svg width="120" height="120" viewBox="0 0 120 120" fill="none" xmlns="http://www.w3.org/2000/svg">
<rect width="120" height="120" rx="60" fill="#EEEBE2"/>
<path d="M94.3725 33.0373C95.0612 33.0373 95.0755 33.0424 94.918 33.6973C94.4206 35.7679 94.0165 37.873 93.0342 39.7893C92.1018 41.608 90.5354 42.5554 88.5088 42.7804C87.524 42.8898 86.536 42.8427 85.5488 42.8318C76.0212 42.7261 66.4936 42.7478 56.9659 42.7922C54.5633 42.8035 52.1497 42.8214 49.8199 43.4899C43.5935 45.2761 38.9639 48.9946 36.1039 54.7984C33.6528 59.7729 33.3543 64.9313 34.894 70.2081C35.7008 72.9741 37.1258 75.4307 39.0177 77.6112C41.9658 81.0099 45.6001 83.3438 50.0013 84.4515C54.8489 85.6715 59.5546 85.2507 64.1228 83.2329C68.1803 81.4406 71.294 78.6005 73.6038 74.8711C74.6457 73.1893 75.3039 71.346 75.808 69.4438C75.9536 68.8947 75.61 68.9343 75.2635 68.9343C70.4221 68.9352 65.5807 68.9348 60.7393 68.9348C54.1354 68.9348 47.5316 68.9348 40.9282 68.9348C40.3831 68.9348 40.1793 68.68 40.3171 68.1705C41.0848 65.3346 41.8615 62.5011 42.6107 59.6601C42.7235 59.2317 42.9058 59.0902 43.356 59.0841C47.81 59.0246 52.2635 58.9793 56.7175 59.0685C58.2124 59.0987 58.6056 58.7911 58.9844 57.3319C59.7664 54.321 60.5651 51.3144 61.3271 48.2983C61.4503 47.8095 61.6655 47.6699 62.1595 47.6737C65.1028 47.6958 68.0466 47.684 70.9904 47.6855C71.7733 47.6855 71.7862 47.7086 71.5901 48.4667C70.7771 51.6088 69.9642 54.7513 69.1541 57.8942C68.87 58.9954 68.9295 59.0746 70.1027 59.0723C73.9175 59.0652 77.7327 59.0421 81.5475 59.043C83.8007 59.0435 85.8296 60.5456 86.3722 62.5922C86.5469 63.2503 86.4831 63.9269 86.4498 64.5968C86.2875 67.8459 85.9463 71.0681 84.8259 74.155C82.7664 79.8309 79.4395 84.6138 74.6409 88.3701C70.0247 91.9834 64.7934 94.0753 58.963 94.7655C54.3134 95.3156 49.7747 94.9132 45.3403 93.3959C39.2162 91.3013 34.1506 87.7389 30.3258 82.554C25.1232 75.5029 22.9895 67.6119 24.4492 58.9619C25.7795 51.079 29.719 44.6142 36.0378 39.6148C40.238 36.2911 45.0109 34.1992 50.2945 33.2779C52.6871 32.8608 87.4203 33.0368 94.3725 33.0373Z" fill="#1F2726"/>
</svg>
