<svg width="107" height="47" viewBox="0 0 107 47" fill="none" xmlns="http://www.w3.org/2000/svg">
<path d="M43.5733 0.523367C43.9997 0.523367 44.0085 0.526621 43.911 0.937322C43.603 2.236 43.3528 3.55628 42.7446 4.7582C42.1673 5.89888 41.1974 6.49303 39.9426 6.63417C39.3329 6.70282 38.7211 6.67323 38.1099 6.66642C32.2106 6.60014 26.3113 6.61376 20.4121 6.64157C18.9245 6.64867 17.43 6.65992 15.9875 7.0792C12.1323 8.19945 9.26574 10.5317 7.4949 14.1718C5.97721 17.2917 5.79244 20.527 6.74578 23.8366C7.2453 25.5714 8.12762 27.1121 9.29904 28.4797C11.1244 30.6114 13.3747 32.0752 16.0998 32.7699C19.1013 33.5351 22.0149 33.2712 24.8435 32.0056C27.3558 30.8815 29.2837 29.1002 30.7138 26.7612C31.3589 25.7063 31.7665 24.5503 32.0786 23.3572C32.1688 23.0128 31.956 23.0377 31.7414 23.0377C28.7438 23.0382 25.7461 23.038 22.7485 23.038C18.6595 23.038 14.5706 23.038 10.482 23.038C10.1444 23.038 10.0183 22.8782 10.1036 22.5586C10.5789 20.78 11.0599 19.0028 11.5237 17.221C11.5936 16.9523 11.7064 16.8635 11.9852 16.8597C14.743 16.8224 17.5005 16.794 20.2583 16.8499C21.1839 16.8689 21.4273 16.6759 21.6619 15.7607C22.1461 13.8723 22.6406 11.9866 23.1124 10.0949C23.1887 9.7884 23.3219 9.70082 23.6278 9.70319C25.4502 9.71709 27.2729 9.7097 29.0956 9.71058C29.5804 9.71058 29.5884 9.72508 29.467 10.2006C28.9636 12.1712 28.4603 14.1422 27.9587 16.1134C27.7828 16.8041 27.8196 16.8538 28.546 16.8523C30.908 16.8478 33.2703 16.8333 35.6323 16.8339C37.0274 16.8342 38.2837 17.7764 38.6197 19.06C38.7278 19.4727 38.6884 19.897 38.6677 20.3172C38.5672 22.355 38.3559 24.376 37.6622 26.312C36.3871 29.8719 34.3271 32.8717 31.356 35.2276C28.4977 37.4939 25.2587 38.8059 21.6486 39.2388C18.7697 39.5838 15.9595 39.3314 13.2138 38.3798C9.42193 37.066 6.28546 34.8317 3.91727 31.5798C0.695935 27.1574 -0.625195 22.2083 0.278643 16.783C1.10232 11.839 3.54154 7.78431 7.45394 4.64872C10.0546 2.56415 13.0099 1.25215 16.2813 0.674273C17.7628 0.412702 39.2686 0.523071 43.5733 0.523367Z" fill="#1F2726"/>
<path d="M44.6032 18.1012C44.6032 19.7656 41.9424 19.7656 41.9424 18.1012C41.9424 16.4368 44.6032 16.4368 44.6032 18.1012ZM44.3412 21.0137H42.2038V32.9921H44.3412V21.0137Z" fill="#1F2726"/>
<path d="M53.698 37.6566C50.7319 37.6566 47.962 36.4742 47.962 33.7804H50.0777C50.0777 35.2915 52.1279 35.7733 53.6762 35.7514C55.552 35.7295 57.6237 34.8317 57.6237 32.5542V31.3061C56.5987 32.6637 55.1155 32.9705 53.6544 32.9705C49.6851 32.9705 47.395 30.3208 47.395 27.1018C47.395 23.8827 49.5761 20.9265 53.698 20.9484C55.1594 20.9484 56.7732 21.452 57.6455 22.7222V21.1454H59.7611V32.5545C59.7611 36.2334 56.6205 37.6569 53.698 37.6569V37.6566ZM57.6237 26.773C57.6237 24.6707 56.337 22.8971 53.7852 22.8314C51.0808 22.7657 49.5322 24.9557 49.5322 27.1018C49.554 29.1822 51.0372 31.0875 53.6326 31.0875C56.228 31.0875 57.6237 28.9632 57.6237 26.7733V26.773Z" fill="#1F2726"/>
<path d="M68.8338 37.6566C65.8676 37.6566 63.0978 36.4742 63.0978 33.7804H65.2134C65.2134 35.2915 67.2636 35.7733 68.8119 35.7514C70.6877 35.7295 72.7597 34.8317 72.7597 32.5542V31.3061C71.7348 32.6637 70.2515 32.9705 68.7901 32.9705C64.8209 32.9705 62.5308 30.3208 62.5308 27.1018C62.5308 23.8827 64.7118 20.9265 68.8338 20.9484C70.2952 20.9484 71.9089 21.452 72.7815 22.7222V21.1454H74.8972V32.5545C74.8972 36.2334 71.7566 37.6569 68.834 37.6569L68.8338 37.6566ZM72.7597 26.773C72.7597 24.6707 71.4728 22.8971 68.9213 22.8314C66.2168 22.7657 64.6682 24.9557 64.6682 27.1018C64.69 29.1822 66.1732 31.0875 68.7683 31.0875C71.3634 31.0875 72.7597 28.9632 72.7597 26.7733V26.773Z" fill="#1F2726"/>
<path d="M80.3494 32.9921H78.2119V17.663H80.3494V32.9921Z" fill="#1F2726"/>
<path d="M95.1575 27.5831H85.1684C85.1684 29.9044 87.3713 31.3058 89.138 31.3058C90.5991 31.3058 91.9515 30.6708 92.6493 29.3348H94.8522C93.9581 31.9189 91.5371 33.2107 89.1162 33.2107C86.0846 33.2107 83.0312 31.1522 83.0312 27.0792C83.0312 23.0062 86.041 20.9696 89.1598 20.9696C92.0823 20.9696 94.9612 22.8311 95.2011 26.5537C95.2447 26.9041 95.2229 27.2763 95.1575 27.5828V27.5831ZM92.9546 25.8092C92.5403 23.685 90.8608 22.853 89.1598 22.853C87.4588 22.853 85.6921 23.7069 85.2559 25.8092H92.9549H92.9546Z" fill="#1F2726"/>
<path d="M102.246 26.0723C104.47 26.2255 107 26.9262 107 29.6197C107 32.3133 104.296 33.1891 102.071 33.1891C99.6285 33.1891 97.3602 32.16 97.2075 29.357H99.345C99.4322 30.6926 100.697 31.3498 102.18 31.3279C103.249 31.306 104.863 30.9557 104.863 29.5978C104.885 28.2622 103.031 28.0429 102.006 27.9991C99.8902 27.9115 97.382 27.2547 97.382 24.6049C97.382 21.9552 99.8029 20.9042 102.093 20.9042C104.383 20.9042 106.499 21.9114 106.651 24.386H104.536C104.427 23.3349 103.314 22.831 102.028 22.831C100.741 22.831 99.4976 23.3346 99.4976 24.5611C99.4976 26.0504 101.199 26.0066 102.246 26.0723Z" fill="#1F2726"/>
<path d="M50.8216 39.6346C51.9524 39.6346 52.5217 40.5143 52.5217 41.3943C52.5217 42.2743 51.9527 43.1463 50.8216 43.1463H49.6682V44.8983H48.9043V39.6346H50.8216ZM50.8216 42.3942C51.4581 42.3942 51.7729 41.8979 51.7729 41.4014C51.7729 40.9049 51.4584 40.4013 50.8216 40.4013H49.6682V42.3942H50.8216Z" fill="#1F2726"/>
<path d="M54.0046 44.8983H53.2705V39.6346H54.0046V44.8983Z" fill="#1F2726"/>
<path d="M59.3369 40.8301V44.8983H58.6028V44.3495C58.3108 44.793 57.6592 44.9584 57.1573 44.9661C55.7419 44.9661 54.978 43.966 54.978 42.8454C54.978 41.7249 55.7719 40.7623 57.1426 40.7623C57.6445 40.7623 58.2509 40.8828 58.6105 41.3713L58.6031 40.8298H59.3372L59.3369 40.8301ZM57.1276 41.4092C56.2438 41.4242 55.7121 42.0483 55.7121 42.8454C55.7121 43.6426 56.2588 44.3344 57.1874 44.3119C57.854 44.2968 58.6028 43.8157 58.6028 42.8605C58.6028 41.9054 57.8166 41.4018 57.1276 41.4092Z" fill="#1F2726"/>
<path d="M61.344 39.9279V40.8303H62.2352V41.4168H61.344V43.7103C61.344 44.3192 61.7186 44.342 62.2576 44.2893V44.906C61.2765 44.9811 60.6099 44.7782 60.6099 43.7029V41.4168H60.0034V40.8303H60.6099V40.0708L61.344 39.9279Z" fill="#1F2726"/>
<path d="M64.9009 44.9735C63.815 44.9735 62.729 44.2666 62.729 42.8679C62.729 41.4692 63.8223 40.7623 64.9233 40.7623C66.0243 40.7623 67.0952 41.4692 67.0952 42.8679C67.0952 44.2666 66.0019 44.9735 64.9009 44.9735ZM64.9009 44.3119C65.635 44.3193 66.3688 43.8308 66.3688 42.8682C66.3688 41.9057 65.6424 41.4168 64.9233 41.4168C64.2043 41.4168 63.4628 41.898 63.4628 42.8682C63.4628 43.8384 64.1819 44.3045 64.9006 44.3119H64.9009Z" fill="#1F2726"/>
<path d="M68.8329 40.8301V41.334C69.1326 40.8978 69.567 40.77 70.0762 40.77C71.3119 40.77 71.8362 41.5447 71.8362 42.7102V44.8983H71.1097V42.7176C71.1097 41.958 70.915 41.4393 70.0538 41.4242C69.2676 41.4092 68.8332 41.9731 68.8332 42.6874V44.8983H68.0991V40.8301H68.8332H68.8329Z" fill="#1F2726"/>
<path d="M73.8203 39.785C73.8203 40.3563 72.9067 40.3563 72.9067 39.785C72.9067 39.2136 73.8203 39.2136 73.8203 39.785ZM73.7304 40.7851H72.9963V44.8983H73.7304V40.7851Z" fill="#1F2726"/>
<path d="M78.8761 43.3493C78.6739 44.4246 77.7601 44.951 76.8465 44.9584C75.7906 44.9734 74.7271 44.2739 74.7271 42.8605C74.7271 41.447 75.7756 40.7626 76.8315 40.7626C77.7527 40.7626 78.6739 41.2964 78.8761 42.3793H78.1196C77.9398 41.7325 77.3932 41.4168 76.8389 41.4168C76.1572 41.4168 75.4609 41.8905 75.4609 42.8605C75.4609 43.8304 76.1499 44.3118 76.8462 44.3118C77.4006 44.3118 77.9396 43.9961 78.1193 43.3493H78.8758H78.8761Z" fill="#1F2726"/>
<path d="M83.6387 39.5894C85.3538 39.5894 86.2149 40.9579 86.2149 42.274C86.2149 43.5901 85.3535 44.8983 83.6387 44.8983H81.7588V39.5894H83.6387ZM83.6387 44.1387C84.8519 44.1387 85.4661 43.2064 85.4661 42.2737C85.4661 41.341 84.8519 40.3486 83.6387 40.3486H82.5153V44.1384H83.6387V44.1387Z" fill="#1F2726"/>
<path d="M91.2402 40.8301V44.8983H90.5061V44.3495C90.2141 44.793 89.5625 44.9584 89.0606 44.9661C87.6452 44.9661 86.8813 43.966 86.8813 42.8454C86.8813 41.7249 87.6753 40.7623 89.0459 40.7623C89.5478 40.7623 90.1543 40.8828 90.5138 41.3713L90.5064 40.8298H91.2405L91.2402 40.8301ZM89.0309 41.4092C88.1471 41.4242 87.6154 42.0483 87.6154 42.8454C87.6154 43.6426 88.1621 44.3344 89.0907 44.3119C89.7573 44.2968 90.5061 43.8157 90.5061 42.8605C90.5061 41.9054 89.7199 41.4018 89.0309 41.4092Z" fill="#1F2726"/>
<path d="M93.2473 39.9279V40.8303H94.1385V41.4168H93.2473V43.7103C93.2473 44.3192 93.6219 44.342 94.1609 44.2893V44.906C93.1798 44.9811 92.5132 44.7782 92.5132 43.7029V41.4168H91.9067V40.8303H92.5132V40.0708L93.2473 39.9279Z" fill="#1F2726"/>
<path d="M95.7334 39.785C95.7334 40.3563 94.8198 40.3563 94.8198 39.785C94.8198 39.2136 95.7334 39.2136 95.7334 39.785ZM95.6435 40.7851H94.9094V44.8983H95.6435V40.7851Z" fill="#1F2726"/>
<path d="M97.6132 40.8301V41.334C97.9129 40.8978 98.3473 40.77 98.8565 40.77C100.092 40.77 100.616 41.5447 100.616 42.7102V44.8983H99.89V42.7176C99.89 41.958 99.6952 41.4393 98.8341 41.4242C98.0479 41.4092 97.6135 41.9731 97.6135 42.6874V44.8983H96.8794V40.8301H97.6135H97.6132Z" fill="#1F2726"/>
<path d="M103.709 46.5001C102.691 46.5001 101.74 46.0941 101.74 45.1691H102.466C102.466 45.6881 103.17 45.8535 103.702 45.8458C104.346 45.8384 105.057 45.5301 105.057 44.7481V44.3193C104.706 44.7856 104.196 44.8907 103.694 44.8907C102.331 44.8907 101.545 43.9808 101.545 42.8754C101.545 41.7699 102.294 40.7547 103.709 40.7624C104.211 40.7624 104.765 40.9352 105.065 41.3713V40.8298H105.791V44.7475C105.791 46.0109 104.713 46.4995 103.709 46.4995L103.709 46.5001ZM105.058 42.7629C105.058 42.0409 104.616 41.432 103.74 41.4095C102.811 41.387 102.279 42.1389 102.279 42.8759C102.286 43.5902 102.796 44.2445 103.687 44.2445C104.578 44.2445 105.058 43.5151 105.058 42.7629Z" fill="#1F2726"/>
</svg>
