<svg width="171" height="74" viewBox="0 0 171 74" fill="none" xmlns="http://www.w3.org/2000/svg">
<path d="M69.6355 0.0375898C70.317 0.0375898 70.3311 0.0428258 70.1752 0.703519C69.6831 2.7927 69.2832 4.91663 68.3111 6.85015C67.3885 8.68515 65.8386 9.64096 63.8332 9.86802C62.8588 9.97845 61.881 9.93085 60.9043 9.9199C51.4765 9.81328 42.0487 9.83517 32.6209 9.87992C30.2435 9.89134 27.8552 9.90943 25.5498 10.5839C19.3887 12.3861 14.8076 16.1379 11.9775 21.9937C9.55207 27.0127 9.25678 32.2173 10.7804 37.5414C11.5786 40.3322 12.9887 42.8108 14.8608 45.0109C17.778 48.44 21.3742 50.7948 25.7293 51.9125C30.526 53.1434 35.1825 52.7188 39.7028 50.6829C43.7178 48.8746 46.7988 46.0091 49.0844 42.2463C50.1154 40.5493 50.7667 38.6896 51.2655 36.7703C51.4096 36.2162 51.0696 36.2562 50.7267 36.2562C45.936 36.2572 41.1454 36.2567 36.3547 36.2567C29.8201 36.2567 23.2854 36.2567 16.7513 36.2567C16.2118 36.2567 16.0103 35.9997 16.1465 35.4856C16.9062 32.6243 17.6748 29.7654 18.4161 26.8989C18.5277 26.4667 18.7081 26.3239 19.1536 26.3178C23.5609 26.2578 27.9678 26.2121 32.3751 26.302C33.8544 26.3325 34.2434 26.0222 34.6183 24.5499C35.3921 21.512 36.1823 18.4784 36.9364 15.4354C37.0583 14.9422 37.2712 14.8013 37.7601 14.8051C40.6725 14.8275 43.5854 14.8156 46.4984 14.817C47.2731 14.817 47.2858 14.8404 47.0918 15.6053C46.2874 18.7755 45.483 21.9461 44.6814 25.1173C44.4002 26.2283 44.4591 26.3082 45.62 26.3059C49.3948 26.2987 53.1701 26.2754 56.9449 26.2763C59.1744 26.2768 61.1821 27.7924 61.719 29.8573C61.8919 30.5213 61.8288 31.2039 61.7958 31.8799C61.6352 35.1581 61.2975 38.4092 60.1889 41.5237C58.151 47.2505 54.8589 52.0762 50.1107 55.8662C45.5428 59.5119 40.3664 61.6225 34.5971 62.3189C29.9962 62.8739 25.5051 62.4678 21.1171 60.937C15.0572 58.8236 10.0447 55.2293 6.26003 49.998C1.1119 42.8836 -0.999435 34.922 0.445016 26.1945C1.76136 18.2409 5.65955 11.7182 11.9121 6.67403C16.0684 3.32059 20.7912 1.20999 26.0194 0.280352C28.3869 -0.140436 62.7561 0.0371138 69.6355 0.0375898Z" fill="#EEEBE2"/>
<path d="M71.2812 28.3148C71.2812 30.9923 67.0288 30.9923 67.0288 28.3148C67.0288 25.6373 71.2812 25.6373 71.2812 28.3148ZM70.8625 33.0001H67.4466V52.2697H70.8625V33.0001Z" fill="#EEEBE2"/>
<path d="M85.8157 59.7732C81.0754 59.7732 76.6488 57.8711 76.6488 53.5376H80.0299C80.0299 55.9685 83.3064 56.7435 85.7808 56.7082C88.7785 56.673 92.0894 55.2288 92.0894 51.565V49.5572C90.4514 51.7411 88.081 52.2348 85.746 52.2348C79.4025 52.2348 75.7427 47.9721 75.7427 42.7937C75.7427 37.6153 79.2283 32.8595 85.8157 32.8947C88.1512 32.8947 90.7302 33.7049 92.1243 35.7484V33.2117H95.5053V51.5655C95.5053 57.4836 90.4862 59.7737 85.8157 59.7737V59.7732ZM92.0894 42.2649C92.0894 38.8829 90.0332 36.0297 85.9551 35.924C81.633 35.8183 79.1581 39.3412 79.1581 42.7937C79.193 46.1405 81.5633 49.2055 85.7111 49.2055C89.8589 49.2055 92.0894 45.7882 92.0894 42.2653V42.2649Z" fill="#EEEBE2"/>
<path d="M110.004 59.7732C105.264 59.7732 100.837 57.8711 100.837 53.5376H104.218C104.218 55.9685 107.495 56.7435 109.969 56.7082C112.967 56.673 116.278 55.2288 116.278 51.565V49.5572C114.64 51.7411 112.27 52.2348 109.934 52.2348C103.591 52.2348 99.9312 47.9721 99.9312 42.7937C99.9312 37.6153 103.417 32.8595 110.004 32.8947C112.34 32.8947 114.919 33.7049 116.313 35.7484V33.2117H119.694V51.5655C119.694 57.4836 114.675 59.7737 110.005 59.7737L110.004 59.7732ZM116.278 42.2649C116.278 38.8829 114.222 36.0297 110.144 35.924C105.822 35.8183 103.347 39.3412 103.347 42.7937C103.382 46.1405 105.752 49.2055 109.9 49.2055C114.047 49.2055 116.278 45.7882 116.278 42.2653V42.2649Z" fill="#EEEBE2"/>
<path d="M128.408 52.2697H124.992V27.6099H128.408V52.2697Z" fill="#EEEBE2"/>
<path d="M152.074 43.5684H136.11C136.11 47.3026 139.63 49.557 142.454 49.557C144.789 49.557 146.95 48.5355 148.065 46.3863H151.586C150.157 50.5432 146.288 52.6215 142.419 52.6215C137.574 52.6215 132.694 49.3099 132.694 42.7577C132.694 36.2055 137.504 32.9292 142.489 32.9292C147.159 32.9292 151.76 35.9237 152.143 41.9123C152.213 42.4759 152.178 43.0747 152.074 43.5679V43.5684ZM148.553 40.7147C147.891 37.2975 145.207 35.959 142.489 35.959C139.77 35.959 136.947 37.3327 136.25 40.7147H148.554H148.553Z" fill="#EEEBE2"/>
<path d="M163.402 41.1376C166.957 41.3842 171 42.5114 171 46.8444C171 51.1775 166.678 52.5864 163.123 52.5864C159.219 52.5864 155.594 50.9309 155.35 46.4217H158.766C158.905 48.5704 160.927 49.6276 163.297 49.5924C165.005 49.5572 167.584 48.9936 167.584 46.8092C167.619 44.6605 164.656 44.3078 163.018 44.2373C159.637 44.0964 155.629 43.0397 155.629 38.7771C155.629 34.5145 159.498 32.8237 163.158 32.8237C166.818 32.8237 170.199 34.444 170.443 38.4249H167.062C166.887 36.7341 165.109 35.9235 163.053 35.9235C160.997 35.9235 159.01 36.7336 159.01 38.7067C159.01 41.1024 161.729 41.0319 163.402 41.1376Z" fill="#EEEBE2"/>
<path d="M81.2199 62.9561C83.027 62.9561 83.9369 64.3712 83.9369 65.7869C83.9369 67.2025 83.0274 68.6053 81.2199 68.6053H79.3765V71.4237H78.1558V62.9561H81.2199ZM81.2199 67.3953C82.2372 67.3953 82.7401 66.597 82.7401 65.7983C82.7401 64.9995 82.2376 64.1894 81.2199 64.1894H79.3765V67.3953H81.2199Z" fill="#EEEBE2"/>
<path d="M86.307 71.4237H85.1338V62.9561H86.307V71.4237Z" fill="#EEEBE2"/>
<path d="M94.8284 64.879V71.4236H93.6552V70.5406C93.1885 71.2541 92.1472 71.5202 91.3451 71.5326C89.0831 71.5326 87.8623 69.9237 87.8623 68.1211C87.8623 66.3185 89.1311 64.77 91.3215 64.77C92.1236 64.77 93.0928 64.9638 93.6674 65.7496L93.6557 64.8785H94.8288L94.8284 64.879ZM91.2975 65.8106C89.8851 65.8348 89.0355 66.8387 89.0355 68.1211C89.0355 69.4034 89.9091 70.5163 91.3931 70.4802C92.4585 70.4559 93.6552 69.6819 93.6552 68.1454C93.6552 66.6088 92.3986 65.7987 91.2975 65.8106Z" fill="#EEEBE2"/>
<path d="M98.0355 63.4277V64.8795H99.4597V65.823H98.0355V69.5125C98.0355 70.4921 98.6341 70.5288 99.4955 70.444V71.436C97.9276 71.5569 96.8623 71.2304 96.8623 69.5006V65.823H95.8931V64.8795H96.8623V63.6576L98.0355 63.4277Z" fill="#EEEBE2"/>
<path d="M103.721 71.5445C101.985 71.5445 100.25 70.4073 100.25 68.1573C100.25 65.9072 101.997 64.77 103.756 64.77C105.516 64.77 107.227 65.9072 107.227 68.1573C107.227 70.4073 105.48 71.5445 103.721 71.5445ZM103.721 70.4802C104.894 70.4921 106.066 69.7062 106.066 68.1577C106.066 66.6093 104.905 65.8229 103.756 65.8229C102.607 65.8229 101.422 66.5969 101.422 68.1577C101.422 69.7186 102.571 70.4683 103.72 70.4802H103.721Z" fill="#EEEBE2"/>
<path d="M110.004 64.8789V65.6895C110.483 64.9879 111.177 64.7822 111.991 64.7822C113.966 64.7822 114.804 66.0284 114.804 67.9034V71.4234H113.643V67.9153C113.643 66.6934 113.332 65.8589 111.955 65.8347C110.699 65.8104 110.005 66.7177 110.005 67.8667V71.4234H108.832V64.8789H110.005H110.004Z" fill="#EEEBE2"/>
<path d="M117.975 63.1977C117.975 64.1168 116.515 64.1168 116.515 63.1977C116.515 62.2785 117.975 62.2785 117.975 63.1977ZM117.831 64.8066H116.658V71.4235H117.831V64.8066Z" fill="#EEEBE2"/>
<path d="M126.055 68.9317C125.731 70.6615 124.271 71.5083 122.811 71.5202C121.124 71.5445 119.424 70.4192 119.424 68.1454C119.424 65.8715 121.1 64.7705 122.787 64.7705C124.259 64.7705 125.731 65.6292 126.055 67.3714H124.846C124.558 66.3308 123.685 65.823 122.799 65.823C121.709 65.823 120.597 66.585 120.597 68.1454C120.597 69.7057 121.698 70.4802 122.811 70.4802C123.696 70.4802 124.558 69.9723 124.845 68.9317H126.054H126.055Z" fill="#EEEBE2"/>
<path d="M133.666 62.8828C136.407 62.8828 137.783 65.0843 137.783 67.2016C137.783 69.3189 136.406 71.4233 133.666 71.4233H130.662V62.8828H133.666ZM133.666 70.2014C135.605 70.2014 136.586 68.7015 136.586 67.2011C136.586 65.7008 135.605 64.1042 133.666 64.1042H131.871V70.2009H133.666V70.2014Z" fill="#EEEBE2"/>
<path d="M145.814 64.879V71.4236H144.641V70.5406C144.174 71.2541 143.133 71.5202 142.331 71.5326C140.069 71.5326 138.848 69.9237 138.848 68.1211C138.848 66.3185 140.117 64.77 142.307 64.77C143.109 64.77 144.079 64.9638 144.653 65.7496L144.641 64.8785H145.815L145.814 64.879ZM142.283 65.8106C140.871 65.8348 140.021 66.8387 140.021 68.1211C140.021 69.4034 140.895 70.5163 142.379 70.4802C143.444 70.4559 144.641 69.6819 144.641 68.1454C144.641 66.6088 143.384 65.7987 142.283 65.8106Z" fill="#EEEBE2"/>
<path d="M149.022 63.4277V64.8795H150.446V65.823H149.022V69.5125C149.022 70.4921 149.62 70.5288 150.482 70.444V71.436C148.914 71.5569 147.849 71.2304 147.849 69.5006V65.823H146.879V64.8795H147.849V63.6576L149.022 63.4277Z" fill="#EEEBE2"/>
<path d="M152.995 63.1977C152.995 64.1168 151.535 64.1168 151.535 63.1977C151.535 62.2785 152.995 62.2785 152.995 63.1977ZM152.852 64.8066H151.678V71.4235H152.852V64.8066Z" fill="#EEEBE2"/>
<path d="M155.999 64.8789V65.6895C156.478 64.9879 157.173 64.7822 157.986 64.7822C159.961 64.7822 160.799 66.0284 160.799 67.9034V71.4234H159.638V67.9153C159.638 66.6934 159.327 65.8589 157.951 65.8347C156.694 65.8104 156 66.7177 156 67.8667V71.4234H154.827V64.8789H156H155.999Z" fill="#EEEBE2"/>
<path d="M165.741 74.0003C164.114 74.0003 162.594 73.3472 162.594 71.8592H163.754C163.754 72.6941 164.88 72.9602 165.729 72.9478C166.759 72.9359 167.896 72.4399 167.896 71.1819V70.4921C167.333 71.2423 166.519 71.4113 165.717 71.4113C163.539 71.4113 162.282 69.9476 162.282 68.1692C162.282 66.3909 163.479 64.7577 165.741 64.7701C166.543 64.7701 167.428 65.0481 167.907 65.7497V64.8786H169.068V71.1809C169.068 73.2134 167.345 73.9993 165.741 73.9993L165.741 74.0003ZM167.896 67.9884C167.896 66.8269 167.19 65.8473 165.79 65.8111C164.305 65.7749 163.455 66.9845 163.455 68.1702C163.467 69.3193 164.281 70.3717 165.706 70.3717C167.13 70.3717 167.896 69.1984 167.896 67.9884Z" fill="#EEEBE2"/>
</svg>
