<svg width="126" height="125" viewBox="0 0 126 125" fill="none" xmlns="http://www.w3.org/2000/svg">
<path d="M61.896 123.235H63.0001V122.513C62.6379 122.762 62.27 123.003 61.896 123.235Z" fill="#FFCEBF"/>
<path d="M110.059 54.1458V65.6961C110.059 74.7058 102.755 82.0099 93.7454 82.0099C84.7357 82.0099 77.4316 74.7061 77.4316 65.6961V54.1458H110.059Z" fill="#FFCEBF"/>
<path d="M116.053 34.4385H90.6957C83.3701 34.4385 77.4316 40.3769 77.4316 47.7025V54.1457H102.789C110.115 54.1457 116.053 48.2073 116.053 40.8816V34.4385Z" fill="#1F2726"/>
<path d="M57.0355 96.9999C60.5944 95.0084 63.0001 91.202 63.0001 86.834C63.0001 83.0991 61.2392 79.7777 58.5047 77.6473C61.2392 75.5173 63.0001 72.1958 63.0001 68.461C63.0001 65.1887 61.6498 62.2319 59.4758 60.1171C56.8827 57.5943 54.7877 54.5858 53.63 51.1581C50.6184 42.243 42.1868 35.8242 32.255 35.8242C22.3234 35.8242 13.8915 42.2428 10.88 51.1581C9.72219 54.5858 7.62725 57.5943 5.03412 60.1171C2.86013 62.2319 1.50986 65.1884 1.50986 68.461C1.50986 72.1958 3.27073 75.5173 6.00517 77.6476C3.14826 79.873 1.35425 83.3988 1.5204 87.3377C1.69483 91.4698 4.06383 95.0686 7.48068 96.9912L57.0355 96.9999Z" fill="#1F2726"/>
<path d="M58.5047 77.6477C61.2392 75.5174 63.0001 72.1959 63.0001 68.4611C63.0001 66.0647 62.2737 63.8393 61.0324 61.9883C60.0194 69.8329 53.3195 75.8951 45.199 75.8951C39.8715 75.8951 35.1563 73.2839 32.255 69.2742C29.3536 73.2839 24.6385 75.8951 19.3109 75.8951C11.1904 75.8951 4.4905 69.8329 3.47754 61.9883C2.23619 63.8393 1.50986 66.0647 1.50986 68.4611C1.50986 72.1959 3.27073 75.5174 6.00517 77.6477C3.14826 79.8734 1.35425 83.3989 1.5204 87.3378C1.69483 91.4699 4.06383 95.0688 7.48068 96.9913L57.0353 97C60.5942 95.0083 62.9998 91.2021 62.9998 86.8341C63.0001 83.0992 61.2392 79.778 58.5047 77.6477Z" fill="#1F2726"/>
<path d="M87.7216 88.3811C74.0682 88.3811 63 99.4493 63 113.103V123.235H124.49V113.103C124.49 99.4493 113.422 88.3811 99.7686 88.3811H87.7216Z" fill="#4E615F"/>
<path d="M80.1826 99.2148C80.1826 95.6235 80.8537 92.1899 82.075 89.0295C71.1428 91.5838 63 101.392 63 113.103V123.235H93.5456C85.524 118.247 80.1826 109.356 80.1826 99.2148Z" fill="#4E615F"/>
<path d="M99.7687 81.4414V88.381C99.7687 91.7078 97.072 94.4045 93.7452 94.4045C90.4185 94.4045 87.7217 91.7078 87.7217 88.381V81.4414H99.7687Z" fill="#EFDDCF"/>
<path d="M26.2313 80.9395V88.381C12.578 88.381 1.50977 99.4493 1.50977 113.103V123.235H63V113.103C63 99.4493 51.9317 88.381 38.2784 88.381V80.9395H26.2313Z" fill="#FFCEBF"/>
<path d="M18.726 99.2148C18.726 95.6203 19.3984 92.1831 20.6219 89.0205C9.67089 91.5612 1.50977 101.379 1.50977 113.103V123.235H32.0887C24.0671 118.247 18.726 109.356 18.726 99.2148Z" fill="#FFCEBF"/>
<path d="M19.5825 106.677C20.7332 106.19 21.9984 105.921 23.3263 105.921C27.3739 105.921 30.8352 108.422 32.255 111.962C33.6748 108.422 37.1358 105.921 41.1836 105.921C46.4958 105.921 50.8022 110.227 50.8022 115.539V123.235H13.708L14.6474 112.192L19.5825 106.677Z" fill="#4E615F"/>
<path d="M19.71 106.627C16.1907 108.056 13.708 111.507 13.708 115.54V123.235H32.0891C26.0961 119.509 21.6011 113.604 19.71 106.627Z" fill="#4E615F"/>
<path d="M46.9922 61.1078C41.2417 61.0925 36.0359 58.7629 32.2549 55.0022C28.4739 58.7626 23.268 61.0925 17.5176 61.1078V67.0696C17.5176 75.2089 24.1159 81.8069 32.2549 81.8069C40.3942 81.8069 46.9922 75.2086 46.9922 67.0696V61.1078Z" fill="#FFCEBF"/>
<path d="M63.0003 31.7413L51.0425 22.4207C47.3551 19.5464 45.1992 15.1324 45.1992 10.4572C45.1992 4.70998 49.9493 0.0151448 55.691 0.264368C58.6319 0.391866 61.2449 1.7838 63.0003 3.90986C64.7556 1.7838 67.3686 0.392117 70.3096 0.264368C76.0512 0.0151448 80.8013 4.71024 80.8013 10.4572C80.8013 15.1324 78.6454 19.5464 74.958 22.4207L63.0003 31.7413Z" fill="#4E615F"/>
<path d="M57.0355 97.0002C60.5944 95.0087 63.0001 91.2023 63.0001 86.8342C63.0001 83.0994 61.2392 79.7779 58.5047 77.6476C61.2392 75.5175 63.0001 72.196 63.0001 68.4612C63.0001 65.1889 61.6498 62.2321 59.4758 60.1174C56.8827 57.5945 54.7877 54.586 53.63 51.1584C50.6184 42.2433 42.1868 35.8245 32.255 35.8245C22.3234 35.8245 13.8915 42.243 10.88 51.1584C9.72219 54.586 7.62725 57.5945 5.03412 60.1174C2.86013 62.2321 1.50986 65.1887 1.50986 68.4612C1.50986 72.196 3.27073 75.5175 6.00517 77.6478C3.14826 79.8733 1.35425 83.3991 1.5204 87.3379C1.69483 91.4701 4.06383 95.0689 7.48068 96.9914" stroke="#1F2726" stroke-width="2" stroke-miterlimit="10" stroke-linecap="round" stroke-linejoin="round"/>
<path d="M87.7216 88.3811C74.0682 88.3811 63 99.4493 63 113.103V123.235H124.49V113.103C124.49 99.4493 113.422 88.3811 99.7686 88.3811" stroke="#1F2726" stroke-width="2" stroke-miterlimit="10" stroke-linecap="round" stroke-linejoin="round"/>
<path d="M110.059 54.146V65.6964C110.059 74.7061 102.755 82.0101 93.7454 82.0101C84.7357 82.0101 77.4316 74.7063 77.4316 65.6964V54.146" stroke="#1F2726" stroke-width="2" stroke-miterlimit="10" stroke-linecap="round" stroke-linejoin="round"/>
<path d="M99.7687 81.4417V88.3813C99.7687 91.708 97.072 94.4048 93.7452 94.4048C90.4185 94.4048 87.7217 91.708 87.7217 88.3813V81.4417" stroke="#1F2726" stroke-width="2" stroke-miterlimit="10" stroke-linecap="round" stroke-linejoin="round"/>
<path d="M26.2313 80.9397V88.3813C12.578 88.3813 1.50977 99.4495 1.50977 113.103V123.235H63V113.103C63 99.4495 51.9317 88.3813 38.2784 88.3813V80.9397" stroke="#1F2726" stroke-width="2" stroke-miterlimit="10" stroke-linecap="round" stroke-linejoin="round"/>
<path d="M116.053 34.4385H90.6957C83.3701 34.4385 77.4316 40.3769 77.4316 47.7025V54.1457H102.789C110.115 54.1457 116.053 48.2073 116.053 40.8816V34.4385Z" stroke="#1F2726" stroke-width="2" stroke-miterlimit="10" stroke-linecap="round" stroke-linejoin="round"/>
<path d="M46.9922 61.1078C41.2417 61.0925 36.0359 58.7629 32.2549 55.0022C28.4739 58.7626 23.268 61.0925 17.5176 61.1078V67.0696C17.5176 75.2089 24.1159 81.8069 32.2549 81.8069C40.3942 81.8069 46.9922 75.2086 46.9922 67.0696V61.1078Z" stroke="#1F2726" stroke-width="2" stroke-miterlimit="10" stroke-linecap="round" stroke-linejoin="round"/>
</svg>
