<svg width="125" height="127" viewBox="0 0 125 127" fill="none" xmlns="http://www.w3.org/2000/svg">
<g clip-path="url(#clip0_430_1228)">
<mask id="mask0_430_1228" style="mask-type:luminance" maskUnits="userSpaceOnUse" x="0" y="0" width="128" height="128">
<path d="M0 1.52588e-05H128V128H0V1.52588e-05Z" fill="white"/>
</mask>
<g mask="url(#mask0_430_1228)">
<path d="M1.875 21.7433C1.875 10.6731 10.929 1.71734 22.0357 1.87734C32.7945 2.03209 41.5427 10.8553 41.6107 21.6148C41.649 27.6406 39.004 33.0486 34.8008 36.7166C34.3573 37.1036 34.4212 37.8103 34.9277 38.1098L38.6715 40.3251C39.2765 40.6831 39.0227 41.6111 38.3192 41.6108L21.367 41.6066C10.5678 41.4058 1.875 32.5903 1.875 21.7433Z" fill="#4E615F"/>
<path d="M38.6712 40.3248L34.9275 38.1098C34.4237 37.8116 34.3535 37.1061 34.795 36.7213C39.046 33.0141 41.705 27.5276 41.6085 21.4221C41.4417 10.8608 32.894 2.19135 22.3357 1.88359C20.8385 1.8401 19.3772 1.9626 17.9688 2.23335C27.095 3.98285 34.0502 12.0271 34.1107 21.6148C34.14 26.2578 32.576 30.5343 29.9337 33.9308C28.3382 35.9816 28.8567 38.9553 31.0932 40.2786L31.1712 40.3248C31.77 40.6791 31.5272 41.5891 30.8415 41.6088L38.3192 41.6108C39.0225 41.6108 39.2765 40.6831 38.6712 40.3248Z" fill="#8C9998"/>
<path d="M98.6815 73.9917H53.6102C42.353 73.9917 36.1927 60.8727 43.3825 52.2104L43.7822 51.7289C46.9497 47.9129 48.6835 43.1094 48.6835 38.1502V29.4585C48.6835 14.2247 61.033 1.8752 76.267 1.8752C91.5007 1.8752 103.85 14.2247 103.85 29.4585V38.4435C103.85 43.4547 105.621 48.3049 108.848 52.1382C116.128 60.7827 109.983 73.9917 98.6815 73.9917Z" fill="#1F2726"/>
<path d="M122.374 126.125V96.3285C122.374 89.7473 118.495 83.7845 112.478 81.1183L92.2905 72.4658C88.451 70.82 85.9617 67.0448 85.9617 62.8675V61.0388H66.3307V62.967C66.3307 67.1245 63.8647 70.886 60.052 72.5438L40.101 81.218C33.9307 83.815 29.918 89.8573 29.918 96.552V126.125" fill="#EEEBE2"/>
<path d="M55.0258 81.8339C60.1195 83.3559 67.6175 84.9794 76.7568 84.8197C85.3323 84.6699 92.3715 83.0024 97.2695 81.4382L99.7033 75.6424L92.2918 72.4659C88.4523 70.8202 85.963 67.0449 85.963 62.8677V61.0389H66.3325V62.9672C66.3325 67.1247 63.866 70.8862 60.0533 72.5439L54.0508 75.1537L55.0258 81.8339Z" fill="#FFCEBF"/>
<path d="M112.479 81.1183L97.2723 74.6005L97.2695 74.6008V126.125H122.376V96.3285C122.376 89.7473 118.496 83.7845 112.479 81.1183Z" fill="#8C9998"/>
<path d="M39.8147 81.1183L55.0217 74.6005L55.0245 74.6008V126.125H29.918V96.3285C29.918 89.7473 33.7977 83.7845 39.8147 81.1183Z" fill="#8C9998"/>
<path d="M81.7245 57.04H77.3305C75.3305 57.04 73.709 55.4188 73.709 53.4188C73.709 51.4188 75.3305 49.7973 77.3305 49.7973H81.7245C83.7245 49.7973 85.3457 51.4188 85.3457 53.4188C85.3457 55.4188 83.7245 57.04 81.7245 57.04Z" fill="#EEEBE2"/>
<path d="M81.7245 57.04H77.3305C75.3305 57.04 73.709 55.4188 73.709 53.4188C73.709 51.4188 75.3305 49.7973 77.3305 49.7973H81.7245C83.7245 49.7973 85.3457 51.4188 85.3457 53.4188C85.3457 55.4188 83.7245 57.04 81.7245 57.04Z" stroke="#1F2726" stroke-width="2" stroke-miterlimit="10" stroke-linecap="round" stroke-linejoin="round"/>
<path d="M77.9572 95.1844C77.9572 96.1844 77.1464 96.9951 76.1464 96.9951C75.1464 96.9951 74.3359 96.1844 74.3359 95.1844C74.3359 94.1844 75.1464 93.3736 76.1464 93.3736C77.1464 93.3736 77.9572 94.1844 77.9572 95.1844Z" fill="#1F2726"/>
<path d="M82.9505 71.813C85.209 71.813 87.361 71.3595 89.3228 70.541C87.2185 68.5987 85.9613 65.8347 85.9613 62.8672V61.0385H66.3308V62.9667C66.3308 64.4687 66.0073 65.9182 65.416 67.2362C68.3888 70.0697 72.4103 71.813 76.8413 71.813H82.9505Z" fill="#FFB09E"/>
<path d="M95.7678 31.508V47.7477C95.7678 56.8967 88.3511 64.3135 79.2021 64.3135H73.0928C63.9438 64.3135 56.5273 56.8967 56.5273 47.7477V31.508C56.5273 25.5562 61.3521 20.7312 67.3041 20.7312H84.9911C90.9428 20.7312 95.7678 25.5562 95.7678 31.508Z" fill="#FFCEBF"/>
<path d="M81.7245 57.04H77.3305C75.3305 57.04 73.709 55.4188 73.709 53.4188C73.709 51.4188 75.3305 49.7973 77.3305 49.7973H81.7245C83.7245 49.7973 85.3457 51.4188 85.3457 53.4188C85.3457 55.4188 83.7245 57.04 81.7245 57.04Z" fill="#1F2726"/>
<path d="M80.0613 16.4328C80.4821 11.1265 85.5621 7.60503 90.4238 5.78153C98.4668 10.6005 103.851 19.4003 103.851 29.4583V31.3548C103.406 31.448 102.964 31.5298 102.527 31.595C99.8481 31.995 97.5671 31.822 96.0091 31.595C85.9676 30.2573 79.5533 22.8413 80.0613 16.4328Z" fill="#1F2726"/>
<path d="M76.2671 1.87522C82.4966 1.87522 88.2428 3.94122 92.8606 7.42397C90.5571 11.4322 85.2678 19.3567 75.3493 25.2237C67.9863 29.579 61.0436 31.0425 56.7681 31.5952H48.6836V29.4585C48.6836 14.2247 61.0331 1.87522 76.2671 1.87522Z" fill="#1F2726"/>
<path d="M107.101 126.125H47.0799L43.7694 94.8955C43.5344 92.6803 45.2709 90.75 47.4984 90.75H106.683C108.91 90.75 110.647 92.6803 110.412 94.8955L107.101 126.125Z" fill="#EEEBE2"/>
<path d="M106.684 90.75H99.1836C101.411 90.75 103.147 92.6803 102.913 94.8953L99.6021 126.125H107.102L110.413 94.8953C110.647 92.6803 108.911 90.75 106.684 90.75Z" fill="#8C9998"/>
<path d="M126.125 128H1.875C0.83925 128 0 127.161 0 126.125C0 125.089 0.83925 124.25 1.875 124.25H126.125C127.161 124.25 128 125.089 128 126.125C128 127.161 127.161 128 126.125 128Z" fill="#1F2726"/>
<path d="M82.3418 108.438C82.3418 111.337 79.9915 113.688 77.0918 113.688C74.1923 113.688 71.8418 111.337 71.8418 108.438C71.8418 105.538 74.1923 103.188 77.0918 103.188C79.9915 103.188 82.3418 105.538 82.3418 108.438Z" fill="#1F2726"/>
<path d="M1.875 21.7433C1.875 10.6731 10.929 1.71734 22.0357 1.87734C32.7945 2.03209 41.5427 10.8553 41.6107 21.6148C41.649 27.6406 39.004 33.0486 34.8008 36.7166C34.3573 37.1036 34.4212 37.8103 34.9277 38.1098L38.6715 40.3251C39.2765 40.6831 39.0227 41.6111 38.3192 41.6108L21.367 41.6066C10.5678 41.4058 1.875 32.5903 1.875 21.7433Z" stroke="#1F2726" stroke-width="2" stroke-miterlimit="10" stroke-linecap="round" stroke-linejoin="round"/>
<path d="M95.8547 73.9927H98.6825C106.61 73.9927 112 67.4927 112 60.6302C112 57.7077 111.022 54.7202 108.85 52.1377C105.622 48.3052 103.852 43.4552 103.852 38.4427V29.4577C103.852 21.8402 100.765 14.9452 95.7722 9.95518C90.7797 4.96269 83.8847 1.87518 76.2672 1.87518C61.0347 1.87518 48.6847 14.2252 48.6847 29.4577V38.1502C48.6847 43.1102 46.9497 47.9127 43.7822 51.7302L43.3822 52.2102C36.1922 60.8727 42.3547 73.9927 53.61 73.9927H56.7172" stroke="#1F2726" stroke-width="2" stroke-miterlimit="10" stroke-linecap="round" stroke-linejoin="round"/>
<path d="M29.918 118.625V96.5525C29.918 89.8575 33.9305 83.815 40.103 81.2175L56.718 73.9925L60.053 72.5425C63.8655 70.885 66.333 67.125 66.333 62.9675V62.875" stroke="#1F2726" stroke-width="2" stroke-miterlimit="10" stroke-linecap="round" stroke-linejoin="round"/>
<path d="M85.9629 62.875C85.9656 67.05 88.4556 70.82 92.2906 72.465L95.8554 73.9925L112.478 81.1175C118.496 83.785 122.375 89.7475 122.375 96.3275V126.125" stroke="#1F2726" stroke-width="2" stroke-miterlimit="10" stroke-linecap="round" stroke-linejoin="round"/>
<path d="M97.2676 90.75V74.6" stroke="#1F2726" stroke-width="2" stroke-miterlimit="10" stroke-linecap="round" stroke-linejoin="round"/>
<path d="M55.0254 90.75V74.73" stroke="#1F2726" stroke-width="2" stroke-miterlimit="10" stroke-linecap="round" stroke-linejoin="round"/>
<path d="M55.0254 81.8339C60.1191 83.3559 67.6171 84.9794 76.7564 84.8197C85.3319 84.6699 92.3711 83.0022 97.2694 81.4382" stroke="#1F2726" stroke-width="2" stroke-miterlimit="10" stroke-linecap="round" stroke-linejoin="round"/>
<path d="M95.7673 31.56V47.7475C95.7673 56.8975 88.3498 64.3125 79.2021 64.3125H73.0923C63.9421 64.3125 56.5273 56.8975 56.5273 47.7475V31.595" stroke="#1F2726" stroke-width="2" stroke-miterlimit="10" stroke-linecap="round" stroke-linejoin="round"/>
<path d="M95.7677 43.707C95.1952 45.1622 93.848 47.9975 90.921 50.412C88.817 52.1475 86.7107 52.994 85.3457 53.4185" stroke="#1F2726" stroke-width="2" stroke-miterlimit="10" stroke-linecap="round" stroke-linejoin="round"/>
<path d="M81.7245 57.04H77.3305C75.3305 57.04 73.709 55.4188 73.709 53.4188C73.709 51.4188 75.3305 49.7973 77.3305 49.7973H81.7245C83.7245 49.7973 85.3457 51.4188 85.3457 53.4188C85.3457 55.4188 83.7245 57.04 81.7245 57.04Z" stroke="#1F2726" stroke-width="2" stroke-miterlimit="10" stroke-linecap="round" stroke-linejoin="round"/>
<path d="M85.832 27.4646C88.434 29.4806 91.814 30.9926 95.768 31.5599C95.8478 31.5724 95.928 31.5846 96.0105 31.5949C97.5678 31.8224 99.8478 31.9949 102.528 31.5949C102.966 31.5299 103.408 31.4474 103.853 31.3549" stroke="#1F2726" stroke-width="2" stroke-miterlimit="10" stroke-linecap="round" stroke-linejoin="round"/>
<path d="M92.8606 7.42372C90.5571 11.432 85.2678 19.3565 75.3493 25.2235C67.9863 29.579 61.0436 31.0425 56.7681 31.5952H48.6836" stroke="#1F2726" stroke-width="2" stroke-miterlimit="10" stroke-linecap="round" stroke-linejoin="round"/>
<path d="M47.0799 126.125L43.7694 94.8955C43.5344 92.6803 45.2709 90.75 47.4984 90.75H106.683C108.91 90.75 110.647 92.6803 110.412 94.8955L107.101 126.125" stroke="#1F2726" stroke-width="2" stroke-miterlimit="10" stroke-linecap="round" stroke-linejoin="round"/>
<path d="M1.875 126.125H126.125" stroke="#1F2726" stroke-width="2" stroke-miterlimit="10" stroke-linecap="round" stroke-linejoin="round"/>
<path d="M82.3418 108.438C82.3418 111.337 79.9915 113.688 77.0918 113.688C74.1923 113.688 71.8418 111.337 71.8418 108.438C71.8418 105.538 74.1923 103.188 77.0918 103.188C79.9915 103.188 82.3418 105.538 82.3418 108.438Z" stroke="#1F2726" stroke-width="2" stroke-miterlimit="10" stroke-linecap="round" stroke-linejoin="round"/>
<path d="M16.1191 21.7427C16.1191 22.7782 15.2796 23.6177 14.2441 23.6177C13.2084 23.6177 12.3691 22.7782 12.3691 21.7427C12.3691 20.7072 13.2084 19.8677 14.2441 19.8677C15.2796 19.8677 16.1191 20.7072 16.1191 21.7427Z" fill="#1F2726"/>
<path d="M23.6191 21.7427C23.6191 22.7782 22.7796 23.6177 21.7441 23.6177C20.7084 23.6177 19.8691 22.7782 19.8691 21.7427C19.8691 20.7072 20.7084 19.8677 21.7441 19.8677C22.7796 19.8677 23.6191 20.7072 23.6191 21.7427Z" fill="#1F2726"/>
<path d="M31.1191 21.7427C31.1191 22.7782 30.2796 23.6177 29.2441 23.6177C28.2084 23.6177 27.3691 22.7782 27.3691 21.7427C27.3691 20.7072 28.2084 19.8677 29.2441 19.8677C30.2796 19.8677 31.1191 20.7072 31.1191 21.7427Z" fill="#1F2726"/>
</g>
</g>
<defs>
<clipPath id="clip0_430_1228">
<rect width="128" height="128" fill="white"/>
</clipPath>
</defs>
</svg>
